solid OpenSCAD_Model
  facet normal 0.669589 0.322457 -0.669083
    outer loop
      vertex -0.118807 14.1582 9.01737
      vertex -9.00965 21.5951 3.7039
      vertex 3.72308e-007 14.28 9.19496
    endloop
  endfacet
  facet normal 0.669589 0.322457 -0.669083
    outer loop
      vertex -9.00965 21.5951 3.7039
      vertex -0.118807 14.1582 9.01737
      vertex -0.10023 12.0211 8.00601
    endloop
  endfacet
  facet normal 0.71007 0.608114 -0.354961
    outer loop
      vertex 8.34352 14.4956 26.2548
      vertex -9.00965 21.5951 3.7039
      vertex 16.205 46.5081 96.8244
    endloop
  endfacet
  facet normal 0.71007 0.608114 -0.354961
    outer loop
      vertex -9.00965 21.5951 3.7039
      vertex 8.34352 14.4956 26.2548
      vertex 1.91924 15.9195 15.8429
    endloop
  endfacet
  facet normal 0.71007 0.608114 -0.354961
    outer loop
      vertex 0.116622 14.4319 9.6885
      vertex -9.00965 21.5951 3.7039
      vertex 1.91924 15.9195 15.8429
    endloop
  endfacet
  facet normal 0.71007 0.608114 -0.354961
    outer loop
      vertex -9.00965 21.5951 3.7039
      vertex 0.116622 14.4319 9.6885
      vertex 3.72308e-007 14.28 9.19496
    endloop
  endfacet
  facet normal -0.916774 -0.1441 0.372505
    outer loop
      vertex -19.6445 19.6651 8.2961
      vertex -11.2079 12.4145 26.2548
      vertex 9.121 42.0947 87.7678
    endloop
  endfacet
  facet normal -0.916774 -0.1441 0.372505
    outer loop
      vertex -11.2079 12.4145 26.2548
      vertex -19.6445 19.6651 8.2961
      vertex -14.5472 6.7447 15.8429
    endloop
  endfacet
  facet normal 0.761977 0.553609 -0.336018
    outer loop
      vertex 16.205 46.5081 96.8244
      vertex 42.8529 4.33338 87.7678
      vertex 8.34352 14.4956 26.2548
    endloop
  endfacet
  facet normal 0.761977 0.553609 -0.336018
    outer loop
      vertex 16.205 46.5081 96.8244
      vertex 45.6092 3.32968 92.3645
      vertex 42.8529 4.33338 87.7678
    endloop
  endfacet
  facet normal 0.761977 0.553609 -0.336018
    outer loop
      vertex 16.205 46.5081 96.8244
      vertex 47.0601 2.79096 94.7671
      vertex 45.6092 3.32968 92.3645
    endloop
  endfacet
  facet normal 0.761978 0.553609 -0.336017
    outer loop
      vertex 16.205 46.5081 96.8244
      vertex 47.4179 2.6275 95.3091
      vertex 47.0601 2.79096 94.7671
    endloop
  endfacet
  facet normal 0.761977 0.553609 -0.336017
    outer loop
      vertex 47.4179 2.6275 95.3091
      vertex 16.205 46.5081 96.8244
      vertex 48.6545 1.84527 96.8244
    endloop
  endfacet
  facet normal 0.7696 0.559147 -0.308335
    outer loop
      vertex 48.6698 1.83552 96.8449
      vertex 16.5289 46.7106 98
      vertex 49.5321 1.28557 98
    endloop
  endfacet
  facet normal 0.641103 0.298739 -0.706924
    outer loop
      vertex -11.9955 20.3188 0.456722
      vertex -0.0508152 6.81875 5.58427
      vertex 0.0628728 5.54812 5.15042
    endloop
  endfacet
  facet normal 0.641103 0.298739 -0.706924
    outer loop
      vertex -0.0508152 6.81875 5.58427
      vertex -11.9955 20.3188 0.456722
      vertex -9.00965 21.5951 3.7039
    endloop
  endfacet
  facet normal 0.641103 0.298739 -0.706924
    outer loop
      vertex -0.0493138 7.36913 5.81822
      vertex -0.0508152 6.81875 5.58427
      vertex -9.00965 21.5951 3.7039
    endloop
  endfacet
  facet normal 0.24373 -0.117374 -0.962714
    outer loop
      vertex 0.076743 0.495493 5.70986
      vertex -12.0849 18.3284 0.456722
      vertex -0.065553 4.65978 5.16613
    endloop
  endfacet
  facet normal 0.243729 -0.117374 -0.962715
    outer loop
      vertex -2.44286e-007 5.04689 5.13553
      vertex -0.065553 4.65978 5.16613
      vertex -12.0849 18.3284 0.456722
    endloop
  endfacet
  facet normal 0.306902 0.900187 -0.30899
    outer loop
      vertex 15.3328 47.1896 96.8244
      vertex -12.6321 24.7599 3.7039
      vertex 15.4508 47.5528 98
    endloop
  endfacet
  facet normal 0.7696 0.559147 0.308336
    outer loop
      vertex 16.5289 46.7106 98
      vertex 16.205 46.5081 99.1756
      vertex 49.2395 1.04005 99.1756
    endloop
  endfacet
  facet normal 0.7696 0.559147 0.308337
    outer loop
      vertex 49.5321 1.28557 98
      vertex 16.5289 46.7106 98
      vertex 49.2395 1.04005 99.1756
    endloop
  endfacet
  facet normal -0.488316 -0.354782 0.797294
    outer loop
      vertex 14.6059 44.9523 99.9021
      vertex 47.26 0 99.8987
      vertex 47.2657 0 99.9021
    endloop
  endfacet
  facet normal -0.487813 -0.354417 0.797764
    outer loop
      vertex 47.26 0 99.8987
      vertex 14.6059 44.9523 99.9021
      vertex 14.2432 43.836 99.1844
    endloop
  endfacet
  facet normal -0.654226 0.352054 -0.669362
    outer loop
      vertex -15.4565 21.274 0.456722
      vertex -19.6445 19.6651 3.7039
      vertex -17.3651 23.901 3.7039
    endloop
  endfacet
  facet normal 0.346102 -0.0155428 -0.938068
    outer loop
      vertex -12.0849 18.3284 0.456722
      vertex 0.0628728 5.54812 5.15042
      vertex -2.44058e-007 5.31073 5.13115
    endloop
  endfacet
  facet normal 0.346101 -0.0155431 -0.938068
    outer loop
      vertex -12.0849 18.3284 0.456722
      vertex -2.44058e-007 5.31073 5.13115
      vertex -2.44286e-007 5.04689 5.13553
    endloop
  endfacet
  facet normal 0.346101 -0.0155433 -0.938068
    outer loop
      vertex 0.0628728 5.54812 5.15042
      vertex -12.0849 18.3284 0.456722
      vertex -11.9955 20.3188 0.456722
    endloop
  endfacet
  facet normal -0.880595 0.473869 0
    outer loop
      vertex -19.6445 19.6651 3.7039
      vertex -17.3651 23.901 8.2961
      vertex -17.3651 23.901 3.7039
    endloop
  endfacet
  facet normal -0.880595 0.473869 0
    outer loop
      vertex -17.3651 23.901 8.2961
      vertex -19.6445 19.6651 3.7039
      vertex -19.6445 19.6651 8.2961
    endloop
  endfacet
  facet normal -0.092168 -0.333965 -0.938069
    outer loop
      vertex -4.79988 1.55957 5.13553
      vertex -13.6969 17.1572 0.456722
      vertex -4.45197 1.37761 5.16613
    endloop
  endfacet
  facet normal -0.0921687 -0.333965 -0.938068
    outer loop
      vertex -5.0508 1.6411 5.13115
      vertex -13.6969 17.1572 0.456722
      vertex -4.79988 1.55957 5.13553
    endloop
  endfacet
  facet normal -0.092168 -0.333964 -0.938069
    outer loop
      vertex -13.6969 17.1572 0.456722
      vertex -5.0508 1.6411 5.13115
      vertex -15.6175 17.6873 0.456722
    endloop
  endfacet
  facet normal 0.669411 0.322144 -0.669411
    outer loop
      vertex -0.0665352 7.97995 6.09494
      vertex -9.00965 21.5951 3.7039
      vertex -0.10023 12.0211 8.00601
    endloop
  endfacet
  facet normal 0.669411 0.322144 -0.669411
    outer loop
      vertex -9.00965 21.5951 3.7039
      vertex -0.0665352 7.97995 6.09494
      vertex -0.0493138 7.36913 5.81822
    endloop
  endfacet
  facet normal -0.0333758 0.955831 0.292017
    outer loop
      vertex 15.3328 47.1896 99.1756
      vertex 14.0836 47.5051 98
      vertex 14.2267 47.1509 99.1756
    endloop
  endfacet
  facet normal 0 0 1
    outer loop
      vertex 48.4734 0.397264 99.9021
      vertex 48.4734 -0.397264 99.9021
      vertex 48.618 0 99.9021
    endloop
  endfacet
  facet normal 0 0 1
    outer loop
      vertex 48.4734 0.397264 99.9021
      vertex 47.2657 0 99.9021
      vertex 48.4734 -0.397264 99.9021
    endloop
  endfacet
  facet normal 0 0 1
    outer loop
      vertex 15.3569 45.9782 99.9021
      vertex 47.2657 0 99.9021
      vertex 48.4734 0.397264 99.9021
    endloop
  endfacet
  facet normal -0 0 1
    outer loop
      vertex 14.6013 46.2237 99.9021
      vertex 15.3569 45.9782 99.9021
      vertex 15.0238 46.2385 99.9021
    endloop
  endfacet
  facet normal 0 0 1
    outer loop
      vertex 15.3569 45.9782 99.9021
      vertex 14.6059 44.9523 99.9021
      vertex 47.2657 0 99.9021
    endloop
  endfacet
  facet normal 0 0 1
    outer loop
      vertex 15.3569 45.9782 99.9021
      vertex 14.6013 46.2237 99.9021
      vertex 14.6059 44.9523 99.9021
    endloop
  endfacet
  facet normal 0 0 1
    outer loop
      vertex 14.6013 46.2237 99.9021
      vertex -38.2387 27.7821 99.9021
      vertex 14.6059 44.9523 99.9021
    endloop
  endfacet
  facet normal -0 0 1
    outer loop
      vertex -39.4493 28.1706 99.9021
      vertex -38.2387 27.7821 99.9021
      vertex -38.9823 28.8134 99.9021
    endloop
  endfacet
  facet normal -0 0 1
    outer loop
      vertex -38.9823 28.8134 99.9021
      vertex -38.2387 27.7821 99.9021
      vertex 14.6013 46.2237 99.9021
    endloop
  endfacet
  facet normal 0 0 1
    outer loop
      vertex 47.2657 0 99.9021
      vertex 15.3569 -45.9782 99.9021
      vertex 48.4734 -0.397264 99.9021
    endloop
  endfacet
  facet normal -0 0 1
    outer loop
      vertex 14.6059 -44.9523 99.9021
      vertex 15.3569 -45.9782 99.9021
      vertex 47.2657 0 99.9021
    endloop
  endfacet
  facet normal 0 0 1
    outer loop
      vertex 14.6013 -46.2237 99.9021
      vertex 15.3569 -45.9782 99.9021
      vertex 14.6059 -44.9523 99.9021
    endloop
  endfacet
  facet normal 0 0 1
    outer loop
      vertex 15.3569 -45.9782 99.9021
      vertex 14.6013 -46.2237 99.9021
      vertex 15.0238 -46.2385 99.9021
    endloop
  endfacet
  facet normal 0 0 1
    outer loop
      vertex -38.2387 -27.7821 99.9021
      vertex 14.6013 -46.2237 99.9021
      vertex 14.6059 -44.9523 99.9021
    endloop
  endfacet
  facet normal 0 0 1
    outer loop
      vertex -38.2387 -27.7821 99.9021
      vertex -38.9823 -28.8134 99.9021
      vertex 14.6013 -46.2237 99.9021
    endloop
  endfacet
  facet normal 0 0 1
    outer loop
      vertex -38.2387 27.7821 99.9021
      vertex -39.4493 28.1706 99.9021
      vertex -38.2387 -27.7821 99.9021
    endloop
  endfacet
  facet normal 0 0 1
    outer loop
      vertex -39.4493 28.1706 99.9021
      vertex -38.9823 28.8134 99.9021
      vertex -39.3328 28.577 99.9021
    endloop
  endfacet
  facet normal 0 0 1
    outer loop
      vertex -39.4493 -28.1706 99.9021
      vertex -38.2387 -27.7821 99.9021
      vertex -39.4493 28.1706 99.9021
    endloop
  endfacet
  facet normal 0 0 1
    outer loop
      vertex -38.2387 -27.7821 99.9021
      vertex -39.4493 -28.1706 99.9021
      vertex -38.9823 -28.8134 99.9021
    endloop
  endfacet
  facet normal 0 0 1
    outer loop
      vertex -38.9823 -28.8134 99.9021
      vertex -39.4493 -28.1706 99.9021
      vertex -39.3328 -28.577 99.9021
    endloop
  endfacet
  facet normal 0.7696 0.559147 -0.308336
    outer loop
      vertex 16.5289 46.7106 98
      vertex 48.6545 1.84527 96.8244
      vertex 16.205 46.5081 96.8244
    endloop
  endfacet
  facet normal 0.769548 0.559115 -0.308522
    outer loop
      vertex 48.6545 1.84527 96.8244
      vertex 16.5289 46.7106 98
      vertex 48.6698 1.83552 96.8449
    endloop
  endfacet
  facet normal 0.588825 0.753665 0.292017
    outer loop
      vertex 16.5289 46.7106 98
      vertex 15.3328 47.1896 99.1756
      vertex 16.205 46.5081 99.1756
    endloop
  endfacet
  facet normal -0.764622 -0.248441 0.594668
    outer loop
      vertex 46.0775 0 99.1756
      vertex -1.24406e-007 3.34536e-007 39.9293
      vertex -3.55384e-008 6.10307e-008 39.9293
    endloop
  endfacet
  facet normal -0.684751 -0.497501 0.53255
    outer loop
      vertex -1.24406e-007 3.34536e-007 39.9293
      vertex 46.0775 0 99.1756
      vertex 14.2387 43.8223 99.1756
    endloop
  endfacet
  facet normal -0.534577 -0.735782 0.415755
    outer loop
      vertex 46.0775 0 99.1756
      vertex -3.55384e-008 6.10307e-008 39.9293
      vertex 3.29574e-007 -2.04239e-007 39.9293
    endloop
  endfacet
  facet normal -0.866831 0.466474 0.176088
    outer loop
      vertex -17.3651 23.901 8.2961
      vertex 11.888 45.6193 94.7671
      vertex 12.154 45.9091 95.3091
    endloop
  endfacet
  facet normal -0.866835 0.466464 0.176092
    outer loop
      vertex 11.888 45.6193 94.7671
      vertex -17.3651 23.901 8.2961
      vertex -19.6445 19.6651 8.2961
    endloop
  endfacet
  facet normal -0.0340023 0.973711 -0.225235
    outer loop
      vertex 15.4508 47.5528 98
      vertex -12.6321 24.7599 3.7039
      vertex 14.0836 47.5051 98
    endloop
  endfacet
  facet normal 0 0 -1
    outer loop
      vertex -12.0849 18.3284 0.456722
      vertex -13.496 21.6298 0.456722
      vertex -11.9955 20.3188 0.456722
    endloop
  endfacet
  facet normal 0 0 -1
    outer loop
      vertex -13.6969 17.1572 0.456722
      vertex -13.496 21.6298 0.456722
      vertex -12.0849 18.3284 0.456722
    endloop
  endfacet
  facet normal 0 0 -1
    outer loop
      vertex -13.6969 17.1572 0.456722
      vertex -15.4565 21.274 0.456722
      vertex -13.496 21.6298 0.456722
    endloop
  endfacet
  facet normal 0 0 -1
    outer loop
      vertex -15.6175 17.6873 0.456722
      vertex -15.4565 21.274 0.456722
      vertex -13.6969 17.1572 0.456722
    endloop
  endfacet
  facet normal 0 0 -1
    outer loop
      vertex -15.4565 21.274 0.456722
      vertex -15.6175 17.6873 0.456722
      vertex -16.4006 19.5194 0.456722
    endloop
  endfacet
  facet normal -0.0333779 0.95583 0.292019
    outer loop
      vertex 15.4508 47.5528 98
      vertex 14.0836 47.5051 98
      vertex 15.3328 47.1896 99.1756
    endloop
  endfacet
  facet normal 0.588826 0.753664 -0.292019
    outer loop
      vertex 16.5289 46.7106 98
      vertex 15.3328 47.1896 96.8244
      vertex 15.4508 47.5528 98
    endloop
  endfacet
  facet normal -0.487812 -0.354416 0.797765
    outer loop
      vertex 14.2432 43.836 99.1844
      vertex 46.0775 0 99.1756
      vertex 47.26 0 99.8987
    endloop
  endfacet
  facet normal -0.487881 -0.354466 0.7977
    outer loop
      vertex 46.0775 0 99.1756
      vertex 14.2432 43.836 99.1844
      vertex 14.2387 43.8223 99.1756
    endloop
  endfacet
  facet normal 0.588825 0.753665 -0.292017
    outer loop
      vertex 16.205 46.5081 96.8244
      vertex 15.3328 47.1896 96.8244
      vertex 16.5289 46.7106 98
    endloop
  endfacet
  facet normal 0.898734 -0.327112 0.292017
    outer loop
      vertex 50 0 98
      vertex 49.2395 -1.04005 99.1756
      vertex 49.5321 -1.28557 98
    endloop
  endfacet
  facet normal 0.574781 -0.209203 0.791113
    outer loop
      vertex 48.618 0 99.9021
      vertex 48.4734 -0.397264 99.9021
      vertex 49.618 0 99.1756
    endloop
  endfacet
  facet normal -0.132657 0.730997 -0.669362
    outer loop
      vertex -15.4565 21.274 0.456722
      vertex -17.3651 23.901 3.7039
      vertex -12.6321 24.7599 3.7039
    endloop
  endfacet
  facet normal -0.683151 -0.291992 -0.669362
    outer loop
      vertex -17.754 15.2419 3.7039
      vertex -19.6445 19.6651 3.7039
      vertex -15.6175 17.6873 0.456722
    endloop
  endfacet
  facet normal -0.38489 -0.482637 -0.786715
    outer loop
      vertex -5.25715 1.77426 5.15042
      vertex -15.6175 17.6873 0.456722
      vertex -5.0508 1.6411 5.13115
    endloop
  endfacet
  facet normal -0.38489 -0.482637 -0.786715
    outer loop
      vertex -15.6175 17.6873 0.456722
      vertex -5.25715 1.77426 5.15042
      vertex -6.50072 2.05878 5.58427
    endloop
  endfacet
  facet normal 0.576518 0.737913 -0.350872
    outer loop
      vertex 16.205 46.5081 96.8244
      vertex -12.6321 24.7599 3.7039
      vertex 15.3328 47.1896 96.8244
    endloop
  endfacet
  facet normal 0.615107 0.704046 -0.354913
    outer loop
      vertex -9.00965 21.5951 3.7039
      vertex -12.6321 24.7599 3.7039
      vertex 16.205 46.5081 96.8244
    endloop
  endfacet
  facet normal -0.916862 -0.391885 -0.0760949
    outer loop
      vertex -17.754 15.2419 3.7039
      vertex -13.6895 4.57063 9.6885
      vertex -19.6445 19.6651 3.7039
    endloop
  endfacet
  facet normal -0.916862 -0.391886 -0.0760954
    outer loop
      vertex -17.754 15.2419 3.7039
      vertex -13.5811 4.41277 9.19496
      vertex -13.6895 4.57063 9.6885
    endloop
  endfacet
  facet normal -0.916862 -0.391885 -0.0760938
    outer loop
      vertex -13.5811 4.41277 9.19496
      vertex -17.754 15.2419 3.7039
      vertex -13.502 4.26214 9.01737
    endloop
  endfacet
  facet normal -0.930226 -0.366988 0
    outer loop
      vertex -13.6895 4.57063 9.6885
      vertex -19.6445 19.6651 8.2961
      vertex -19.6445 19.6651 3.7039
    endloop
  endfacet
  facet normal -0.930226 -0.366988 4.01303e-009
    outer loop
      vertex -19.6445 19.6651 8.2961
      vertex -13.6895 4.57063 9.6885
      vertex -14.5472 6.7447 15.8429
    endloop
  endfacet
  facet normal -0.668622 0.742579 0.0390105
    outer loop
      vertex 13.2801 46.8434 96.8244
      vertex -17.3651 23.901 8.2961
      vertex 12.154 45.9091 95.3091
    endloop
  endfacet
  facet normal -0.668741 0.742467 0.0390809
    outer loop
      vertex 13.2941 46.8549 96.8449
      vertex -17.3651 23.901 8.2961
      vertex 13.2801 46.8434 96.8244
    endloop
  endfacet
  facet normal -0.668622 0.742579 0.0390105
    outer loop
      vertex -17.3651 23.901 8.2961
      vertex 13.2941 46.8549 96.8449
      vertex 14.0836 47.5051 98
    endloop
  endfacet
  facet normal -0.0213454 0.611298 0.791113
    outer loop
      vertex 15.3328 47.1896 99.1756
      vertex 14.2267 47.1509 99.1756
      vertex 15.0238 46.2385 99.9021
    endloop
  endfacet
  facet normal 0.476288 0.346044 0.808333
    outer loop
      vertex 16.205 46.5081 99.1756
      vertex 15.3569 45.9782 99.9021
      vertex 48.4734 0.397264 99.9021
    endloop
  endfacet
  facet normal 0.574781 0.209203 0.791113
    outer loop
      vertex 49.618 0 99.1756
      vertex 48.4734 0.397264 99.9021
      vertex 48.618 0 99.9021
    endloop
  endfacet
  facet normal 0.898734 -0.327112 -0.292017
    outer loop
      vertex 50 0 98
      vertex 49.2395 -1.04005 96.8244
      vertex 49.618 0 96.8244
    endloop
  endfacet
  facet normal 0.898734 -0.327112 -0.292017
    outer loop
      vertex 49.5321 -1.28557 98
      vertex 49.2395 -1.04005 96.8244
      vertex 50 0 98
    endloop
  endfacet
  facet normal -0.132657 0.730997 -0.669362
    outer loop
      vertex -13.496 21.6298 0.456722
      vertex -15.4565 21.274 0.456722
      vertex -12.6321 24.7599 3.7039
    endloop
  endfacet
  facet normal 0.488806 0.559484 -0.669362
    outer loop
      vertex -11.9955 20.3188 0.456722
      vertex -12.6321 24.7599 3.7039
      vertex -9.00965 21.5951 3.7039
    endloop
  endfacet
  facet normal 0.0626899 -0.192939 -0.979206
    outer loop
      vertex -1.45086e-007 2.16533e-007 5.79648
      vertex -1.29603e-007 0.00354801 5.79578
      vertex -1.2962e-007 2.21559e-007 5.79648
    endloop
  endfacet
  facet normal 0.139117 -0.19144 -0.971595
    outer loop
      vertex -0.00337612 0.00109714 5.79578
      vertex -1.29603e-007 0.00354801 5.79578
      vertex -1.45086e-007 2.16533e-007 5.79648
    endloop
  endfacet
  facet normal 0.139081 -0.19139 -0.97161
    outer loop
      vertex -0.00337612 0.00109714 5.79578
      vertex 0.076743 0.495493 5.70986
      vertex -1.29603e-007 0.00354801 5.79578
    endloop
  endfacet
  facet normal 0.13905 -0.191386 -0.971616
    outer loop
      vertex -13.6969 17.1572 0.456722
      vertex 0.076743 0.495493 5.70986
      vertex -0.00337612 0.00109714 5.79578
    endloop
  endfacet
  facet normal 0.13905 -0.191386 -0.971616
    outer loop
      vertex 0.076743 0.495493 5.70986
      vertex -13.6969 17.1572 0.456722
      vertex -12.0849 18.3284 0.456722
    endloop
  endfacet
  facet normal 0.0580062 -0.254146 -0.965425
    outer loop
      vertex -0.447527 0.226103 5.70986
      vertex -13.6969 17.1572 0.456722
      vertex -0.00337612 0.00109714 5.79578
    endloop
  endfacet
  facet normal 0.058007 -0.254145 -0.965425
    outer loop
      vertex -13.6969 17.1572 0.456722
      vertex -0.447527 0.226103 5.70986
      vertex -4.45197 1.37761 5.16613
    endloop
  endfacet
  facet normal -0.683151 -0.291993 -0.669362
    outer loop
      vertex -15.6175 17.6873 0.456722
      vertex -19.6445 19.6651 3.7039
      vertex -16.4006 19.5194 0.456722
    endloop
  endfacet
  facet normal -0.654226 0.352054 -0.669362
    outer loop
      vertex -16.4006 19.5194 0.456722
      vertex -19.6445 19.6651 3.7039
      vertex -15.4565 21.274 0.456722
    endloop
  endfacet
  facet normal -0.485046 -0.514862 -0.706858
    outer loop
      vertex -7.0237 2.23029 5.81822
      vertex -15.6175 17.6873 0.456722
      vertex -6.50072 2.05878 5.58427
    endloop
  endfacet
  facet normal -0.485045 -0.514862 -0.706858
    outer loop
      vertex -7.60994 2.40266 6.09494
      vertex -15.6175 17.6873 0.456722
      vertex -7.0237 2.23029 5.81822
    endloop
  endfacet
  facet normal -0.485045 -0.514862 -0.706858
    outer loop
      vertex -15.6175 17.6873 0.456722
      vertex -7.60994 2.40266 6.09494
      vertex -17.754 15.2419 3.7039
    endloop
  endfacet
  facet normal -0.505283 -0.526539 -0.683701
    outer loop
      vertex -11.4638 3.61941 8.00601
      vertex -17.754 15.2419 3.7039
      vertex -7.60994 2.40266 6.09494
    endloop
  endfacet
  facet normal -0.505283 -0.526539 -0.683701
    outer loop
      vertex -17.754 15.2419 3.7039
      vertex -11.4638 3.61941 8.00601
      vertex -13.502 4.26214 9.01737
    endloop
  endfacet
  facet normal -0.941745 0.161795 0.294855
    outer loop
      vertex 11.888 45.6193 94.7671
      vertex -19.6445 19.6651 8.2961
      vertex 10.9273 44.4059 92.3645
    endloop
  endfacet
  facet normal -0.943386 0.132582 0.304048
    outer loop
      vertex 10.9273 44.4059 92.3645
      vertex -19.6445 19.6651 8.2961
      vertex 9.121 42.0947 87.7678
    endloop
  endfacet
  facet normal 0.588826 0.753664 0.292019
    outer loop
      vertex 15.4508 47.5528 98
      vertex 15.3328 47.1896 99.1756
      vertex 16.5289 46.7106 98
    endloop
  endfacet
  facet normal 0.376581 0.482003 0.791113
    outer loop
      vertex 15.3328 47.1896 99.1756
      vertex 15.0238 46.2385 99.9021
      vertex 16.205 46.5081 99.1756
    endloop
  endfacet
  facet normal 0.898734 0.327112 0.292017
    outer loop
      vertex 49.5321 1.28557 98
      vertex 49.2395 1.04005 99.1756
      vertex 50 0 98
    endloop
  endfacet
  facet normal 0.898734 -0.327112 0.292017
    outer loop
      vertex 49.618 0 99.1756
      vertex 49.2395 -1.04005 99.1756
      vertex 50 0 98
    endloop
  endfacet
  facet normal 0.898734 0.327112 0.292017
    outer loop
      vertex 50 0 98
      vertex 49.2395 1.04005 99.1756
      vertex 49.618 0 99.1756
    endloop
  endfacet
  facet normal 0.574781 -0.209203 0.791113
    outer loop
      vertex 49.618 0 99.1756
      vertex 48.4734 -0.397264 99.9021
      vertex 49.2395 -1.04005 99.1756
    endloop
  endfacet
  facet normal 0.574781 0.209203 0.791113
    outer loop
      vertex 49.2395 1.04005 99.1756
      vertex 48.4734 0.397264 99.9021
      vertex 49.618 0 99.1756
    endloop
  endfacet
  facet normal 0.476289 0.346045 0.808333
    outer loop
      vertex 49.2395 1.04005 99.1756
      vertex 16.205 46.5081 99.1756
      vertex 48.4734 0.397264 99.9021
    endloop
  endfacet
  facet normal 0.488806 0.559484 -0.669362
    outer loop
      vertex -11.9955 20.3188 0.456722
      vertex -13.496 21.6298 0.456722
      vertex -12.6321 24.7599 3.7039
    endloop
  endfacet
  facet normal -0.175523 0.967209 -0.183572
    outer loop
      vertex -12.6321 24.7599 3.7039
      vertex -17.3651 23.901 3.7039
      vertex 14.0836 47.5051 98
    endloop
  endfacet
  facet normal -0.600285 0.799786 0
    outer loop
      vertex 14.0836 47.5051 98
      vertex -17.3651 23.901 3.7039
      vertex -17.3651 23.901 8.2961
    endloop
  endfacet
  facet normal 0.376583 0.481998 0.791115
    outer loop
      vertex 16.205 46.5081 99.1756
      vertex 15.0238 46.2385 99.9021
      vertex 15.3569 45.9782 99.9021
    endloop
  endfacet
  facet normal -0.0213486 0.611296 0.791114
    outer loop
      vertex 15.0238 46.2385 99.9021
      vertex 14.2267 47.1509 99.1756
      vertex 14.6013 46.2237 99.9021
    endloop
  endfacet
  facet normal -0.099761 0.736462 -0.669083
    outer loop
      vertex -13.502 4.26214 9.01737
      vertex -23.3223 -1.89545 3.7039
      vertex -13.5811 4.41277 9.19496
    endloop
  endfacet
  facet normal -0.0997604 0.736461 -0.669083
    outer loop
      vertex -23.3223 -1.89545 3.7039
      vertex -13.502 4.26214 9.01737
      vertex -11.4638 3.61941 8.00601
    endloop
  endfacet
  facet normal -0.358927 0.863235 -0.354961
    outer loop
      vertex -23.3223 -1.89545 3.7039
      vertex -11.2079 12.4145 26.2548
      vertex -14.5472 6.7447 15.8429
    endloop
  endfacet
  facet normal -0.358927 0.863235 -0.354961
    outer loop
      vertex -23.3223 -1.89545 3.7039
      vertex -14.5472 6.7447 15.8429
      vertex -13.6895 4.57063 9.6885
    endloop
  endfacet
  facet normal -0.358927 0.863235 -0.354961
    outer loop
      vertex -23.3223 -1.89545 3.7039
      vertex -13.6895 4.57063 9.6885
      vertex -13.5811 4.41277 9.19496
    endloop
  endfacet
  facet normal -0.358927 0.863235 -0.354961
    outer loop
      vertex -11.2079 12.4145 26.2548
      vertex -23.3223 -1.89545 3.7039
      vertex -39.2243 29.7837 96.8244
    endloop
  endfacet
  facet normal -0.146251 -0.916434 0.372505
    outer loop
      vertex -15.2704 -6.82301 26.2548
      vertex -24.7731 -12.6062 8.2961
      vertex -10.9099 -11.751 15.8429
    endloop
  endfacet
  facet normal -0.146251 -0.916434 0.372505
    outer loop
      vertex -24.7731 -12.6062 8.2961
      vertex -15.2704 -6.82301 26.2548
      vertex -37.2159 21.6826 87.7678
    endloop
  endfacet
  facet normal -0.291049 0.895758 -0.336017
    outer loop
      vertex 12.154 45.9091 95.3091
      vertex -39.2243 29.7837 96.8244
      vertex 13.2801 46.8434 96.8244
    endloop
  endfacet
  facet normal -0.291049 0.895758 -0.336018
    outer loop
      vertex 11.888 45.6193 94.7671
      vertex -39.2243 29.7837 96.8244
      vertex 12.154 45.9091 95.3091
    endloop
  endfacet
  facet normal -0.291049 0.895758 -0.336019
    outer loop
      vertex 10.9273 44.4059 92.3645
      vertex -39.2243 29.7837 96.8244
      vertex 11.888 45.6193 94.7671
    endloop
  endfacet
  facet normal -0.291049 0.895758 -0.336018
    outer loop
      vertex 9.121 42.0947 87.7678
      vertex -39.2243 29.7837 96.8244
      vertex 10.9273 44.4059 92.3645
    endloop
  endfacet
  facet normal -0.291049 0.895758 -0.336018
    outer loop
      vertex -39.2243 29.7837 96.8244
      vertex 9.121 42.0947 87.7678
      vertex -11.2079 12.4145 26.2548
    endloop
  endfacet
  facet normal -0.293961 0.904719 -0.308335
    outer loop
      vertex 13.2941 46.8549 96.8449
      vertex -39.3167 30.1543 98
      vertex 14.0836 47.5051 98
    endloop
  endfacet
  facet normal -0.0860059 0.702041 -0.706924
    outer loop
      vertex -23.0312 -5.12955 0.456722
      vertex -6.50072 2.05878 5.58427
      vertex -5.25715 1.77426 5.15042
    endloop
  endfacet
  facet normal -0.0860056 0.702041 -0.706924
    outer loop
      vertex -23.0312 -5.12955 0.456722
      vertex -7.0237 2.23029 5.81822
      vertex -6.50072 2.05878 5.58427
    endloop
  endfacet
  facet normal -0.0860059 0.702041 -0.706924
    outer loop
      vertex -7.0237 2.23029 5.81822
      vertex -23.0312 -5.12955 0.456722
      vertex -23.3223 -1.89545 3.7039
    endloop
  endfacet
  facet normal -0.293947 0.904663 -0.308512
    outer loop
      vertex 13.2801 46.8434 96.8244
      vertex -39.3167 30.1543 98
      vertex 13.2941 46.8549 96.8449
    endloop
  endfacet
  facet normal -0.293961 0.904718 -0.308337
    outer loop
      vertex -39.3167 30.1543 98
      vertex 13.2801 46.8434 96.8244
      vertex -39.2243 29.7837 96.8244
    endloop
  endfacet
  facet normal 0.186347 -0.573517 0.797718
    outer loop
      vertex 14.2432 43.836 99.1844
      vertex -37.2775 27.0837 99.1756
      vertex 14.2387 43.8223 99.1756
    endloop
  endfacet
  facet normal 0.186328 -0.573458 0.797764
    outer loop
      vertex -37.2775 27.0837 99.1756
      vertex 14.2432 43.836 99.1844
      vertex -38.2342 27.7787 99.8987
    endloop
  endfacet
  facet normal -0.94614 -0.323758 -0
    outer loop
      vertex -28.0973 -9.12937 8.2961
      vertex -40.8279 28.0742 98
      vertex -28.0973 -9.12937 3.7039
    endloop
  endfacet
  facet normal -0.722795 -0.691063 0
    outer loop
      vertex -24.7731 -12.6062 3.7039
      vertex -28.0973 -9.12937 8.2961
      vertex -28.0973 -9.12937 3.7039
    endloop
  endfacet
  facet normal -0.722795 -0.691063 0
    outer loop
      vertex -28.0973 -9.12937 8.2961
      vertex -24.7731 -12.6062 3.7039
      vertex -24.7731 -12.6062 8.2961
    endloop
  endfacet
  facet normal 0 0 -1
    outer loop
      vertex -21.6477 -9.38749 0.456722
      vertex -21.1657 -5.82966 0.456722
      vertex -20.55 -7.72462 0.456722
    endloop
  endfacet
  facet normal 0 0 -1
    outer loop
      vertex -21.6477 -9.38749 0.456722
      vertex -23.0312 -5.12955 0.456722
      vertex -21.1657 -5.82966 0.456722
    endloop
  endfacet
  facet normal 0 0 -1
    outer loop
      vertex -23.6321 -9.5661 0.456722
      vertex -23.0312 -5.12955 0.456722
      vertex -21.6477 -9.38749 0.456722
    endloop
  endfacet
  facet normal 0 0 -1
    outer loop
      vertex -23.6321 -9.5661 0.456722
      vertex -24.7416 -6.15149 0.456722
      vertex -23.0312 -5.12955 0.456722
    endloop
  endfacet
  facet normal 0 -0 -1
    outer loop
      vertex -24.7416 -6.15149 0.456722
      vertex -23.6321 -9.5661 0.456722
      vertex -25.0091 -8.12594 0.456722
    endloop
  endfacet
  facet normal 0.121734 0.324359 -0.938068
    outer loop
      vertex -21.1657 -5.82966 0.456722
      vertex -5.0508 1.6411 5.13115
      vertex -4.79988 1.55957 5.13553
    endloop
  endfacet
  facet normal 0.121733 0.324359 -0.938068
    outer loop
      vertex -21.1657 -5.82966 0.456722
      vertex -5.25715 1.77426 5.15042
      vertex -5.0508 1.6411 5.13115
    endloop
  endfacet
  facet normal 0.121734 0.324359 -0.938068
    outer loop
      vertex -5.25715 1.77426 5.15042
      vertex -21.1657 -5.82966 0.456722
      vertex -23.0312 -5.12955 0.456722
    endloop
  endfacet
  facet normal 0.289138 -0.19086 -0.938068
    outer loop
      vertex -2.96649 -4.08302 5.13553
      vertex -20.55 -7.72462 0.456722
      vertex -2.68592 -3.80837 5.16613
    endloop
  endfacet
  facet normal 0.289138 -0.190859 -0.938068
    outer loop
      vertex -3.12157 -4.29647 5.13115
      vertex -20.55 -7.72462 0.456722
      vertex -2.96649 -4.08302 5.13553
    endloop
  endfacet
  facet normal 0.289138 -0.190858 -0.938068
    outer loop
      vertex -20.55 -7.72462 0.456722
      vertex -3.12157 -4.29647 5.13115
      vertex -21.6477 -9.38749 0.456722
    endloop
  endfacet
  facet normal -0.099518 0.736196 -0.669411
    outer loop
      vertex -7.60994 2.40266 6.09494
      vertex -23.3223 -1.89545 3.7039
      vertex -11.4638 3.61941 8.00601
    endloop
  endfacet
  facet normal -0.0995181 0.736196 -0.669411
    outer loop
      vertex -23.3223 -1.89545 3.7039
      vertex -7.60994 2.40266 6.09494
      vertex -7.0237 2.23029 5.81822
    endloop
  endfacet
  facet normal 0.261552 -0.804973 0.53255
    outer loop
      vertex 14.2387 43.8223 99.1756
      vertex -37.2775 27.0837 99.1756
      vertex -1.24406e-007 3.34536e-007 39.9293
    endloop
  endfacet
  facet normal -0.711501 -0.680263 0.176091
    outer loop
      vertex -28.0973 -9.12937 8.2961
      vertex -39.7129 25.4033 94.7671
      vertex -39.9063 25.7459 95.3091
    endloop
  endfacet
  facet normal -0.7115 -0.680264 0.176092
    outer loop
      vertex -39.7129 25.4033 94.7671
      vertex -28.0973 -9.12937 8.2961
      vertex -24.7731 -12.6062 8.2961
    endloop
  endfacet
  facet normal 0.0665962 -0.739945 -0.669362
    outer loop
      vertex -19.9822 -12.175 3.7039
      vertex -24.7731 -12.6062 3.7039
      vertex -23.6321 -9.5661 0.456722
    endloop
  endfacet
  facet normal -0.97411 0.131952 -0.183572
    outer loop
      vertex -28.0973 -9.12937 3.7039
      vertex -40.8279 28.0742 98
      vertex -27.4516 -4.36263 3.7039
    endloop
  endfacet
  facet normal 0.186946 0.19553 -0.962714
    outer loop
      vertex -4.45197 1.37761 5.16613
      vertex -21.1657 -5.82966 0.456722
      vertex -4.79988 1.55957 5.13553
    endloop
  endfacet
  facet normal 0.186946 0.19553 -0.962714
    outer loop
      vertex -21.1657 -5.82966 0.456722
      vertex -4.45197 1.37761 5.16613
      vertex -0.447527 0.226103 5.70986
    endloop
  endfacet
  facet normal -0.761289 0.570056 -0.308991
    outer loop
      vertex -27.4516 -4.36263 3.7039
      vertex -40.4509 29.3893 98
      vertex -40.1418 29.1647 96.8244
    endloop
  endfacet
  facet normal -0.293961 0.904718 0.308337
    outer loop
      vertex 14.0836 47.5051 98
      vertex -39.3167 30.1543 98
      vertex 14.2267 47.1509 99.1756
    endloop
  endfacet
  facet normal -0.736212 0.099727 -0.669362
    outer loop
      vertex -25.0091 -8.12594 0.456722
      vertex -28.0973 -9.12937 3.7039
      vertex -24.7416 -6.15149 0.456722
    endloop
  endfacet
  facet normal 0.0665964 -0.739945 -0.669362
    outer loop
      vertex -19.9822 -12.175 3.7039
      vertex -23.6321 -9.5661 0.456722
      vertex -21.6477 -9.38749 0.456722
    endloop
  endfacet
  facet normal 0.340077 -0.515193 -0.786717
    outer loop
      vertex -3.31197 -4.45157 5.15042
      vertex -21.6477 -9.38749 0.456722
      vertex -3.12157 -4.29647 5.13115
    endloop
  endfacet
  facet normal 0.340078 -0.515196 -0.786715
    outer loop
      vertex -21.6477 -9.38749 0.456722
      vertex -3.31197 -4.45157 5.15042
      vertex -3.96685 -5.54635 5.58427
    endloop
  endfacet
  facet normal -0.52364 0.776331 -0.350873
    outer loop
      vertex -27.4516 -4.36263 3.7039
      vertex -40.1418 29.1647 96.8244
      vertex -39.2243 29.7837 96.8244
    endloop
  endfacet
  facet normal -0.479509 0.802563 -0.354913
    outer loop
      vertex -27.4516 -4.36263 3.7039
      vertex -39.2243 29.7837 96.8244
      vertex -23.3223 -1.89545 3.7039
    endloop
  endfacet
  facet normal 0.0893793 -0.993087 -0.0760951
    outer loop
      vertex -19.9822 -12.175 3.7039
      vertex -8.57723 -11.6071 9.6885
      vertex -24.7731 -12.6062 3.7039
    endloop
  endfacet
  facet normal 0.089379 -0.993087 -0.0760945
    outer loop
      vertex -8.57723 -11.6071 9.6885
      vertex -19.9822 -12.175 3.7039
      vertex -8.39359 -11.5528 9.19496
    endloop
  endfacet
  facet normal 0.0893804 -0.993086 -0.0760974
    outer loop
      vertex -8.39359 -11.5528 9.19496
      vertex -19.9822 -12.175 3.7039
      vertex -8.22588 -11.5241 9.01737
    endloop
  endfacet
  facet normal 0.0615706 -0.998103 4.24884e-008
    outer loop
      vertex -24.7731 -12.6062 8.2961
      vertex -8.57723 -11.6071 9.6885
      vertex -10.9099 -11.751 15.8429
    endloop
  endfacet
  facet normal 0.0615706 -0.998103 0
    outer loop
      vertex -8.57723 -11.6071 9.6885
      vertex -24.7731 -12.6062 8.2961
      vertex -24.7731 -12.6062 3.7039
    endloop
  endfacet
  facet normal -0.919362 0.263623 0.29202
    outer loop
      vertex -40.1418 29.1647 99.1756
      vertex -40.4509 29.3893 98
      vertex -40.4469 28.1008 99.1756
    endloop
  endfacet
  facet normal -0.181926 0.559911 0.808333
    outer loop
      vertex 14.2267 47.1509 99.1756
      vertex -38.9823 28.8134 99.9021
      vertex 14.6013 46.2237 99.9021
    endloop
  endfacet
  facet normal -0.912849 -0.406429 0.0390112
    outer loop
      vertex -40.4469 27.1055 96.8244
      vertex -28.0973 -9.12937 8.2961
      vertex -39.9063 25.7459 95.3091
    endloop
  endfacet
  facet normal -0.912851 -0.406425 0.0390095
    outer loop
      vertex -28.0973 -9.12937 8.2961
      vertex -40.4469 27.1055 96.8244
      vertex -40.8279 28.0742 98
    endloop
  endfacet
  facet normal -0.381052 0.637773 -0.669362
    outer loop
      vertex -23.0312 -5.12955 0.456722
      vertex -24.7416 -6.15149 0.456722
      vertex -23.3223 -1.89545 3.7039
    endloop
  endfacet
  facet normal 0.225047 0.073015 -0.971608
    outer loop
      vertex -0.00208649 -0.00287139 5.79578
      vertex -0.00337612 0.00109714 5.79578
      vertex -1.45086e-007 2.16533e-007 5.79648
    endloop
  endfacet
  facet normal 0.224927 0.0729762 -0.971639
    outer loop
      vertex -0.00208649 -0.00287139 5.79578
      vertex -0.447527 0.226103 5.70986
      vertex -0.00337612 0.00109714 5.79578
    endloop
  endfacet
  facet normal 0.224988 0.0731022 -0.971615
    outer loop
      vertex -20.55 -7.72462 0.456722
      vertex -0.447527 0.226103 5.70986
      vertex -0.00208649 -0.00287139 5.79578
    endloop
  endfacet
  facet normal 0.224987 0.0731026 -0.971615
    outer loop
      vertex -0.447527 0.226103 5.70986
      vertex -20.55 -7.72462 0.456722
      vertex -21.1657 -5.82966 0.456722
    endloop
  endfacet
  facet normal 0.259631 -0.023366 -0.965425
    outer loop
      vertex -0.35333 -0.355754 5.70986
      vertex -20.55 -7.72462 0.456722
      vertex -0.00208649 -0.00287139 5.79578
    endloop
  endfacet
  facet normal 0.259631 -0.0233672 -0.965425
    outer loop
      vertex -20.55 -7.72462 0.456722
      vertex -0.35333 -0.355754 5.70986
      vertex -2.68592 -3.80837 5.16613
    endloop
  endfacet
  facet normal -0.53699 -0.513416 -0.669362
    outer loop
      vertex -24.7731 -12.6062 3.7039
      vertex -28.0973 -9.12937 3.7039
      vertex -23.6321 -9.5661 0.456722
    endloop
  endfacet
  facet normal -0.536991 -0.513415 -0.669362
    outer loop
      vertex -23.6321 -9.5661 0.456722
      vertex -28.0973 -9.12937 3.7039
      vertex -25.0091 -8.12594 0.456722
    endloop
  endfacet
  facet normal 0.339776 -0.620407 -0.706858
    outer loop
      vertex -21.6477 -9.38749 0.456722
      vertex -4.63667 -6.49502 6.09494
      vertex -19.9822 -12.175 3.7039
    endloop
  endfacet
  facet normal 0.339776 -0.620407 -0.706858
    outer loop
      vertex -4.63667 -6.49502 6.09494
      vertex -21.6477 -9.38749 0.456722
      vertex -4.29157 -5.99073 5.81822
    endloop
  endfacet
  facet normal 0.339776 -0.620407 -0.706858
    outer loop
      vertex -4.29157 -5.99073 5.81822
      vertex -21.6477 -9.38749 0.456722
      vertex -3.96685 -5.54635 5.58427
    endloop
  endfacet
  facet normal 0.344627 -0.643262 -0.6837
    outer loop
      vertex -6.98476 -9.78422 8.00601
      vertex -19.9822 -12.175 3.7039
      vertex -4.63667 -6.49502 6.09494
    endloop
  endfacet
  facet normal 0.344627 -0.643262 -0.683701
    outer loop
      vertex -19.9822 -12.175 3.7039
      vertex -6.98476 -9.78422 8.00601
      vertex -8.22588 -11.5241 9.01737
    endloop
  endfacet
  facet normal 0.186328 -0.573458 0.797764
    outer loop
      vertex 14.6059 44.9523 99.9021
      vertex -38.2342 27.7787 99.8987
      vertex 14.2432 43.836 99.1844
    endloop
  endfacet
  facet normal 0.186452 -0.573841 0.79746
    outer loop
      vertex -38.2342 27.7787 99.8987
      vertex 14.6059 44.9523 99.9021
      vertex -38.2387 27.7821 99.9021
    endloop
  endfacet
  facet normal -0.181926 0.559912 0.808332
    outer loop
      vertex 14.2267 47.1509 99.1756
      vertex -39.2243 29.7837 99.1756
      vertex -38.9823 28.8134 99.9021
    endloop
  endfacet
  facet normal -0.342041 0.507098 0.791113
    outer loop
      vertex -39.2243 29.7837 99.1756
      vertex -40.1418 29.1647 99.1756
      vertex -38.9823 28.8134 99.9021
    endloop
  endfacet
  facet normal -0.534818 0.792903 -0.292018
    outer loop
      vertex -39.2243 29.7837 96.8244
      vertex -40.1418 29.1647 96.8244
      vertex -39.3167 30.1543 98
    endloop
  endfacet
  facet normal -0.736212 0.099727 -0.669362
    outer loop
      vertex -24.7416 -6.15149 0.456722
      vertex -28.0973 -9.12937 3.7039
      vertex -27.4516 -4.36263 3.7039
    endloop
  endfacet
  facet normal -0.381051 0.637773 -0.669362
    outer loop
      vertex -24.7416 -6.15149 0.456722
      vertex -27.4516 -4.36263 3.7039
      vertex -23.3223 -1.89545 3.7039
    endloop
  endfacet
  facet normal -0.293961 0.904718 0.308337
    outer loop
      vertex 14.2267 47.1509 99.1756
      vertex -39.3167 30.1543 98
      vertex -39.2243 29.7837 99.1756
    endloop
  endfacet
  facet normal -0.936562 0.268552 -0.225234
    outer loop
      vertex -27.4516 -4.36263 3.7039
      vertex -40.8279 28.0742 98
      vertex -40.4509 29.3893 98
    endloop
  endfacet
  facet normal -0.534818 0.792903 0.292018
    outer loop
      vertex -39.3167 30.1543 98
      vertex -40.1418 29.1647 99.1756
      vertex -39.2243 29.7837 99.1756
    endloop
  endfacet
  facet normal -0.919364 0.263621 0.292017
    outer loop
      vertex -40.4509 29.3893 98
      vertex -40.8279 28.0742 98
      vertex -40.4469 28.1008 99.1756
    endloop
  endfacet
  facet normal -0.587976 0.168599 0.791112
    outer loop
      vertex -39.3328 28.577 99.9021
      vertex -40.1418 29.1647 99.1756
      vertex -39.4493 28.1706 99.9021
    endloop
  endfacet
  facet normal -0.587975 0.168599 0.791113
    outer loop
      vertex -40.1418 29.1647 99.1756
      vertex -40.4469 28.1008 99.1756
      vertex -39.4493 28.1706 99.9021
    endloop
  endfacet
  facet normal -0.444893 -0.845655 0.294854
    outer loop
      vertex -38.8558 24.1147 92.3645
      vertex -39.7129 25.4033 94.7671
      vertex -24.7731 -12.6062 8.2961
    endloop
  endfacet
  facet normal -0.417618 -0.856242 0.304047
    outer loop
      vertex -37.2159 21.6826 87.7678
      vertex -38.8558 24.1147 92.3645
      vertex -24.7731 -12.6062 8.2961
    endloop
  endfacet
  facet normal -0.534818 0.792903 0.292019
    outer loop
      vertex -39.3167 30.1543 98
      vertex -40.4509 29.3893 98
      vertex -40.1418 29.1647 99.1756
    endloop
  endfacet
  facet normal -0.534818 0.792903 -0.292019
    outer loop
      vertex -40.1418 29.1647 96.8244
      vertex -40.4509 29.3893 98
      vertex -39.3167 30.1543 98
    endloop
  endfacet
  facet normal -0.342041 0.507097 0.791113
    outer loop
      vertex -38.9823 28.8134 99.9021
      vertex -40.1418 29.1647 99.1756
      vertex -39.3328 28.577 99.9021
    endloop
  endfacet
  facet normal -0.731243 0.132702 -0.669084
    outer loop
      vertex -8.22588 -11.5241 9.01737
      vertex -5.40429 -22.7665 3.7039
      vertex -8.39359 -11.5528 9.19496
    endloop
  endfacet
  facet normal -0.731244 0.132701 -0.669083
    outer loop
      vertex -5.40429 -22.7665 3.7039
      vertex -8.22588 -11.5241 9.01737
      vertex -6.98476 -9.78422 8.00601
    endloop
  endfacet
  facet normal -0.931899 -0.0746057 -0.354961
    outer loop
      vertex -8.57723 -11.6071 9.6885
      vertex -5.40429 -22.7665 3.7039
      vertex -10.9099 -11.751 15.8429
    endloop
  endfacet
  facet normal -0.9319 -0.0746058 -0.354961
    outer loop
      vertex -5.40429 -22.7665 3.7039
      vertex -8.57723 -11.6071 9.6885
      vertex -8.39359 -11.5528 9.19496
    endloop
  endfacet
  facet normal -0.931899 -0.0746058 -0.354961
    outer loop
      vertex -5.40429 -22.7665 3.7039
      vertex -15.2704 -6.82301 26.2548
      vertex -10.9099 -11.751 15.8429
    endloop
  endfacet
  facet normal -0.931899 -0.0746057 -0.354961
    outer loop
      vertex -15.2704 -6.82301 26.2548
      vertex -5.40429 -22.7665 3.7039
      vertex -40.4469 -28.1008 96.8244
    endloop
  endfacet
  facet normal 0.826386 -0.422287 0.372505
    outer loop
      vertex 4.33391 -27.4562 8.2961
      vertex -1.5201 -17.8025 32.2268
      vertex -32.1217 -28.6941 87.7678
    endloop
  endfacet
  facet normal 0.826386 -0.422287 0.372505
    outer loop
      vertex 1.77027 -16.6314 26.2548
      vertex 4.33391 -27.4562 8.2961
      vertex 7.80454 -14.0072 15.8429
    endloop
  endfacet
  facet normal 0.826386 -0.422287 0.372505
    outer loop
      vertex 4.33391 -27.4562 8.2961
      vertex 1.77027 -16.6314 26.2548
      vertex -1.5201 -17.8025 32.2268
    endloop
  endfacet
  facet normal -0.941856 0 -0.336018
    outer loop
      vertex -39.9063 25.7459 95.3091
      vertex -40.4469 -28.1008 96.8244
      vertex -40.4469 27.1055 96.8244
    endloop
  endfacet
  facet normal -0.941856 3.97331e-008 -0.336016
    outer loop
      vertex -39.7129 25.4033 94.7671
      vertex -40.4469 -28.1008 96.8244
      vertex -39.9063 25.7459 95.3091
    endloop
  endfacet
  facet normal -0.941856 -1.6398e-008 -0.336018
    outer loop
      vertex -38.8558 24.1147 92.3645
      vertex -40.4469 -28.1008 96.8244
      vertex -39.7129 25.4033 94.7671
    endloop
  endfacet
  facet normal -0.941855 -8.04321e-008 -0.336018
    outer loop
      vertex -37.2159 21.6826 87.7678
      vertex -40.4469 -28.1008 96.8244
      vertex -38.8558 24.1147 92.3645
    endloop
  endfacet
  facet normal -0.941855 -5.27888e-008 -0.336018
    outer loop
      vertex -40.4469 -28.1008 96.8244
      vertex -37.2159 21.6826 87.7678
      vertex -15.2704 -6.82301 26.2548
    endloop
  endfacet
  facet normal -0.694258 0.135146 -0.706924
    outer loop
      vertex -2.23853 -23.4891 0.456722
      vertex -3.96685 -5.54635 5.58427
      vertex -3.31197 -4.45157 5.15042
    endloop
  endfacet
  facet normal -0.694258 0.135146 -0.706924
    outer loop
      vertex -2.23853 -23.4891 0.456722
      vertex -4.29157 -5.99073 5.81822
      vertex -3.96685 -5.54635 5.58427
    endloop
  endfacet
  facet normal -0.694258 0.135146 -0.706924
    outer loop
      vertex -4.29157 -5.99073 5.81822
      vertex -2.23853 -23.4891 0.456722
      vertex -5.40429 -22.7665 3.7039
    endloop
  endfacet
  facet normal -0.588727 0 0.808332
    outer loop
      vertex -40.4469 28.1008 99.1756
      vertex -39.4493 -28.1706 99.9021
      vertex -39.4493 28.1706 99.9021
    endloop
  endfacet
  facet normal -0.588727 0 0.808332
    outer loop
      vertex -39.4493 -28.1706 99.9021
      vertex -40.4469 28.1008 99.1756
      vertex -40.4469 -28.1008 99.1756
    endloop
  endfacet
  facet normal -0.951277 0 0.308336
    outer loop
      vertex -40.8279 -28.0742 98
      vertex -40.4469 28.1008 99.1756
      vertex -40.8279 28.0742 98
    endloop
  endfacet
  facet normal -0.951277 0 0.308336
    outer loop
      vertex -40.4469 28.1008 99.1756
      vertex -40.8279 -28.0742 98
      vertex -40.4469 -28.1008 99.1756
    endloop
  endfacet
  facet normal 0.433884 -0.900969 0
    outer loop
      vertex 0 -29.5433 3.7039
      vertex 4.33391 -27.4562 8.2961
      vertex 0 -29.5433 8.2961
    endloop
  endfacet
  facet normal 0.433884 -0.900969 0
    outer loop
      vertex 4.33391 -27.4562 8.2961
      vertex 0 -29.5433 3.7039
      vertex 4.33391 -27.4562 3.7039
    endloop
  endfacet
  facet normal -0.270865 0.216008 -0.938068
    outer loop
      vertex -3.31197 -4.45157 5.15042
      vertex -0.996241 -21.9313 0.456722
      vertex -2.23853 -23.4891 0.456722
    endloop
  endfacet
  facet normal -0.270866 0.216008 -0.938068
    outer loop
      vertex -0.996241 -21.9313 0.456722
      vertex -3.12157 -4.29647 5.13115
      vertex -2.96649 -4.08302 5.13553
    endloop
  endfacet
  facet normal -0.270864 0.216008 -0.938069
    outer loop
      vertex -0.996241 -21.9313 0.456722
      vertex -3.31197 -4.45157 5.15042
      vertex -3.12157 -4.29647 5.13115
    endloop
  endfacet
  facet normal 0.270865 0.216008 -0.938068
    outer loop
      vertex 0.996241 -21.9313 0.456722
      vertex 3.12157 -4.29647 5.13115
      vertex 2.23853 -23.4891 0.456722
    endloop
  endfacet
  facet normal 0.270866 0.216008 -0.938068
    outer loop
      vertex 3.12157 -4.29647 5.13115
      vertex 0.996241 -21.9313 0.456722
      vertex 2.96649 -4.08302 5.13553
    endloop
  endfacet
  facet normal 0.270866 0.216008 -0.938068
    outer loop
      vertex 2.96649 -4.08302 5.13553
      vertex 0.996241 -21.9313 0.456722
      vertex 2.79198 -3.73131 5.16613
    endloop
  endfacet
  facet normal -0.730917 0.13285 -0.669411
    outer loop
      vertex -4.63667 -6.49502 6.09494
      vertex -5.40429 -22.7665 3.7039
      vertex -6.98476 -9.78422 8.00601
    endloop
  endfacet
  facet normal -0.730917 0.13285 -0.669411
    outer loop
      vertex -5.40429 -22.7665 3.7039
      vertex -4.63667 -6.49502 6.09494
      vertex -4.29157 -5.99073 5.81822
    endloop
  endfacet
  facet normal -0.534818 -0.792903 0.292018
    outer loop
      vertex -39.2243 -29.7837 99.1756
      vertex -40.1418 -29.1647 99.1756
      vertex -39.3167 -30.1543 98
    endloop
  endfacet
  facet normal -0.951277 0 -0.308336
    outer loop
      vertex -40.4469 27.1055 96.8244
      vertex -40.8279 -28.0742 98
      vertex -40.8279 28.0742 98
    endloop
  endfacet
  facet normal -0.951277 0 -0.308336
    outer loop
      vertex -40.8279 -28.0742 98
      vertex -40.4469 27.1055 96.8244
      vertex -40.4469 -28.1008 96.8244
    endloop
  endfacet
  facet normal 0.864964 0.281044 0.415755
    outer loop
      vertex -37.2775 27.0837 99.1756
      vertex -3.55384e-008 6.10307e-008 39.9293
      vertex -1.24406e-007 3.34536e-007 39.9293
    endloop
  endfacet
  facet normal 0.846399 0 0.53255
    outer loop
      vertex -3.55384e-008 6.10307e-008 39.9293
      vertex -37.2775 27.0837 99.1756
      vertex -37.2775 -27.0837 99.1756
    endloop
  endfacet
  facet normal 0.427107 -0.886888 0.176093
    outer loop
      vertex 0 -29.5433 8.2961
      vertex -36.432 -29.9192 94.7671
      vertex -36.8175 -29.9972 95.3091
    endloop
  endfacet
  facet normal 0.427104 -0.88689 0.176092
    outer loop
      vertex -36.432 -29.9192 94.7671
      vertex 0 -29.5433 8.2961
      vertex 4.33391 -27.4562 8.2961
    endloop
  endfacet
  facet normal -0.544823 -0.807736 -0.225235
    outer loop
      vertex -39.3167 -30.1543 98
      vertex -40.4509 -29.3893 98
      vertex -4.33391 -27.4562 3.7039
    endloop
  endfacet
  facet normal 0.724309 -0.165319 -0.669362
    outer loop
      vertex 4.33391 -27.4562 3.7039
      vertex 1.79516 -25.4316 0.456722
      vertex 2.23853 -23.4891 0.456722
    endloop
  endfacet
  facet normal -0.777407 -0.547871 -0.308991
    outer loop
      vertex -4.33391 -27.4562 3.7039
      vertex -40.4509 -29.3893 98
      vertex -40.1418 -29.1647 96.8244
    endloop
  endfacet
  facet normal -0.587976 -0.168599 0.791112
    outer loop
      vertex -39.4493 -28.1706 99.9021
      vertex -40.1418 -29.1647 99.1756
      vertex -39.3328 -28.577 99.9021
    endloop
  endfacet
  facet normal -0.128191 0.238218 -0.962714
    outer loop
      vertex -0.996241 -21.9313 0.456722
      vertex -2.68592 -3.80837 5.16613
      vertex -0.35333 -0.355754 5.70986
    endloop
  endfacet
  facet normal -0.128192 0.238218 -0.962714
    outer loop
      vertex -2.68592 -3.80837 5.16613
      vertex -0.996241 -21.9313 0.456722
      vertex -2.96649 -4.08302 5.13553
    endloop
  endfacet
  facet normal -0.919362 -0.263623 -0.29202
    outer loop
      vertex -40.1418 -29.1647 96.8244
      vertex -40.4509 -29.3893 98
      vertex -40.4469 -28.1008 96.8244
    endloop
  endfacet
  facet normal 0.602969 0 0.797764
    outer loop
      vertex -38.2342 27.7787 99.8987
      vertex -37.2775 -27.0837 99.1756
      vertex -37.2775 27.0837 99.1756
    endloop
  endfacet
  facet normal 0.602969 0 0.797764
    outer loop
      vertex -38.2342 27.7787 99.8987
      vertex -38.2342 -27.7787 99.8987
      vertex -37.2775 -27.0837 99.1756
    endloop
  endfacet
  facet normal 0.603305 0 0.797511
    outer loop
      vertex -38.2387 27.7821 99.9021
      vertex -38.2342 -27.7787 99.8987
      vertex -38.2342 27.7787 99.8987
    endloop
  endfacet
  facet normal 0.603305 0 0.797511
    outer loop
      vertex -38.2342 -27.7787 99.8987
      vertex -38.2387 27.7821 99.9021
      vertex -38.2387 -27.7821 99.9021
    endloop
  endfacet
  facet normal -0.919362 -0.263623 0.29202
    outer loop
      vertex -40.4469 -28.1008 99.1756
      vertex -40.4509 -29.3893 98
      vertex -40.1418 -29.1647 99.1756
    endloop
  endfacet
  facet normal -0.322348 -0.669362 -0.669362
    outer loop
      vertex 0 -29.5433 3.7039
      vertex -4.33391 -27.4562 3.7039
      vertex -1.79516 -25.4316 0.456722
    endloop
  endfacet
  facet normal 0.724309 -0.165319 -0.669362
    outer loop
      vertex 4.33391 -27.4562 3.7039
      vertex 2.23853 -23.4891 0.456722
      vertex 5.40429 -22.7665 3.7039
    endloop
  endfacet
  facet normal 0.595068 0.164229 -0.786716
    outer loop
      vertex 3.21024 -4.52548 5.15042
      vertex 2.23853 -23.4891 0.456722
      vertex 3.12157 -4.29647 5.13115
    endloop
  endfacet
  facet normal 0.59507 0.164229 -0.786715
    outer loop
      vertex 2.23853 -23.4891 0.456722
      vertex 3.21024 -4.52548 5.15042
      vertex 4.04907 -5.48661 5.58427
    endloop
  endfacet
  facet normal -0.900148 -0.258114 -0.350872
    outer loop
      vertex -40.1418 -29.1647 96.8244
      vertex -40.4469 -28.1008 96.8244
      vertex -4.33391 -27.4562 3.7039
    endloop
  endfacet
  facet normal -0.91146 -0.208035 -0.354913
    outer loop
      vertex -4.33391 -27.4562 3.7039
      vertex -40.4469 -28.1008 96.8244
      vertex -5.40429 -22.7665 3.7039
    endloop
  endfacet
  facet normal 0.972101 -0.221877 -0.0760934
    outer loop
      vertex 8.39359 -11.5528 9.19496
      vertex 5.40429 -22.7665 3.7039
      vertex 8.41812 -11.3844 9.01737
    endloop
  endfacet
  facet normal 0.972101 -0.221876 -0.0760953
    outer loop
      vertex 8.38853 -11.7442 9.6885
      vertex 5.40429 -22.7665 3.7039
      vertex 8.39359 -11.5528 9.19496
    endloop
  endfacet
  facet normal 0.972101 -0.221876 -0.0760953
    outer loop
      vertex 5.40429 -22.7665 3.7039
      vertex 8.38853 -11.7442 9.6885
      vertex 4.33391 -27.4562 3.7039
    endloop
  endfacet
  facet normal 0.968278 -0.249874 -4.16726e-008
    outer loop
      vertex 4.33391 -27.4562 8.2961
      vertex 8.38853 -11.7442 9.6885
      vertex 7.80454 -14.0072 15.8429
    endloop
  endfacet
  facet normal 0.968278 -0.249874 0
    outer loop
      vertex 8.38853 -11.7442 9.6885
      vertex 4.33391 -27.4562 8.2961
      vertex 4.33391 -27.4562 3.7039
    endloop
  endfacet
  facet normal -0.534818 -0.792903 0.292019
    outer loop
      vertex -40.1418 -29.1647 99.1756
      vertex -40.4509 -29.3893 98
      vertex -39.3167 -30.1543 98
    endloop
  endfacet
  facet normal -0.322348 -0.669362 -0.669362
    outer loop
      vertex 0 -29.5433 3.7039
      vertex -1.79516 -25.4316 0.456722
      vertex 0 -26.2961 0.456722
    endloop
  endfacet
  facet normal -0.724309 -0.165319 -0.669362
    outer loop
      vertex -4.33391 -27.4562 3.7039
      vertex -5.40429 -22.7665 3.7039
      vertex -2.23853 -23.4891 0.456722
    endloop
  endfacet
  facet normal 6.06679e-007 0.236566 -0.971615
    outer loop
      vertex -0.35333 -0.355754 5.70986
      vertex 0.00208622 -0.00287122 5.79578
      vertex 0.996241 -21.9313 0.456722
    endloop
  endfacet
  facet normal -9.96473e-006 0.236536 -0.971623
    outer loop
      vertex 0.00208622 -0.00287122 5.79578
      vertex -0.00208649 -0.00287139 5.79578
      vertex 3.37084e-008 1.6849e-007 5.79648
    endloop
  endfacet
  facet normal 0.0535499 0.199287 -0.978477
    outer loop
      vertex -1.45086e-007 2.16533e-007 5.79648
      vertex 3.37084e-008 1.6849e-007 5.79648
      vertex -0.00208649 -0.00287139 5.79578
    endloop
  endfacet
  facet normal 0 0 -1
    outer loop
      vertex 3.37084e-008 1.6849e-007 5.79648
      vertex -1.45086e-007 2.16533e-007 5.79648
      vertex -1.2962e-007 2.21559e-007 5.79648
    endloop
  endfacet
  facet normal -9.96642e-006 0.236576 -0.971613
    outer loop
      vertex 0.00208622 -0.00287122 5.79578
      vertex -0.35333 -0.355754 5.70986
      vertex -0.00208649 -0.00287139 5.79578
    endloop
  endfacet
  facet normal 0 0.236566 -0.971616
    outer loop
      vertex -0.35333 -0.355754 5.70986
      vertex 0.996241 -21.9313 0.456722
      vertex -0.996241 -21.9313 0.456722
    endloop
  endfacet
  facet normal 0.102454 0.239703 -0.965425
    outer loop
      vertex 0.996241 -21.9313 0.456722
      vertex 0.229158 -0.445972 5.70986
      vertex 2.79198 -3.73131 5.16613
    endloop
  endfacet
  facet normal 0.102454 0.239703 -0.965425
    outer loop
      vertex 0.229158 -0.445972 5.70986
      vertex 0.996241 -21.9313 0.456722
      vertex 0.00208622 -0.00287122 5.79578
    endloop
  endfacet
  facet normal 0.322348 -0.669362 -0.669362
    outer loop
      vertex 4.33391 -27.4562 3.7039
      vertex 0 -29.5433 3.7039
      vertex 1.79516 -25.4316 0.456722
    endloop
  endfacet
  facet normal 0.322348 -0.669362 -0.669362
    outer loop
      vertex 1.79516 -25.4316 0.456722
      vertex 0 -29.5433 3.7039
      vertex 0 -26.2961 0.456722
    endloop
  endfacet
  facet normal 0.695038 0.13143 -0.706858
    outer loop
      vertex 2.23853 -23.4891 0.456722
      vertex 4.74432 -6.4168 6.09494
      vertex 5.40429 -22.7665 3.7039
    endloop
  endfacet
  facet normal 0.695038 0.131429 -0.706858
    outer loop
      vertex 4.74432 -6.4168 6.09494
      vertex 2.23853 -23.4891 0.456722
      vertex 4.37136 -5.93276 5.81822
    endloop
  endfacet
  facet normal 0.695038 0.131429 -0.706858
    outer loop
      vertex 4.37136 -5.93276 5.81822
      vertex 2.23853 -23.4891 0.456722
      vertex 4.04907 -5.48661 5.58427
    endloop
  endfacet
  facet normal 0.718274 0.128981 -0.683701
    outer loop
      vertex 7.14693 -9.66639 8.00601
      vertex 5.40429 -22.7665 3.7039
      vertex 4.74432 -6.4168 6.09494
    endloop
  endfacet
  facet normal 0.718274 0.128981 -0.683701
    outer loop
      vertex 5.40429 -22.7665 3.7039
      vertex 7.14693 -9.66639 8.00601
      vertex 8.41812 -11.3844 9.01737
    endloop
  endfacet
  facet normal 0.104449 -0.993765 0.0390103
    outer loop
      vertex -38.2777 -30.0912 96.8244
      vertex 0 -29.5433 8.2961
      vertex -36.8175 -29.9972 95.3091
    endloop
  endfacet
  facet normal 0.104448 -0.993765 0.03901
    outer loop
      vertex 0 -29.5433 8.2961
      vertex -38.2777 -30.0912 96.8244
      vertex -39.3167 -30.1543 98
    endloop
  endfacet
  facet normal -0.342041 -0.507098 0.791113
    outer loop
      vertex -38.9823 -28.8134 99.9021
      vertex -40.1418 -29.1647 99.1756
      vertex -39.2243 -29.7837 99.1756
    endloop
  endfacet
  facet normal -0.587975 -0.168599 0.791113
    outer loop
      vertex -39.4493 -28.1706 99.9021
      vertex -40.4469 -28.1008 99.1756
      vertex -40.1418 -29.1647 99.1756
    endloop
  endfacet
  facet normal -0.724309 -0.165319 -0.669362
    outer loop
      vertex -1.79516 -25.4316 0.456722
      vertex -4.33391 -27.4562 3.7039
      vertex -2.23853 -23.4891 0.456722
    endloop
  endfacet
  facet normal 0 0 -1
    outer loop
      vertex 1.79516 -25.4316 0.456722
      vertex 0.996241 -21.9313 0.456722
      vertex 2.23853 -23.4891 0.456722
    endloop
  endfacet
  facet normal 0 0 -1
    outer loop
      vertex 0 -26.2961 0.456722
      vertex 0.996241 -21.9313 0.456722
      vertex 1.79516 -25.4316 0.456722
    endloop
  endfacet
  facet normal 0 0 -1
    outer loop
      vertex 0 -26.2961 0.456722
      vertex -0.996241 -21.9313 0.456722
      vertex 0.996241 -21.9313 0.456722
    endloop
  endfacet
  facet normal 0 0 -1
    outer loop
      vertex -1.79516 -25.4316 0.456722
      vertex -0.996241 -21.9313 0.456722
      vertex 0 -26.2961 0.456722
    endloop
  endfacet
  facet normal 0 0 -1
    outer loop
      vertex -0.996241 -21.9313 0.456722
      vertex -1.79516 -25.4316 0.456722
      vertex -2.23853 -23.4891 0.456722
    endloop
  endfacet
  facet normal 0.666789 -0.684436 0.294856
    outer loop
      vertex -34.9415 -29.5022 92.3645
      vertex -36.432 -29.9192 94.7671
      vertex 4.33391 -27.4562 8.2961
    endloop
  endfacet
  facet normal 0.685284 -0.661772 0.304047
    outer loop
      vertex -32.1217 -28.6941 87.7678
      vertex -34.9415 -29.5022 92.3645
      vertex 4.33391 -27.4562 8.2961
    endloop
  endfacet
  facet normal -0.919364 -0.263621 0.292017
    outer loop
      vertex -40.4469 -28.1008 99.1756
      vertex -40.8279 -28.0742 98
      vertex -40.4509 -29.3893 98
    endloop
  endfacet
  facet normal -0.919364 -0.263621 -0.292017
    outer loop
      vertex -40.4509 -29.3893 98
      vertex -40.8279 -28.0742 98
      vertex -40.4469 -28.1008 96.8244
    endloop
  endfacet
  facet normal -0.426511 -0.885658 -0.183572
    outer loop
      vertex 0 -29.5433 3.7039
      vertex -39.3167 -30.1543 98
      vertex -4.33391 -27.4562 3.7039
    endloop
  endfacet
  facet normal 0.0155388 -0.999879 0
    outer loop
      vertex 0 -29.5433 8.2961
      vertex -39.3167 -30.1543 98
      vertex 0 -29.5433 3.7039
    endloop
  endfacet
  facet normal -0.342041 -0.507097 0.791113
    outer loop
      vertex -39.3328 -28.577 99.9021
      vertex -40.1418 -29.1647 99.1756
      vertex -38.9823 -28.8134 99.9021
    endloop
  endfacet
  facet normal -0.352173 -0.654449 -0.669082
    outer loop
      vertex 19.9822 -12.175 3.7039
      vertex 8.39359 -11.5528 9.19496
      vertex 8.41812 -11.3844 9.01737
    endloop
  endfacet
  facet normal -0.352173 -0.654448 -0.669083
    outer loop
      vertex 19.9822 -12.175 3.7039
      vertex 8.41812 -11.3844 9.01737
      vertex 7.14693 -9.66639 8.00601
    endloop
  endfacet
  facet normal -0.217019 -0.909343 -0.354961
    outer loop
      vertex 19.9822 -12.175 3.7039
      vertex 1.77027 -16.6314 26.2548
      vertex 7.80454 -14.0072 15.8429
    endloop
  endfacet
  facet normal -0.217018 -0.909344 -0.354961
    outer loop
      vertex 19.9822 -12.175 3.7039
      vertex 7.80454 -14.0072 15.8429
      vertex 8.38853 -11.7442 9.6885
    endloop
  endfacet
  facet normal -0.217019 -0.909343 -0.354962
    outer loop
      vertex 19.9822 -12.175 3.7039
      vertex 8.38853 -11.7442 9.6885
      vertex 8.39359 -11.5528 9.19496
    endloop
  endfacet
  facet normal -0.217019 -0.909344 -0.354961
    outer loop
      vertex 1.77027 -16.6314 26.2548
      vertex 19.9822 -12.175 3.7039
      vertex 14.2267 -47.1509 96.8244
    endloop
  endfacet
  facet normal 0.656986 0.655446 0.372505
    outer loop
      vertex 16.3644 -3.45576 26.2548
      vertex 27.4516 -4.36263 8.2961
      vertex 15.7334 3.09408 15.8429
    endloop
  endfacet
  facet normal 0.656986 0.655446 0.372505
    outer loop
      vertex 16.3644 -3.45576 26.2548
      vertex 16.4614 -6.94698 32.2268
      vertex 27.4516 -4.36263 8.2961
    endloop
  endfacet
  facet normal 0.656986 0.655446 0.372505
    outer loop
      vertex 27.4516 -4.36263 8.2961
      vertex 16.4614 -6.94698 32.2268
      vertex 17.3636 -39.4165 87.7678
    endloop
  endfacet
  facet normal -0.291049 -0.895758 -0.336018
    outer loop
      vertex 14.2267 -47.1509 96.8244
      vertex -1.5201 -17.8025 32.2268
      vertex 1.77027 -16.6314 26.2548
    endloop
  endfacet
  facet normal -0.291049 -0.895758 -0.336018
    outer loop
      vertex -36.8175 -29.9972 95.3091
      vertex 14.2267 -47.1509 96.8244
      vertex -38.2777 -30.0912 96.8244
    endloop
  endfacet
  facet normal -0.29105 -0.895759 -0.336016
    outer loop
      vertex -36.432 -29.9192 94.7671
      vertex 14.2267 -47.1509 96.8244
      vertex -36.8175 -29.9972 95.3091
    endloop
  endfacet
  facet normal -0.291049 -0.895758 -0.336019
    outer loop
      vertex -34.9415 -29.5022 92.3645
      vertex 14.2267 -47.1509 96.8244
      vertex -36.432 -29.9192 94.7671
    endloop
  endfacet
  facet normal -0.291049 -0.895758 -0.336018
    outer loop
      vertex -32.1217 -28.6941 87.7678
      vertex 14.2267 -47.1509 96.8244
      vertex -34.9415 -29.5022 92.3645
    endloop
  endfacet
  facet normal -0.291049 -0.895758 -0.336018
    outer loop
      vertex 14.2267 -47.1509 96.8244
      vertex -32.1217 -28.6941 87.7678
      vertex -1.5201 -17.8025 32.2268
    endloop
  endfacet
  facet normal -0.293961 -0.904718 -0.308337
    outer loop
      vertex 14.0836 -47.5051 98
      vertex -39.3167 -30.1543 98
      vertex 14.2267 -47.1509 96.8244
    endloop
  endfacet
  facet normal -0.343069 -0.618516 -0.706924
    outer loop
      vertex 4.37136 -5.93276 5.81822
      vertex 21.6477 -9.38749 0.456722
      vertex 19.9822 -12.175 3.7039
    endloop
  endfacet
  facet normal -0.343069 -0.618516 -0.706924
    outer loop
      vertex 4.04907 -5.48661 5.58427
      vertex 21.6477 -9.38749 0.456722
      vertex 4.37136 -5.93276 5.81822
    endloop
  endfacet
  facet normal -0.343069 -0.618516 -0.706924
    outer loop
      vertex 21.6477 -9.38749 0.456722
      vertex 4.04907 -5.48661 5.58427
      vertex 3.21024 -4.52548 5.15042
    endloop
  endfacet
  facet normal -0.181926 -0.559912 0.808332
    outer loop
      vertex -38.9823 -28.8134 99.9021
      vertex -39.2243 -29.7837 99.1756
      vertex 14.2267 -47.1509 99.1756
    endloop
  endfacet
  facet normal 0.588826 -0.753664 0.292019
    outer loop
      vertex 16.5289 -46.7106 98
      vertex 15.3328 -47.1896 99.1756
      vertex 15.4508 -47.5528 98
    endloop
  endfacet
  facet normal -0.0333758 -0.955831 0.292017
    outer loop
      vertex 14.2267 -47.1509 99.1756
      vertex 14.0836 -47.5051 98
      vertex 15.3328 -47.1896 99.1756
    endloop
  endfacet
  facet normal -0.289138 -0.190858 -0.938068
    outer loop
      vertex 3.21024 -4.52548 5.15042
      vertex 20.55 -7.72462 0.456722
      vertex 21.6477 -9.38749 0.456722
    endloop
  endfacet
  facet normal -0.289138 -0.190857 -0.938069
    outer loop
      vertex 3.12157 -4.29647 5.13115
      vertex 20.55 -7.72462 0.456722
      vertex 3.21024 -4.52548 5.15042
    endloop
  endfacet
  facet normal -0.289138 -0.190858 -0.938068
    outer loop
      vertex 20.55 -7.72462 0.456722
      vertex 3.12157 -4.29647 5.13115
      vertex 2.96649 -4.08302 5.13553
    endloop
  endfacet
  facet normal 0.99095 0.134234 0
    outer loop
      vertex 28.0973 -9.12937 8.2961
      vertex 27.4516 -4.36263 3.7039
      vertex 27.4516 -4.36263 8.2961
    endloop
  endfacet
  facet normal 0.99095 0.134234 0
    outer loop
      vertex 27.4516 -4.36263 3.7039
      vertex 28.0973 -9.12937 8.2961
      vertex 28.0973 -9.12937 3.7039
    endloop
  endfacet
  facet normal -0.121734 0.324359 -0.938068
    outer loop
      vertex 21.1657 -5.82966 0.456722
      vertex 5.0508 1.64111 5.13115
      vertex 23.0312 -5.12955 0.456722
    endloop
  endfacet
  facet normal -0.121735 0.324357 -0.938069
    outer loop
      vertex 21.1657 -5.82966 0.456722
      vertex 4.79987 1.55957 5.13553
      vertex 5.0508 1.64111 5.13115
    endloop
  endfacet
  facet normal -0.121733 0.324359 -0.938068
    outer loop
      vertex 4.79987 1.55957 5.13553
      vertex 21.1657 -5.82966 0.456722
      vertex 4.41146 1.5023 5.16613
    endloop
  endfacet
  facet normal -0.352213 -0.65409 -0.669411
    outer loop
      vertex 4.74432 -6.4168 6.09494
      vertex 19.9822 -12.175 3.7039
      vertex 7.14693 -9.66639 8.00601
    endloop
  endfacet
  facet normal -0.352213 -0.65409 -0.669411
    outer loop
      vertex 19.9822 -12.175 3.7039
      vertex 4.74432 -6.4168 6.09494
      vertex 4.37136 -5.93276 5.81822
    endloop
  endfacet
  facet normal -0.293961 -0.904718 0.308337
    outer loop
      vertex -39.2243 -29.7837 99.1756
      vertex -39.3167 -30.1543 98
      vertex 14.2267 -47.1509 99.1756
    endloop
  endfacet
  facet normal 0.955743 -0.294201 0
    outer loop
      vertex 28.0973 -9.12937 8.2961
      vertex 16.5289 -46.7106 98
      vertex 28.0973 -9.12937 3.7039
    endloop
  endfacet
  facet normal -0.0326782 -0.935853 -0.350872
    outer loop
      vertex 15.3328 -47.1896 96.8244
      vertex 14.2267 -47.1509 96.8244
      vertex 24.7731 -12.6062 3.7039
    endloop
  endfacet
  facet normal 0.534577 0.735782 0.415755
    outer loop
      vertex -3.55384e-008 6.10307e-008 39.9293
      vertex 14.2387 -43.8223 99.1756
      vertex 3.29574e-007 -2.04239e-007 39.9293
    endloop
  endfacet
  facet normal 0.261552 0.804973 0.53255
    outer loop
      vertex 14.2387 -43.8223 99.1756
      vertex -3.55384e-008 6.10307e-008 39.9293
      vertex -37.2775 -27.0837 99.1756
    endloop
  endfacet
  facet normal 0.975465 0.132136 0.176092
    outer loop
      vertex 17.1967 -43.8944 94.7671
      vertex 28.0973 -9.12937 8.2961
      vertex 27.4516 -4.36263 8.2961
    endloop
  endfacet
  facet normal 0.975466 0.132131 0.17609
    outer loop
      vertex 28.0973 -9.12937 8.2961
      vertex 17.1967 -43.8944 94.7671
      vertex 17.1518 -44.2852 95.3091
    endloop
  endfacet
  facet normal 0.0897817 0.701635 -0.706858
    outer loop
      vertex 23.0312 -5.12955 0.456722
      vertex 7.56882 2.52922 6.09494
      vertex 23.3223 -1.89545 3.7039
    endloop
  endfacet
  facet normal 0.0897816 0.701635 -0.706858
    outer loop
      vertex 23.0312 -5.12955 0.456722
      vertex 6.99322 2.32409 5.81822
      vertex 7.56882 2.52922 6.09494
    endloop
  endfacet
  facet normal 0.0897817 0.701635 -0.706858
    outer loop
      vertex 6.99322 2.32409 5.81822
      vertex 23.0312 -5.12955 0.456722
      vertex 6.46931 2.15544 5.58427
    endloop
  endfacet
  facet normal 0.710512 -0.679319 -0.183572
    outer loop
      vertex 28.0973 -9.12937 3.7039
      vertex 16.5289 -46.7106 98
      vertex 24.7731 -12.6062 3.7039
    endloop
  endfacet
  facet normal 0 0 -1
    outer loop
      vertex 23.6321 -9.5661 0.456722
      vertex 24.7416 -6.15149 0.456722
      vertex 25.0091 -8.12594 0.456722
    endloop
  endfacet
  facet normal 0 0 -1
    outer loop
      vertex 23.6321 -9.5661 0.456722
      vertex 23.0312 -5.12955 0.456722
      vertex 24.7416 -6.15149 0.456722
    endloop
  endfacet
  facet normal 0 0 -1
    outer loop
      vertex 21.6477 -9.38749 0.456722
      vertex 23.0312 -5.12955 0.456722
      vertex 23.6321 -9.5661 0.456722
    endloop
  endfacet
  facet normal 0 0 -1
    outer loop
      vertex 21.6477 -9.38749 0.456722
      vertex 21.1657 -5.82966 0.456722
      vertex 23.0312 -5.12955 0.456722
    endloop
  endfacet
  facet normal 0 -0 -1
    outer loop
      vertex 21.1657 -5.82966 0.456722
      vertex 21.6477 -9.38749 0.456722
      vertex 20.55 -7.72462 0.456722
    endloop
  endfacet
  facet normal -0.266172 -0.0483042 -0.962714
    outer loop
      vertex 2.79198 -3.73131 5.16613
      vertex 20.55 -7.72462 0.456722
      vertex 2.96649 -4.08302 5.13553
    endloop
  endfacet
  facet normal -0.266172 -0.048303 -0.962714
    outer loop
      vertex 20.55 -7.72462 0.456722
      vertex 2.79198 -3.73131 5.16613
      vertex 0.229158 -0.445972 5.70986
    endloop
  endfacet
  facet normal 0.977403 -0.207755 0.0390097
    outer loop
      vertex 16.79 -45.7029 96.8244
      vertex 28.0973 -9.12937 8.2961
      vertex 17.1518 -44.2852 95.3091
    endloop
  endfacet
  facet normal 0.977403 -0.207752 0.0390111
    outer loop
      vertex 28.0973 -9.12937 8.2961
      vertex 16.79 -45.7029 96.8244
      vertex 16.5289 -46.7106 98
    endloop
  endfacet
  facet normal -0.293961 -0.904718 0.308337
    outer loop
      vertex 14.2267 -47.1509 99.1756
      vertex -39.3167 -30.1543 98
      vertex 14.0836 -47.5051 98
    endloop
  endfacet
  facet normal 0.536991 -0.513415 -0.669362
    outer loop
      vertex 28.0973 -9.12937 3.7039
      vertex 23.6321 -9.5661 0.456722
      vertex 25.0091 -8.12594 0.456722
    endloop
  endfacet
  facet normal 0.0992908 0.722976 -0.683701
    outer loop
      vertex 11.4018 3.81006 8.00601
      vertex 23.3223 -1.89545 3.7039
      vertex 7.56882 2.52922 6.09494
    endloop
  endfacet
  facet normal 0.0992907 0.722976 -0.683701
    outer loop
      vertex 23.3223 -1.89545 3.7039
      vertex 11.4018 3.81006 8.00601
      vertex 13.4286 4.48813 9.01737
    endloop
  endfacet
  facet normal 0.0276959 0.616695 -0.786715
    outer loop
      vertex 23.0312 -5.12955 0.456722
      vertex 5.296 1.65467 5.15042
      vertex 6.46931 2.15544 5.58427
    endloop
  endfacet
  facet normal 0.0276965 0.616696 -0.786714
    outer loop
      vertex 5.296 1.65467 5.15042
      vertex 23.0312 -5.12955 0.456722
      vertex 5.0508 1.64111 5.13115
    endloop
  endfacet
  facet normal 0.599841 -0.767763 -0.225235
    outer loop
      vertex 16.5289 -46.7106 98
      vertex 15.4508 -47.5528 98
      vertex 24.7731 -12.6062 3.7039
    endloop
  endfacet
  facet normal -0.0838037 -0.931136 -0.354913
    outer loop
      vertex 24.7731 -12.6062 3.7039
      vertex 14.2267 -47.1509 96.8244
      vertex 19.9822 -12.175 3.7039
    endloop
  endfacet
  facet normal 0.381052 0.637773 -0.669362
    outer loop
      vertex 24.7416 -6.15149 0.456722
      vertex 23.0312 -5.12955 0.456722
      vertex 23.3223 -1.89545 3.7039
    endloop
  endfacet
  facet normal 0.536858 0.843672 1.47098e-008
    outer loop
      vertex 27.4516 -4.36263 8.2961
      vertex 13.7616 4.3488 9.6885
      vertex 15.7334 3.09408 15.8429
    endloop
  endfacet
  facet normal 0.536858 0.843672 0
    outer loop
      vertex 13.7616 4.3488 9.6885
      vertex 27.4516 -4.36263 8.2961
      vertex 27.4516 -4.36263 3.7039
    endloop
  endfacet
  facet normal 0.186328 0.573458 0.797764
    outer loop
      vertex -38.2342 -27.7787 99.8987
      vertex 14.6059 -44.9523 99.9021
      vertex 14.2432 -43.836 99.1844
    endloop
  endfacet
  facet normal 0.186452 0.573841 0.79746
    outer loop
      vertex 14.6059 -44.9523 99.9021
      vertex -38.2342 -27.7787 99.8987
      vertex -38.2387 -27.7821 99.9021
    endloop
  endfacet
  facet normal -0.181926 -0.559911 0.808333
    outer loop
      vertex 14.6013 -46.2237 99.9021
      vertex -38.9823 -28.8134 99.9021
      vertex 14.2267 -47.1509 99.1756
    endloop
  endfacet
  facet normal 0.186347 0.573517 0.797718
    outer loop
      vertex -37.2775 -27.0837 99.1756
      vertex 14.2432 -43.836 99.1844
      vertex 14.2387 -43.8223 99.1756
    endloop
  endfacet
  facet normal 0.186328 0.573458 0.797764
    outer loop
      vertex 14.2432 -43.836 99.1844
      vertex -37.2775 -27.0837 99.1756
      vertex -38.2342 -27.7787 99.8987
    endloop
  endfacet
  facet normal -0.0333779 -0.95583 0.292019
    outer loop
      vertex 15.3328 -47.1896 99.1756
      vertex 14.0836 -47.5051 98
      vertex 15.4508 -47.5528 98
    endloop
  endfacet
  facet normal 0.376581 -0.482003 0.791113
    outer loop
      vertex 16.205 -46.5081 99.1756
      vertex 15.0238 -46.2385 99.9021
      vertex 15.3328 -47.1896 99.1756
    endloop
  endfacet
  facet normal 0.280828 -0.908659 -0.30899
    outer loop
      vertex 15.4508 -47.5528 98
      vertex 15.3328 -47.1896 96.8244
      vertex 24.7731 -12.6062 3.7039
    endloop
  endfacet
  facet normal -0.293961 -0.904718 -0.308337
    outer loop
      vertex 14.2267 -47.1509 96.8244
      vertex -39.3167 -30.1543 98
      vertex -38.2777 -30.0912 96.8244
    endloop
  endfacet
  facet normal -0.0665964 -0.739945 -0.669362
    outer loop
      vertex 23.6321 -9.5661 0.456722
      vertex 19.9822 -12.175 3.7039
      vertex 21.6477 -9.38749 0.456722
    endloop
  endfacet
  facet normal -0.224987 0.0731026 -0.971615
    outer loop
      vertex 0.229158 -0.445972 5.70986
      vertex 21.1657 -5.82966 0.456722
      vertex 20.55 -7.72462 0.456722
    endloop
  endfacet
  facet normal -0.224988 0.073102 -0.971616
    outer loop
      vertex 0.229158 -0.445972 5.70986
      vertex 0.00337419 0.0010965 5.79578
      vertex 21.1657 -5.82966 0.456722
    endloop
  endfacet
  facet normal -0.225066 0.0730594 -0.9716
    outer loop
      vertex 0.00208622 -0.00287122 5.79578
      vertex 0.00337419 0.0010965 5.79578
      vertex 0.229158 -0.445972 5.70986
    endloop
  endfacet
  facet normal -0.225028 0.0730471 -0.97161
    outer loop
      vertex 0.00337419 0.0010965 5.79578
      vertex 0.00208622 -0.00287122 5.79578
      vertex 3.37084e-008 1.6849e-007 5.79648
    endloop
  endfacet
  facet normal -0.196311 0.171512 -0.965425
    outer loop
      vertex 21.1657 -5.82966 0.456722
      vertex 0.494958 0.0801291 5.70986
      vertex 4.41146 1.5023 5.16613
    endloop
  endfacet
  facet normal -0.196311 0.171513 -0.965425
    outer loop
      vertex 0.494958 0.0801291 5.70986
      vertex 21.1657 -5.82966 0.456722
      vertex 0.00337419 0.0010965 5.79578
    endloop
  endfacet
  facet normal 0.736212 0.099727 -0.669362
    outer loop
      vertex 28.0973 -9.12937 3.7039
      vertex 24.7416 -6.15149 0.456722
      vertex 27.4516 -4.36263 3.7039
    endloop
  endfacet
  facet normal 0.736212 0.099727 -0.669362
    outer loop
      vertex 25.0091 -8.12594 0.456722
      vertex 24.7416 -6.15149 0.456722
      vertex 28.0973 -9.12937 3.7039
    endloop
  endfacet
  facet normal 0.511412 0.85596 -0.0760954
    outer loop
      vertex 23.3223 -1.89545 3.7039
      vertex 13.7616 4.3488 9.6885
      vertex 27.4516 -4.36263 3.7039
    endloop
  endfacet
  facet normal 0.511412 0.85596 -0.0760952
    outer loop
      vertex 13.7616 4.3488 9.6885
      vertex 23.3223 -1.89545 3.7039
      vertex 13.5811 4.41277 9.19496
    endloop
  endfacet
  facet normal 0.511412 0.85596 -0.0760963
    outer loop
      vertex 13.5811 4.41277 9.19496
      vertex 23.3223 -1.89545 3.7039
      vertex 13.4286 4.48813 9.01737
    endloop
  endfacet
  facet normal 0.381051 0.637773 -0.669362
    outer loop
      vertex 24.7416 -6.15149 0.456722
      vertex 23.3223 -1.89545 3.7039
      vertex 27.4516 -4.36263 3.7039
    endloop
  endfacet
  facet normal 0.376583 -0.481998 0.791115
    outer loop
      vertex 15.3569 -45.9782 99.9021
      vertex 15.0238 -46.2385 99.9021
      vertex 16.205 -46.5081 99.1756
    endloop
  endfacet
  facet normal 0.856986 0.422653 0.294856
    outer loop
      vertex 17.2607 -42.348 92.3645
      vertex 17.1967 -43.8944 94.7671
      vertex 27.4516 -4.36263 8.2961
    endloop
  endfacet
  facet normal 0.841147 0.447244 0.304047
    outer loop
      vertex 17.3636 -39.4165 87.7678
      vertex 17.2607 -42.348 92.3645
      vertex 27.4516 -4.36263 8.2961
    endloop
  endfacet
  facet normal -0.0333779 -0.95583 -0.292019
    outer loop
      vertex 15.4508 -47.5528 98
      vertex 14.0836 -47.5051 98
      vertex 15.3328 -47.1896 96.8244
    endloop
  endfacet
  facet normal -0.0333758 -0.955831 -0.292017
    outer loop
      vertex 15.3328 -47.1896 96.8244
      vertex 14.0836 -47.5051 98
      vertex 14.2267 -47.1509 96.8244
    endloop
  endfacet
  facet normal 0.588825 -0.753665 0.292017
    outer loop
      vertex 16.205 -46.5081 99.1756
      vertex 15.3328 -47.1896 99.1756
      vertex 16.5289 -46.7106 98
    endloop
  endfacet
  facet normal 0.53699 -0.513416 -0.669362
    outer loop
      vertex 24.7731 -12.6062 3.7039
      vertex 23.6321 -9.5661 0.456722
      vertex 28.0973 -9.12937 3.7039
    endloop
  endfacet
  facet normal -0.0665962 -0.739945 -0.669362
    outer loop
      vertex 24.7731 -12.6062 3.7039
      vertex 19.9822 -12.175 3.7039
      vertex 23.6321 -9.5661 0.456722
    endloop
  endfacet
  facet normal -0.0213486 -0.611296 0.791114
    outer loop
      vertex 14.6013 -46.2237 99.9021
      vertex 14.2267 -47.1509 99.1756
      vertex 15.0238 -46.2385 99.9021
    endloop
  endfacet
  facet normal -0.0213454 -0.611298 0.791113
    outer loop
      vertex 15.0238 -46.2385 99.9021
      vertex 14.2267 -47.1509 99.1756
      vertex 15.3328 -47.1896 99.1756
    endloop
  endfacet
  facet normal 0.513588 -0.537172 -0.669084
    outer loop
      vertex 13.4286 4.48813 9.01737
      vertex 17.754 15.2419 3.7039
      vertex 13.5811 4.41277 9.19496
    endloop
  endfacet
  facet normal 0.513589 -0.537172 -0.669083
    outer loop
      vertex 17.754 15.2419 3.7039
      vertex 13.4286 4.48813 9.01737
      vertex 11.4018 3.81006 8.00601
    endloop
  endfacet
  facet normal 0.797775 -0.487399 -0.35496
    outer loop
      vertex 17.754 15.2419 3.7039
      vertex 13.7616 4.3488 9.6885
      vertex 13.5811 4.41277 9.19496
    endloop
  endfacet
  facet normal 0.797775 -0.487399 -0.354961
    outer loop
      vertex 17.754 15.2419 3.7039
      vertex 15.7334 3.09408 15.8429
      vertex 13.7616 4.3488 9.6885
    endloop
  endfacet
  facet normal 0.797775 -0.487399 -0.354961
    outer loop
      vertex 16.3644 -3.45576 26.2548
      vertex 17.754 15.2419 3.7039
      vertex 49.2395 -1.04005 96.8244
    endloop
  endfacet
  facet normal 0.797775 -0.487399 -0.354961
    outer loop
      vertex 17.754 15.2419 3.7039
      vertex 16.3644 -3.45576 26.2548
      vertex 15.7334 3.09408 15.8429
    endloop
  endfacet
  facet normal -0.420347 0.827375 0.372505
    outer loop
      vertex 8.34352 14.4956 26.2548
      vertex 12.6321 24.7599 8.2961
      vertex 1.91924 15.9195 15.8429
    endloop
  endfacet
  facet normal -0.420347 0.827375 0.372505
    outer loop
      vertex 12.6321 24.7599 8.2961
      vertex 8.34352 14.4956 26.2548
      vertex 42.8529 4.33338 87.7678
    endloop
  endfacet
  facet normal 0.761977 -0.553609 -0.336018
    outer loop
      vertex 16.4614 -6.94698 32.2268
      vertex 16.3644 -3.45576 26.2548
      vertex 49.2395 -1.04005 96.8244
    endloop
  endfacet
  facet normal 0.761977 -0.553609 -0.336018
    outer loop
      vertex 49.2395 -1.04005 96.8244
      vertex 17.3636 -39.4165 87.7678
      vertex 16.4614 -6.94698 32.2268
    endloop
  endfacet
  facet normal 0.761977 -0.553609 -0.336018
    outer loop
      vertex 49.2395 -1.04005 96.8244
      vertex 17.2607 -42.348 92.3645
      vertex 17.3636 -39.4165 87.7678
    endloop
  endfacet
  facet normal 0.761977 -0.553609 -0.336017
    outer loop
      vertex 49.2395 -1.04005 96.8244
      vertex 17.1967 -43.8944 94.7671
      vertex 17.2607 -42.348 92.3645
    endloop
  endfacet
  facet normal 0.761976 -0.553607 -0.336024
    outer loop
      vertex 49.2395 -1.04005 96.8244
      vertex 17.1518 -44.2852 95.3091
      vertex 17.1967 -43.8944 94.7671
    endloop
  endfacet
  facet normal 0.761978 -0.553609 -0.336016
    outer loop
      vertex 17.1518 -44.2852 95.3091
      vertex 49.2395 -1.04005 96.8244
      vertex 16.79 -45.7029 96.8244
    endloop
  endfacet
  facet normal 0.7696 -0.559147 -0.308337
    outer loop
      vertex 49.5321 -1.28557 98
      vertex 16.5289 -46.7106 98
      vertex 49.2395 -1.04005 96.8244
    endloop
  endfacet
  facet normal 0.48223 -0.51741 -0.706924
    outer loop
      vertex 6.99322 2.32409 5.81822
      vertex 15.6175 17.6873 0.456722
      vertex 17.754 15.2419 3.7039
    endloop
  endfacet
  facet normal 0.482229 -0.51741 -0.706924
    outer loop
      vertex 6.46931 2.15544 5.58427
      vertex 15.6175 17.6873 0.456722
      vertex 6.99322 2.32409 5.81822
    endloop
  endfacet
  facet normal 0.482229 -0.51741 -0.706924
    outer loop
      vertex 15.6175 17.6873 0.456722
      vertex 6.46931 2.15544 5.58427
      vertex 5.296 1.65467 5.15042
    endloop
  endfacet
  facet normal 0.092168 -0.333965 -0.938069
    outer loop
      vertex 5.296 1.65467 5.15042
      vertex 13.6969 17.1572 0.456722
      vertex 15.6175 17.6873 0.456722
    endloop
  endfacet
  facet normal 0.0921691 -0.333965 -0.938068
    outer loop
      vertex 5.0508 1.64111 5.13115
      vertex 13.6969 17.1572 0.456722
      vertex 5.296 1.65467 5.15042
    endloop
  endfacet
  facet normal 0.0921665 -0.333964 -0.938069
    outer loop
      vertex 13.6969 17.1572 0.456722
      vertex 5.0508 1.64111 5.13115
      vertex 4.79987 1.55957 5.13553
    endloop
  endfacet
  facet normal -0.487812 0.354416 0.797765
    outer loop
      vertex 46.0775 0 99.1756
      vertex 14.2432 -43.836 99.1844
      vertex 47.26 0 99.8987
    endloop
  endfacet
  facet normal -0.487881 0.354466 0.7977
    outer loop
      vertex 14.2432 -43.836 99.1844
      vertex 46.0775 0 99.1756
      vertex 14.2387 -43.8223 99.1756
    endloop
  endfacet
  facet normal 0.865631 0.465816 -0.183572
    outer loop
      vertex 19.6445 19.6651 3.7039
      vertex 17.3651 23.901 3.7039
      vertex 49.5321 1.28557 98
    endloop
  endfacet
  facet normal 0.132657 0.730997 -0.669362
    outer loop
      vertex 15.4565 21.274 0.456722
      vertex 12.6321 24.7599 3.7039
      vertex 17.3651 23.901 3.7039
    endloop
  endfacet
  facet normal 0.683151 -0.291992 -0.669362
    outer loop
      vertex 17.754 15.2419 3.7039
      vertex 15.6175 17.6873 0.456722
      vertex 19.6445 19.6651 3.7039
    endloop
  endfacet
  facet normal 0.178557 0.98393 -0
    outer loop
      vertex 17.3651 23.901 3.7039
      vertex 12.6321 24.7599 8.2961
      vertex 17.3651 23.901 8.2961
    endloop
  endfacet
  facet normal 0.178557 0.98393 0
    outer loop
      vertex 12.6321 24.7599 8.2961
      vertex 17.3651 23.901 3.7039
      vertex 12.6321 24.7599 3.7039
    endloop
  endfacet
  facet normal 0.513237 -0.5371 -0.669411
    outer loop
      vertex 7.56882 2.52922 6.09494
      vertex 17.754 15.2419 3.7039
      vertex 11.4018 3.81006 8.00601
    endloop
  endfacet
  facet normal 0.513237 -0.5371 -0.669411
    outer loop
      vertex 17.754 15.2419 3.7039
      vertex 7.56882 2.52922 6.09494
      vertex 6.99322 2.32409 5.81822
    endloop
  endfacet
  facet normal -0.684751 0.497501 0.53255
    outer loop
      vertex 46.0775 0 99.1756
      vertex 3.29574e-007 -2.04239e-007 39.9293
      vertex 14.2387 -43.8223 99.1756
    endloop
  endfacet
  facet normal 0.175764 0.968555 0.176093
    outer loop
      vertex 17.3651 23.901 8.2961
      vertex 47.0601 2.79096 94.7671
      vertex 47.4179 2.6275 95.3091
    endloop
  endfacet
  facet normal 0.175767 0.968554 0.176092
    outer loop
      vertex 47.0601 2.79096 94.7671
      vertex 17.3651 23.901 8.2961
      vertex 12.6321 24.7599 8.2961
    endloop
  endfacet
  facet normal 0.7696 -0.559147 0.308336
    outer loop
      vertex 49.2395 -1.04005 99.1756
      vertex 16.205 -46.5081 99.1756
      vertex 16.5289 -46.7106 98
    endloop
  endfacet
  facet normal 0.654226 0.352054 -0.669362
    outer loop
      vertex 16.4006 19.5194 0.456722
      vertex 15.4565 21.274 0.456722
      vertex 19.6445 19.6651 3.7039
    endloop
  endfacet
  facet normal -0.346101 -0.0155433 -0.938068
    outer loop
      vertex 12.0849 18.3284 0.456722
      vertex -2.44058e-007 5.31073 5.13115
      vertex 11.9955 20.3188 0.456722
    endloop
  endfacet
  facet normal -0.346101 -0.0155431 -0.938068
    outer loop
      vertex 12.0849 18.3284 0.456722
      vertex -2.44286e-007 5.04689 5.13553
      vertex -2.44058e-007 5.31073 5.13115
    endloop
  endfacet
  facet normal -0.3461 -0.015544 -0.938069
    outer loop
      vertex -2.44286e-007 5.04689 5.13553
      vertex 12.0849 18.3284 0.456722
      vertex -0.065553 4.65978 5.16613
    endloop
  endfacet
  facet normal 0.87995 -0.320276 -0.350872
    outer loop
      vertex 49.2395 -1.04005 96.8244
      vertex 19.6445 19.6651 3.7039
      vertex 49.618 0 96.8244
    endloop
  endfacet
  facet normal 0.654226 0.352054 -0.669362
    outer loop
      vertex 19.6445 19.6651 3.7039
      vertex 15.4565 21.274 0.456722
      vertex 17.3651 23.901 3.7039
    endloop
  endfacet
  facet normal -0.488806 0.559484 -0.669362
    outer loop
      vertex 11.9955 20.3188 0.456722
      vertex 9.00965 21.5951 3.7039
      vertex 12.6321 24.7599 3.7039
    endloop
  endfacet
  facet normal -0.577954 0.21691 -0.786714
    outer loop
      vertex 11.9955 20.3188 0.456722
      vertex -2.44058e-007 5.31073 5.13115
      vertex 0.0628728 5.54812 5.15042
    endloop
  endfacet
  facet normal -0.577953 0.21691 -0.786715
    outer loop
      vertex 11.9955 20.3188 0.456722
      vertex 0.0628728 5.54812 5.15042
      vertex -0.0508152 6.81875 5.58427
    endloop
  endfacet
  facet normal 0.859666 -0.367439 -0.354913
    outer loop
      vertex 49.2395 -1.04005 96.8244
      vertex 17.754 15.2419 3.7039
      vertex 19.6445 19.6651 3.7039
    endloop
  endfacet
  facet normal -0.656031 0.750888 -0.0760954
    outer loop
      vertex 9.00965 21.5951 3.7039
      vertex 0.116622 14.4319 9.6885
      vertex 12.6321 24.7599 3.7039
    endloop
  endfacet
  facet normal -0.656031 0.750888 -0.0760958
    outer loop
      vertex 0.116622 14.4319 9.6885
      vertex 9.00965 21.5951 3.7039
      vertex 3.72308e-007 14.28 9.19496
    endloop
  endfacet
  facet normal -0.656031 0.750888 -0.0760942
    outer loop
      vertex 3.72308e-007 14.28 9.19496
      vertex 9.00965 21.5951 3.7039
      vertex -0.118807 14.1582 9.01737
    endloop
  endfacet
  facet normal -0.636482 0.771292 5.61084e-008
    outer loop
      vertex 12.6321 24.7599 8.2961
      vertex 0.116622 14.4319 9.6885
      vertex 1.91924 15.9195 15.8429
    endloop
  endfacet
  facet normal -0.636482 0.771292 0
    outer loop
      vertex 0.116622 14.4319 9.6885
      vertex 12.6321 24.7599 8.2961
      vertex 12.6321 24.7599 3.7039
    endloop
  endfacet
  facet normal 0.7696 -0.559147 0.308337
    outer loop
      vertex 49.2395 -1.04005 99.1756
      vertex 16.5289 -46.7106 98
      vertex 49.5321 -1.28557 98
    endloop
  endfacet
  facet normal 0.476288 -0.346044 0.808333
    outer loop
      vertex 48.4734 -0.397264 99.9021
      vertex 15.3569 -45.9782 99.9021
      vertex 16.205 -46.5081 99.1756
    endloop
  endfacet
  facet normal 0.769599 -0.559146 -0.308338
    outer loop
      vertex 49.2395 -1.04005 96.8244
      vertex 16.5289 -46.7106 98
      vertex 16.79 -45.7029 96.8244
    endloop
  endfacet
  facet normal -0.036312 -0.268072 -0.962714
    outer loop
      vertex 4.41146 1.5023 5.16613
      vertex 13.6969 17.1572 0.456722
      vertex 4.79987 1.55957 5.13553
    endloop
  endfacet
  facet normal -0.0363127 -0.268071 -0.962714
    outer loop
      vertex 13.6969 17.1572 0.456722
      vertex 4.41146 1.5023 5.16613
      vertex 0.494958 0.0801291 5.70986
    endloop
  endfacet
  facet normal 0 0 -1
    outer loop
      vertex 15.6175 17.6873 0.456722
      vertex 15.4565 21.274 0.456722
      vertex 16.4006 19.5194 0.456722
    endloop
  endfacet
  facet normal 0 0 -1
    outer loop
      vertex 13.6969 17.1572 0.456722
      vertex 15.4565 21.274 0.456722
      vertex 15.6175 17.6873 0.456722
    endloop
  endfacet
  facet normal 0 0 -1
    outer loop
      vertex 13.6969 17.1572 0.456722
      vertex 13.496 21.6298 0.456722
      vertex 15.4565 21.274 0.456722
    endloop
  endfacet
  facet normal 0 0 -1
    outer loop
      vertex 12.0849 18.3284 0.456722
      vertex 13.496 21.6298 0.456722
      vertex 13.6969 17.1572 0.456722
    endloop
  endfacet
  facet normal 0 0 -1
    outer loop
      vertex 13.496 21.6298 0.456722
      vertex 12.0849 18.3284 0.456722
      vertex 11.9955 20.3188 0.456722
    endloop
  endfacet
  facet normal 0.683151 -0.291993 -0.669362
    outer loop
      vertex 19.6445 19.6651 3.7039
      vertex 15.6175 17.6873 0.456722
      vertex 16.4006 19.5194 0.456722
    endloop
  endfacet
  facet normal -0.488806 0.559484 -0.669362
    outer loop
      vertex 13.496 21.6298 0.456722
      vertex 11.9955 20.3188 0.456722
      vertex 12.6321 24.7599 3.7039
    endloop
  endfacet
  facet normal 0.132657 0.730997 -0.669362
    outer loop
      vertex 13.496 21.6298 0.456722
      vertex 12.6321 24.7599 3.7039
      vertex 15.4565 21.274 0.456722
    endloop
  endfacet
  facet normal -0.63955 0.302205 -0.706858
    outer loop
      vertex -0.0665352 7.97995 6.09494
      vertex 11.9955 20.3188 0.456722
      vertex -0.0493138 7.36913 5.81822
    endloop
  endfacet
  facet normal -0.63955 0.302204 -0.706858
    outer loop
      vertex -0.0493138 7.36913 5.81822
      vertex 11.9955 20.3188 0.456722
      vertex -0.0508152 6.81875 5.58427
    endloop
  endfacet
  facet normal -0.63955 0.302204 -0.706858
    outer loop
      vertex 11.9955 20.3188 0.456722
      vertex -0.0665352 7.97995 6.09494
      vertex 9.00965 21.5951 3.7039
    endloop
  endfacet
  facet normal -0.656909 0.317843 -0.683701
    outer loop
      vertex -0.10023 12.0211 8.00601
      vertex 9.00965 21.5951 3.7039
      vertex -0.0665352 7.97995 6.09494
    endloop
  endfacet
  facet normal -0.656909 0.317843 -0.683701
    outer loop
      vertex 9.00965 21.5951 3.7039
      vertex -0.10023 12.0211 8.00601
      vertex -0.118807 14.1582 9.01737
    endloop
  endfacet
  facet normal -0.488316 0.354782 0.797294
    outer loop
      vertex 47.26 0 99.8987
      vertex 14.6059 -44.9523 99.9021
      vertex 47.2657 0 99.9021
    endloop
  endfacet
  facet normal -0.487813 0.354417 0.797764
    outer loop
      vertex 14.6059 -44.9523 99.9021
      vertex 47.26 0 99.8987
      vertex 14.2432 -43.836 99.1844
    endloop
  endfacet
  facet normal 0.915547 0.333232 -0.225235
    outer loop
      vertex 50 0 98
      vertex 19.6445 19.6651 3.7039
      vertex 49.5321 1.28557 98
    endloop
  endfacet
  facet normal 0.575143 0.818053 0
    outer loop
      vertex 49.5321 1.28557 98
      vertex 17.3651 23.901 3.7039
      vertex 17.3651 23.901 8.2961
    endloop
  endfacet
  facet normal 0.950967 -0.0136972 -0.308988
    outer loop
      vertex 49.618 0 96.8244
      vertex 19.6445 19.6651 3.7039
      vertex 50 0 98
    endloop
  endfacet
  facet normal 0.499619 0.865366 0.0390104
    outer loop
      vertex 48.6545 1.84527 96.8244
      vertex 17.3651 23.901 8.2961
      vertex 47.4179 2.6275 95.3091
    endloop
  endfacet
  facet normal 0.49949 0.865438 0.0390741
    outer loop
      vertex 48.6698 1.83552 96.8449
      vertex 17.3651 23.901 8.2961
      vertex 48.6545 1.84527 96.8244
    endloop
  endfacet
  facet normal 0.499619 0.865366 0.0390104
    outer loop
      vertex 17.3651 23.901 8.2961
      vertex 48.6698 1.83552 96.8449
      vertex 49.5321 1.28557 98
    endloop
  endfacet
  facet normal -0.13905 -0.191386 -0.971616
    outer loop
      vertex 0.494958 0.0801291 5.70986
      vertex 12.0849 18.3284 0.456722
      vertex 13.6969 17.1572 0.456722
    endloop
  endfacet
  facet normal -0.139049 -0.19139 -0.971615
    outer loop
      vertex -1.29603e-007 0.00354801 5.79578
      vertex 0.494958 0.0801291 5.70986
      vertex 0.00337419 0.0010965 5.79578
    endloop
  endfacet
  facet normal -0.139088 -0.191444 -0.971599
    outer loop
      vertex -1.29603e-007 0.00354801 5.79578
      vertex 0.00337419 0.0010965 5.79578
      vertex 3.37084e-008 1.6849e-007 5.79648
    endloop
  endfacet
  facet normal -0.139049 -0.191386 -0.971616
    outer loop
      vertex 0.494958 0.0801291 5.70986
      vertex -1.29603e-007 0.00354801 5.79578
      vertex 12.0849 18.3284 0.456722
    endloop
  endfacet
  facet normal -0.0626897 -0.192939 -0.979206
    outer loop
      vertex -1.29603e-007 0.00354801 5.79578
      vertex 3.37084e-008 1.6849e-007 5.79648
      vertex -1.2962e-007 2.21559e-007 5.79648
    endloop
  endfacet
  facet normal -0.223781 -0.133703 -0.965425
    outer loop
      vertex 12.0849 18.3284 0.456722
      vertex -1.29603e-007 0.00354801 5.79578
      vertex 0.076743 0.495493 5.70986
    endloop
  endfacet
  facet normal -0.223781 -0.133703 -0.965425
    outer loop
      vertex 12.0849 18.3284 0.456722
      vertex 0.076743 0.495493 5.70986
      vertex -0.065553 4.65978 5.16613
    endloop
  endfacet
  facet normal 0.476289 -0.346045 0.808333
    outer loop
      vertex 48.4734 -0.397264 99.9021
      vertex 16.205 -46.5081 99.1756
      vertex 49.2395 -1.04005 99.1756
    endloop
  endfacet
  facet normal -0.137139 0.94565 0.294854
    outer loop
      vertex 47.0601 2.79096 94.7671
      vertex 12.6321 24.7599 8.2961
      vertex 45.6092 3.32968 92.3645
    endloop
  endfacet
  facet normal -0.165427 0.938184 0.304048
    outer loop
      vertex 45.6092 3.32968 92.3645
      vertex 12.6321 24.7599 8.2961
      vertex 42.8529 4.33338 87.7678
    endloop
  endfacet
endsolid OpenSCAD_Model
