solid OpenSCAD_Model
  facet normal 0.486936 0.843399 -0.227094
    outer loop
      vertex 46.6928 2.28882 95.638
      vertex -22.4679 42.8548 98
      vertex 48.3473 1.96962 98
    endloop
  endfacet
  facet normal 0.486935 0.843397 -0.227103
    outer loop
      vertex 46.5863 2.30371 95.4649
      vertex -22.4679 42.8548 98
      vertex 46.6928 2.28882 95.638
    endloop
  endfacet
  facet normal 0.486936 0.843399 -0.227094
    outer loop
      vertex 45.4179 2.3615 93.1741
      vertex -22.4679 42.8548 98
      vertex 46.5863 2.30371 95.4649
    endloop
  endfacet
  facet normal 0.486936 0.843399 -0.227094
    outer loop
      vertex -22.4679 42.8548 98
      vertex 45.4179 2.3615 93.1741
      vertex -31.9109 22.584 2.46927
    endloop
  endfacet
  facet normal 0 0 -1
    outer loop
      vertex 48.3473 1.96962 98
      vertex -22.4679 42.8548 98
      vertex 49.5321 1.28557 98
    endloop
  endfacet
  facet normal 0.00272041 0.0119189 -0.999925
    outer loop
      vertex -0.17031 0.746177 0.152241
      vertex 0.054875 0.848323 0.154071
      vertex -0.0539284 0.719613 0.152241
    endloop
  endfacet
  facet normal 0.00272041 0.0119189 -0.999925
    outer loop
      vertex 0.054875 0.848323 0.154071
      vertex -0.17031 0.746177 0.152241
      vertex -34.6527 21.3886 0.304482
    endloop
  endfacet
  facet normal 0.00272039 0.0119189 -0.999925
    outer loop
      vertex 0.360815 0.624951 0.152241
      vertex 0.409157 0.638655 0.152536
      vertex 0.477198 0.598388 0.152241
    endloop
  endfacet
  facet normal 0.00272033 0.0119191 -0.999925
    outer loop
      vertex 0.409157 0.638655 0.152536
      vertex 0.360815 0.624951 0.152241
      vertex 0.344212 0.643072 0.152412
    endloop
  endfacet
  facet normal 0.366388 0.613885 -0.699217
    outer loop
      vertex -33.3833 20.9971 0.304482
      vertex 0.0535836 2.14696 1.27565
      vertex 0.0524432 2.06719 1.20502
    endloop
  endfacet
  facet normal 0.366388 0.613885 -0.699217
    outer loop
      vertex 0.0535836 2.14696 1.27565
      vertex -33.3833 20.9971 0.304482
      vertex -31.9109 22.584 2.46927
    endloop
  endfacet
  facet normal -0.657718 -0.708834 0.254875
    outer loop
      vertex -37.8646 18.5249 5.53073
      vertex -25.2882 39.1931 95.4649
      vertex -25.3286 39.2928 95.638
    endloop
  endfacet
  facet normal -0.657709 -0.708842 0.254876
    outer loop
      vertex -25.2882 39.1931 95.4649
      vertex -37.8646 18.5249 5.53073
      vertex -35.5138 16.3437 5.53073
    endloop
  endfacet
  facet normal -0.41851 0.613843 -0.669362
    outer loop
      vertex -34.6527 21.3886 0.304482
      vertex -37.6249 21.7228 2.46927
      vertex -34.9753 23.5292 2.46927
    endloop
  endfacet
  facet normal -0.991705 0 0.128537
    outer loop
      vertex -25.8794 42.2533 98
      vertex -37.8646 18.5249 5.53073
      vertex -25.8794 40.8852 98
    endloop
  endfacet
  facet normal -0.459195 -0.888336 0
    outer loop
      vertex -35.5138 16.3437 2.46927
      vertex -2.31222 -0.818746 2.91513
      vertex -35.5138 16.3437 5.53073
    endloop
  endfacet
  facet normal -0.459195 -0.888336 1.51706e-008
    outer loop
      vertex -2.31222 -0.818746 2.91513
      vertex -35.5138 16.3437 2.46927
      vertex -1.8894 -1.03731 1.28663
    endloop
  endfacet
  facet normal 0.165317 -0.724281 -0.669394
    outer loop
      vertex 0.47738 -0.598616 0.152533
      vertex 0.476958 -0.598712 0.152533
      vertex 0.477198 -0.598388 0.152241
    endloop
  endfacet
  facet normal 0.513983 0.818824 -0.255632
    outer loop
      vertex 14.3887 3.36528 34.0009
      vertex -31.9109 22.584 2.46927
      vertex 45.4179 2.3615 93.1741
    endloop
  endfacet
  facet normal 0.513983 0.818824 -0.255632
    outer loop
      vertex 0.447054 2.41181 2.91513
      vertex -31.9109 22.584 2.46927
      vertex 14.3887 3.36528 34.0009
    endloop
  endfacet
  facet normal 0.513983 0.818824 -0.255632
    outer loop
      vertex 0.0463635 2.15492 1.28663
      vertex -31.9109 22.584 2.46927
      vertex 0.447054 2.41181 2.91513
    endloop
  endfacet
  facet normal 0.513984 0.818825 -0.255628
    outer loop
      vertex -31.9109 22.584 2.46927
      vertex 0.0463635 2.15492 1.28663
      vertex 0.0535836 2.14696 1.27565
    endloop
  endfacet
  facet normal -0.4347 -0.874029 0.217046
    outer loop
      vertex -10.1088 10.7784 34.0009
      vertex -35.5138 16.3437 5.53073
      vertex -2.31222 -0.818746 2.91513
    endloop
  endfacet
  facet normal -0.4347 -0.874029 0.217046
    outer loop
      vertex -6.64619 10.0198 37.8813
      vertex 12.0005 0.745848 37.8813
      vertex 39.0934 9.56478e-008 89.1394
    endloop
  endfacet
  facet normal -0.434701 -0.874029 0.217046
    outer loop
      vertex 12.0005 0.745848 37.8813
      vertex -6.64619 10.0198 37.8813
      vertex 9.72016e-008 5.16192e-008 10.8431
    endloop
  endfacet
  facet normal 0.898734 -0.327112 0.292017
    outer loop
      vertex 50 0 98
      vertex 49.2395 -1.04005 99.1756
      vertex 49.5321 -1.28557 98
    endloop
  endfacet
  facet normal -0.742339 -0.622898 0.246842
    outer loop
      vertex -25.8794 40.8852 98
      vertex -37.8646 18.5249 5.53073
      vertex -25.3286 39.2928 95.638
    endloop
  endfacet
  facet normal -0.505324 -0.544611 -0.669363
    outer loop
      vertex -35.5138 16.3437 2.46927
      vertex -35.8494 19.3158 0.304482
      vertex -34.8757 18.4123 0.304482
    endloop
  endfacet
  facet normal -0.505325 -0.544611 -0.669362
    outer loop
      vertex -35.5138 16.3437 2.46927
      vertex -37.8646 18.5249 2.46927
      vertex -35.8494 19.3158 0.304482
    endloop
  endfacet
  facet normal -0.293894 -0.509039 0.809015
    outer loop
      vertex 46.7639 0 99.9021
      vertex -22.382 38.7667 99.1756
      vertex 44.7639 0 99.1756
    endloop
  endfacet
  facet normal -0.293894 -0.509039 0.809015
    outer loop
      vertex -22.382 38.7667 99.1756
      vertex 46.7639 0 99.9021
      vertex -23.382 40.4988 99.9021
    endloop
  endfacet
  facet normal -0.559808 0.821088 -0.111486
    outer loop
      vertex -34.9753 23.5292 2.46927
      vertex -37.6249 21.7228 2.46927
      vertex -25 43.3013 98
    endloop
  endfacet
  facet normal 0.478207 0.828278 0.292016
    outer loop
      vertex -22.4679 42.8548 98
      vertex -23.6527 43.5388 98
      vertex -22.7605 42.6093 99.1756
    endloop
  endfacet
  facet normal 0.898734 0.327112 0.292017
    outer loop
      vertex 49.5321 1.28557 98
      vertex 49.2395 1.04005 99.1756
      vertex 50 0 98
    endloop
  endfacet
  facet normal 0.574781 0.209203 0.791113
    outer loop
      vertex 49.2395 1.04005 99.1756
      vertex 48.4734 0.397264 99.9021
      vertex 49.618 0 99.1756
    endloop
  endfacet
  facet normal -0.00416154 0.000311866 -0.999991
    outer loop
      vertex -0.689571 0.33208 0.152241
      vertex -35.8494 19.3158 0.304482
      vertex -35.7502 20.6404 0.304482
    endloop
  endfacet
  facet normal 0.925979 -0.337028 -0.170221
    outer loop
      vertex 50 0 98
      vertex 49.5321 -1.28557 98
      vertex 50 -6.62746e-006 98
    endloop
  endfacet
  facet normal 0.218985 0.709929 -0.669363
    outer loop
      vertex -33.3833 20.9971 0.304482
      vertex -34.6527 21.3886 0.304482
      vertex -31.9109 22.584 2.46927
    endloop
  endfacet
  facet normal 0.669342 0.322339 -0.669387
    outer loop
      vertex 0.528993 0.490834 0.152241
      vertex 0.477198 0.598388 0.152241
      vertex 0.47738 0.598616 0.152533
    endloop
  endfacet
  facet normal 0.669333 0.322335 -0.669397
    outer loop
      vertex 0.765367 0 0.152241
      vertex 0.718417 0.0977888 0.152384
      vertex 0.765464 0.000362886 0.152513
    endloop
  endfacet
  facet normal 0.669355 0.322345 -0.66937
    outer loop
      vertex 0.718417 0.0977888 0.152384
      vertex 0.765367 0 0.152241
      vertex 0.713571 0.107554 0.152241
    endloop
  endfacet
  facet normal -0.997204 0.0747297 0
    outer loop
      vertex -37.8646 18.5249 2.46927
      vertex -37.6249 21.7228 5.53073
      vertex -37.6249 21.7228 2.46927
    endloop
  endfacet
  facet normal -0.997204 0.0747297 0
    outer loop
      vertex -37.6249 21.7228 5.53073
      vertex -37.8646 18.5249 2.46927
      vertex -37.8646 18.5249 5.53073
    endloop
  endfacet
  facet normal -0.680173 -0.733052 0
    outer loop
      vertex -37.8646 18.5249 2.46927
      vertex -35.5138 16.3437 5.53073
      vertex -37.8646 18.5249 5.53073
    endloop
  endfacet
  facet normal -0.680173 -0.733052 -0
    outer loop
      vertex -35.5138 16.3437 5.53073
      vertex -37.8646 18.5249 2.46927
      vertex -35.5138 16.3437 2.46927
    endloop
  endfacet
  facet normal 0.305835 0.529721 0.791114
    outer loop
      vertex -22.7605 42.6093 99.1756
      vertex -23.5266 41.9665 99.9021
      vertex 48.4734 0.397264 99.9021
    endloop
  endfacet
  facet normal 0.486937 0.843398 -0.227094
    outer loop
      vertex -22.4679 42.8548 98
      vertex -31.9109 22.584 2.46927
      vertex -23.6527 43.5388 98
    endloop
  endfacet
  facet normal -0.166078 0.941883 0.292017
    outer loop
      vertex -23.6527 43.5388 98
      vertex -24.809 42.9705 99.1756
      vertex -23.719 43.1627 99.1756
    endloop
  endfacet
  facet normal -0.765306 0.642167 -0.0439134
    outer loop
      vertex -25 43.3013 98
      vertex -37.6249 21.7228 2.46927
      vertex -25.8794 42.2533 98
    endloop
  endfacet
  facet normal -0.475526 -0.823635 0.309031
    outer loop
      vertex 44 1.14709e-008 98
      vertex -22.0158 38.1325 98.0486
      vertex -22 38.1051 98
    endloop
  endfacet
  facet normal -0.475528 -0.823639 0.309016
    outer loop
      vertex -22.0158 38.1325 98.0486
      vertex 44 1.14709e-008 98
      vertex 44.738 9.35461e-009 99.1356
    endloop
  endfacet
  facet normal -0.48187 -0.834624 0.26684
    outer loop
      vertex -24.754 38.1523 93.1741
      vertex -35.5138 16.3437 5.53073
      vertex -10.1088 10.7784 34.0009
    endloop
  endfacet
  facet normal -0.481869 -0.834625 0.26684
    outer loop
      vertex -35.5138 16.3437 5.53073
      vertex -24.754 38.1523 93.1741
      vertex -25.2882 39.1931 95.4649
    endloop
  endfacet
  facet normal -0.48187 -0.834624 0.26684
    outer loop
      vertex 39.0934 9.56478e-008 89.1394
      vertex -22 38.1051 98
      vertex -19.5467 33.8558 89.1394
    endloop
  endfacet
  facet normal -0.48187 -0.834624 0.26684
    outer loop
      vertex -22 38.1051 98
      vertex 39.0934 9.56478e-008 89.1394
      vertex 44 1.14709e-008 98
    endloop
  endfacet
  facet normal -0.48187 -0.834624 0.26684
    outer loop
      vertex 39.0934 9.56478e-008 89.1394
      vertex -19.5467 33.8558 89.1394
      vertex -6.64619 10.0198 37.8813
    endloop
  endfacet
  facet normal -0.47552 -0.823625 0.309065
    outer loop
      vertex -22.382 38.7667 99.1756
      vertex 44.738 9.35461e-009 99.1356
      vertex 44.7639 0 99.1756
    endloop
  endfacet
  facet normal -0.475528 -0.823639 0.309016
    outer loop
      vertex 44.738 9.35461e-009 99.1356
      vertex -22.382 38.7667 99.1756
      vertex -22.0158 38.1325 98.0486
    endloop
  endfacet
  facet normal 0.898734 0.327112 0.292017
    outer loop
      vertex 50 0 98
      vertex 49.2395 1.04005 99.1756
      vertex 49.618 0 99.1756
    endloop
  endfacet
  facet normal 0.66935 0.322322 -0.669387
    outer loop
      vertex 0.765639 0 0.152513
      vertex 0.765367 0 0.152241
      vertex 0.765464 0.000362886 0.152513
    endloop
  endfacet
  facet normal 0.669339 -0.322368 -0.669376
    outer loop
      vertex 0.765464 -0.000362303 0.152512
      vertex 0.765367 0 0.152241
      vertex 0.765639 0 0.152513
    endloop
  endfacet
  facet normal -0.00235085 0.00344806 -0.999991
    outer loop
      vertex -0.17031 0.746177 0.152241
      vertex -35.7502 20.6404 0.304482
      vertex -34.6527 21.3886 0.304482
    endloop
  endfacet
  facet normal 0.218984 0.70993 -0.669362
    outer loop
      vertex -34.6527 21.3886 0.304482
      vertex -34.9753 23.5292 2.46927
      vertex -31.9109 22.584 2.46927
    endloop
  endfacet
  facet normal -0.991217 0.074281 0.109413
    outer loop
      vertex -37.6249 21.7228 5.53073
      vertex -37.8646 18.5249 5.53073
      vertex -25.8794 42.2533 98
    endloop
  endfacet
  facet normal -0.867991 0.49658 0
    outer loop
      vertex -25.8794 42.2533 98
      vertex -37.6249 21.7228 2.46927
      vertex -37.6249 21.7228 5.53073
    endloop
  endfacet
  facet normal -0.732655 0.61477 0.292017
    outer loop
      vertex -25 43.3013 98
      vertex -25.8794 42.2533 98
      vertex -24.809 42.9705 99.1756
    endloop
  endfacet
  facet normal 0.305834 0.529721 0.791114
    outer loop
      vertex -22.7605 42.6093 99.1756
      vertex -23.8927 42.1779 99.9021
      vertex -23.5266 41.9665 99.9021
    endloop
  endfacet
  facet normal -0.495948 -0.80691 0.320829
    outer loop
      vertex 50 3.03346e-006 98
      vertex 50 0 98
      vertex 50 6.88843e-007 98
    endloop
  endfacet
  facet normal 0 0 1
    outer loop
      vertex 50 3.03346e-006 98
      vertex 50 6.88843e-007 98
      vertex 50 7.79658e-007 98
    endloop
  endfacet
  facet normal 0 0 -1
    outer loop
      vertex 50 3.03346e-006 98
      vertex 49.5321 1.28557 98
      vertex 50 0 98
    endloop
  endfacet
  facet normal -0.418511 0.613842 -0.669363
    outer loop
      vertex -35.7502 20.6404 0.304482
      vertex -37.6249 21.7228 2.46927
      vertex -34.6527 21.3886 0.304482
    endloop
  endfacet
  facet normal 0.669342 -0.322339 -0.669387
    outer loop
      vertex 0.47738 -0.598616 0.152533
      vertex 0.477198 -0.598388 0.152241
      vertex 0.528993 -0.490834 0.152241
    endloop
  endfacet
  facet normal 0.669364 -0.322349 -0.66936
    outer loop
      vertex 0.765464 -0.000362303 0.152512
      vertex 0.713571 -0.107554 0.152241
      vertex 0.765367 0 0.152241
    endloop
  endfacet
  facet normal 0.00471647 0.0152913 -0.999872
    outer loop
      vertex 0.054875 0.848323 0.154071
      vertex -33.3833 20.9971 0.304482
      vertex 0.0564852 0.851839 0.154132
    endloop
  endfacet
  facet normal 0.00471709 0.0152924 -0.999872
    outer loop
      vertex -33.3833 20.9971 0.304482
      vertex 0.054875 0.848323 0.154071
      vertex -34.6527 21.3886 0.304482
    endloop
  endfacet
  facet normal 0.00471803 0.0152939 -0.999872
    outer loop
      vertex 0.477198 0.598388 0.152241
      vertex 0.409157 0.638655 0.152536
      vertex 0.411052 0.638236 0.152538
    endloop
  endfacet
  facet normal 0.364207 0.609813 -0.703904
    outer loop
      vertex 0.477198 0.598388 0.152241
      vertex 0.411052 0.638236 0.152538
      vertex 0.47738 0.598616 0.152533
    endloop
  endfacet
  facet normal 0.36421 0.609819 -0.703897
    outer loop
      vertex 0.0564852 0.851839 0.154132
      vertex -33.3833 20.9971 0.304482
      vertex 0.0228109 0.87279 0.154859
    endloop
  endfacet
  facet normal 0.364221 0.609836 -0.703877
    outer loop
      vertex 0.0232792 0.917612 0.193936
      vertex -33.3833 20.9971 0.304482
      vertex 0.0524432 2.06719 1.20502
    endloop
  endfacet
  facet normal 0.364221 0.609836 -0.703877
    outer loop
      vertex -33.3833 20.9971 0.304482
      vertex 0.0232792 0.917612 0.193936
      vertex 0.0228109 0.87279 0.154859
    endloop
  endfacet
  facet normal -0.170729 0.968256 -0.182573
    outer loop
      vertex -23.6527 43.5388 98
      vertex -34.9753 23.5292 2.46927
      vertex -25 43.3013 98
    endloop
  endfacet
  facet normal 0.286933 0.930214 -0.228848
    outer loop
      vertex -31.9109 22.584 2.46927
      vertex -34.9753 23.5292 2.46927
      vertex -23.6527 43.5388 98
    endloop
  endfacet
  facet normal 0.305835 0.529721 0.791113
    outer loop
      vertex 49.2395 1.04005 99.1756
      vertex -22.7605 42.6093 99.1756
      vertex 48.4734 0.397264 99.9021
    endloop
  endfacet
  facet normal 0.478207 0.828278 0.292017
    outer loop
      vertex -22.4679 42.8548 98
      vertex 49.2395 1.04005 99.1756
      vertex 49.5321 1.28557 98
    endloop
  endfacet
  facet normal 0.478207 0.828278 0.292016
    outer loop
      vertex 49.2395 1.04005 99.1756
      vertex -22.4679 42.8548 98
      vertex -22.7605 42.6093 99.1756
    endloop
  endfacet
  facet normal -0.106215 0.602378 0.791113
    outer loop
      vertex -23.719 43.1627 99.1756
      vertex -24.809 42.9705 99.1756
      vertex -24.309 42.1045 99.9021
    endloop
  endfacet
  facet normal -0.166079 0.941883 0.292017
    outer loop
      vertex -23.6527 43.5388 98
      vertex -25 43.3013 98
      vertex -24.809 42.9705 99.1756
    endloop
  endfacet
  facet normal 0.165303 -0.724244 -0.669437
    outer loop
      vertex 0.477198 -0.598388 0.152241
      vertex 0.38481 -0.619632 0.152412
      vertex 0.360815 -0.624951 0.152241
    endloop
  endfacet
  facet normal 0.165312 -0.72428 -0.669396
    outer loop
      vertex 0.38481 -0.619632 0.152412
      vertex 0.477198 -0.598388 0.152241
      vertex 0.476958 -0.598712 0.152533
    endloop
  endfacet
  facet normal 0.165317 -0.724303 -0.669369
    outer loop
      vertex -0.0539284 -0.719613 0.152241
      vertex -0.170371 -0.746442 0.152513
      vertex -0.17031 -0.746177 0.152241
    endloop
  endfacet
  facet normal -0.350282 -0.63051 -0.692647
    outer loop
      vertex -1.81646 -0.988178 1.20502
      vertex -35.5138 16.3437 2.46927
      vertex -0.806315 -0.438645 0.193936
    endloop
  endfacet
  facet normal -0.350282 -0.63051 -0.692647
    outer loop
      vertex -1.88612 -1.02708 1.27565
      vertex -35.5138 16.3437 2.46927
      vertex -1.81646 -0.988178 1.20502
    endloop
  endfacet
  facet normal -0.350281 -0.630508 -0.692649
    outer loop
      vertex -35.5138 16.3437 2.46927
      vertex -1.88612 -1.02708 1.27565
      vertex -1.8894 -1.03731 1.28663
    endloop
  endfacet
  facet normal -0.350283 -0.630507 -0.692649
    outer loop
      vertex -0.170371 -0.746442 0.152513
      vertex -0.174427 -0.744186 0.152511
      vertex -0.17031 -0.746177 0.152241
    endloop
  endfacet
  facet normal -0.740859 0.05552 -0.669362
    outer loop
      vertex -35.8494 19.3158 0.304482
      vertex -37.8646 18.5249 2.46927
      vertex -35.7502 20.6404 0.304482
    endloop
  endfacet
  facet normal -0.740859 0.0555194 -0.669363
    outer loop
      vertex -35.7502 20.6404 0.304482
      vertex -37.8646 18.5249 2.46927
      vertex -37.6249 21.7228 2.46927
    endloop
  endfacet
  facet normal 0.898734 -0.327112 0.292017
    outer loop
      vertex 49.618 0 99.1756
      vertex 49.2395 -1.04005 99.1756
      vertex 50 0 98
    endloop
  endfacet
  facet normal -0.468566 0.393173 0.791114
    outer loop
      vertex -24.809 42.9705 99.1756
      vertex -25.5205 42.1226 99.1756
      vertex -24.5808 41.7806 99.9021
    endloop
  endfacet
  facet normal -0.956413 0 0.292017
    outer loop
      vertex -25.8794 40.8852 98
      vertex -25.5205 42.1226 99.1756
      vertex -25.8794 42.2533 98
    endloop
  endfacet
  facet normal -0.956413 0 0.292017
    outer loop
      vertex -25.8794 40.8852 98
      vertex -25.5205 -42.1226 99.1756
      vertex -25.5205 42.1226 99.1756
    endloop
  endfacet
  facet normal -0.956413 0 0.292017
    outer loop
      vertex -25.5205 -42.1226 99.1756
      vertex -25.8794 40.8852 98
      vertex -25.8794 -42.2533 98
    endloop
  endfacet
  facet normal 0.305834 0.529722 0.791113
    outer loop
      vertex -23.719 43.1627 99.1756
      vertex -23.8927 42.1779 99.9021
      vertex -22.7605 42.6093 99.1756
    endloop
  endfacet
  facet normal 0.478204 0.828279 0.292019
    outer loop
      vertex -23.6527 43.5388 98
      vertex -23.719 43.1627 99.1756
      vertex -22.7605 42.6093 99.1756
    endloop
  endfacet
  facet normal -0 0 -1
    outer loop
      vertex 0.713571 -0.107554 0.152241
      vertex 0.650168 -0.313103 0.152241
      vertex 0.713571 0.107554 0.152241
    endloop
  endfacet
  facet normal 0 0 -1
    outer loop
      vertex 0.650168 -0.313103 0.152241
      vertex 0.713571 -0.107554 0.152241
      vertex 0.731363 -0.225595 0.152241
    endloop
  endfacet
  facet normal -0 0 -1
    outer loop
      vertex 0.765367 0 0.152241
      vertex 0.713571 -0.107554 0.152241
      vertex 0.713571 0.107554 0.152241
    endloop
  endfacet
  facet normal 0 0 -1
    outer loop
      vertex 0.713571 0.107554 0.152241
      vertex 0.650168 0.313103 0.152241
      vertex 0.731363 0.225595 0.152241
    endloop
  endfacet
  facet normal 0 0 -1
    outer loop
      vertex 0.650168 -0.313103 0.152241
      vertex 0.650168 0.313103 0.152241
      vertex 0.713571 0.107554 0.152241
    endloop
  endfacet
  facet normal 0 0 -1
    outer loop
      vertex 0.528993 -0.490834 0.152241
      vertex 0.650168 -0.313103 0.152241
      vertex 0.632376 -0.431146 0.152241
    endloop
  endfacet
  facet normal -0 0 -1
    outer loop
      vertex 0.650168 -0.313103 0.152241
      vertex 0.528993 -0.490834 0.152241
      vertex 0.650168 0.313103 0.152241
    endloop
  endfacet
  facet normal 0 0 -1
    outer loop
      vertex 0.528993 0.490834 0.152241
      vertex 0.650168 0.313103 0.152241
      vertex 0.528993 -0.490834 0.152241
    endloop
  endfacet
  facet normal 0 0 -1
    outer loop
      vertex 0.650168 0.313103 0.152241
      vertex 0.528993 0.490834 0.152241
      vertex 0.632376 0.431146 0.152241
    endloop
  endfacet
  facet normal 0 0 -1
    outer loop
      vertex 0.360815 -0.624951 0.152241
      vertex 0.528993 -0.490834 0.152241
      vertex 0.477198 -0.598388 0.152241
    endloop
  endfacet
  facet normal -0 0 -1
    outer loop
      vertex 0.528993 -0.490834 0.152241
      vertex 0.360815 -0.624951 0.152241
      vertex 0.528993 0.490834 0.152241
    endloop
  endfacet
  facet normal 0 0 -1
    outer loop
      vertex 0.360815 0.624951 0.152241
      vertex 0.528993 0.490834 0.152241
      vertex 0.360815 -0.624951 0.152241
    endloop
  endfacet
  facet normal 0 0 -1
    outer loop
      vertex 0.528993 0.490834 0.152241
      vertex 0.360815 0.624951 0.152241
      vertex 0.477198 0.598388 0.152241
    endloop
  endfacet
  facet normal 0 0 -1
    outer loop
      vertex 0.160578 -0.703539 0.152241
      vertex 0.360815 -0.624951 0.152241
      vertex 0.279619 -0.71246 0.152241
    endloop
  endfacet
  facet normal -0 0 -1
    outer loop
      vertex 0.360815 -0.624951 0.152241
      vertex 0.160578 -0.703539 0.152241
      vertex 0.360815 0.624951 0.152241
    endloop
  endfacet
  facet normal 0 0 -1
    outer loop
      vertex 0.160578 0.703539 0.152241
      vertex 0.360815 0.624951 0.152241
      vertex 0.160578 -0.703539 0.152241
    endloop
  endfacet
  facet normal 0 0 -1
    outer loop
      vertex 0.360815 0.624951 0.152241
      vertex 0.160578 0.703539 0.152241
      vertex 0.279619 0.71246 0.152241
    endloop
  endfacet
  facet normal 0 0 -1
    outer loop
      vertex -0.0539284 -0.719613 0.152241
      vertex 0.160578 -0.703539 0.152241
      vertex 0.0571957 -0.763227 0.152241
    endloop
  endfacet
  facet normal -0 0 -1
    outer loop
      vertex 0.160578 -0.703539 0.152241
      vertex -0.0539284 -0.719613 0.152241
      vertex 0.160578 0.703539 0.152241
    endloop
  endfacet
  facet normal 0 0 -1
    outer loop
      vertex -0.0539284 0.719613 0.152241
      vertex 0.160578 0.703539 0.152241
      vertex -0.0539284 -0.719613 0.152241
    endloop
  endfacet
  facet normal 0 0 -1
    outer loop
      vertex 0.160578 0.703539 0.152241
      vertex -0.0539284 0.719613 0.152241
      vertex 0.0571957 0.763227 0.152241
    endloop
  endfacet
  facet normal 0 0 -1
    outer loop
      vertex -0.263641 -0.671748 0.152241
      vertex -0.0539284 -0.719613 0.152241
      vertex -0.17031 -0.746177 0.152241
    endloop
  endfacet
  facet normal 0 0 -1
    outer loop
      vertex -0.0539284 -0.719613 0.152241
      vertex -0.263641 -0.671748 0.152241
      vertex -0.0539284 0.719613 0.152241
    endloop
  endfacet
  facet normal 0 0 -1
    outer loop
      vertex -0.263641 0.671748 0.152241
      vertex -0.0539284 0.719613 0.152241
      vertex -0.263641 -0.671748 0.152241
    endloop
  endfacet
  facet normal -0 0 -1
    outer loop
      vertex -0.0539284 0.719613 0.152241
      vertex -0.263641 0.671748 0.152241
      vertex -0.17031 0.746177 0.152241
    endloop
  endfacet
  facet normal 0 0 -1
    outer loop
      vertex -0.449929 -0.564194 0.152241
      vertex -0.263641 -0.671748 0.152241
      vertex -0.382683 -0.662827 0.152241
    endloop
  endfacet
  facet normal 0 0 -1
    outer loop
      vertex -0.263641 -0.671748 0.152241
      vertex -0.449929 -0.564194 0.152241
      vertex -0.263641 0.671748 0.152241
    endloop
  endfacet
  facet normal 0 0 -1
    outer loop
      vertex -0.449929 0.564194 0.152241
      vertex -0.263641 0.671748 0.152241
      vertex -0.449929 -0.564194 0.152241
    endloop
  endfacet
  facet normal 0 0 -1
    outer loop
      vertex -0.263641 0.671748 0.152241
      vertex -0.449929 0.564194 0.152241
      vertex -0.382683 0.662827 0.152241
    endloop
  endfacet
  facet normal 0 0 -1
    outer loop
      vertex -0.59624 -0.406509 0.152241
      vertex -0.449929 -0.564194 0.152241
      vertex -0.561053 -0.520581 0.152241
    endloop
  endfacet
  facet normal 0 0 -1
    outer loop
      vertex -0.449929 -0.564194 0.152241
      vertex -0.59624 -0.406509 0.152241
      vertex -0.449929 0.564194 0.152241
    endloop
  endfacet
  facet normal 0 0 -1
    outer loop
      vertex -0.59624 0.406509 0.152241
      vertex -0.449929 0.564194 0.152241
      vertex -0.59624 -0.406509 0.152241
    endloop
  endfacet
  facet normal 0 0 -1
    outer loop
      vertex -0.449929 0.564194 0.152241
      vertex -0.59624 0.406509 0.152241
      vertex -0.561053 0.520581 0.152241
    endloop
  endfacet
  facet normal 0 0 -1
    outer loop
      vertex -0.689571 -0.212704 0.152241
      vertex -0.59624 -0.406509 0.152241
      vertex -0.689571 -0.33208 0.152241
    endloop
  endfacet
  facet normal 0 0 -1
    outer loop
      vertex -0.59624 -0.406509 0.152241
      vertex -0.689571 -0.212704 0.152241
      vertex -0.59624 0.406509 0.152241
    endloop
  endfacet
  facet normal 0 0 -1
    outer loop
      vertex -0.689571 0.212704 0.152241
      vertex -0.59624 0.406509 0.152241
      vertex -0.689571 -0.212704 0.152241
    endloop
  endfacet
  facet normal 0 0 -1
    outer loop
      vertex -0.59624 0.406509 0.152241
      vertex -0.689571 0.212704 0.152241
      vertex -0.689571 0.33208 0.152241
    endloop
  endfacet
  facet normal 0 0 -1
    outer loop
      vertex -0.689571 -0.212704 0.152241
      vertex -0.721631 0 0.152241
      vertex -0.689571 0.212704 0.152241
    endloop
  endfacet
  facet normal 0 -0 -1
    outer loop
      vertex -0.721631 0 0.152241
      vertex -0.689571 -0.212704 0.152241
      vertex -0.756818 -0.114072 0.152241
    endloop
  endfacet
  facet normal 0 0 -1
    outer loop
      vertex -0.689571 0.212704 0.152241
      vertex -0.721631 0 0.152241
      vertex -0.756818 0.114072 0.152241
    endloop
  endfacet
  facet normal -0.347818 -0.624513 -0.69929
    outer loop
      vertex -0.806315 -0.438645 0.193936
      vertex -34.8757 18.4123 0.304482
      vertex -0.767264 -0.41664 0.154859
    endloop
  endfacet
  facet normal -0.347818 -0.624513 -0.699289
    outer loop
      vertex -34.8757 18.4123 0.304482
      vertex -0.806315 -0.438645 0.193936
      vertex -35.5138 16.3437 2.46927
    endloop
  endfacet
  facet normal -0.347825 -0.624526 -0.699275
    outer loop
      vertex -0.174427 -0.744186 0.152511
      vertex -0.224721 -0.71614 0.152479
      vertex -0.17031 -0.746177 0.152241
    endloop
  endfacet
  facet normal -0.00251532 0.00315411 -0.999992
    outer loop
      vertex -0.382819 0.663062 0.152513
      vertex -0.17031 0.746177 0.152241
      vertex -0.263641 0.671748 0.152241
    endloop
  endfacet
  facet normal -0.00251526 0.00315406 -0.999992
    outer loop
      vertex -0.507835 0.552684 0.152479
      vertex -0.382819 0.663062 0.152513
      vertex -0.443895 0.573273 0.152384
    endloop
  endfacet
  facet normal -0.00251488 0.00315363 -0.999992
    outer loop
      vertex -0.557271 0.523151 0.152511
      vertex -0.382819 0.663062 0.152513
      vertex -0.507835 0.552684 0.152479
    endloop
  endfacet
  facet normal -0.00252437 0.00316547 -0.999992
    outer loop
      vertex -0.561253 0.520766 0.152513
      vertex -0.382819 0.663062 0.152513
      vertex -0.557271 0.523151 0.152511
    endloop
  endfacet
  facet normal -0.00251525 0.00315403 -0.999992
    outer loop
      vertex -0.689571 0.33208 0.152241
      vertex -0.561371 0.520382 0.152512
      vertex -0.59624 0.406509 0.152241
    endloop
  endfacet
  facet normal -0.00255947 0.00318413 -0.999992
    outer loop
      vertex -0.561371 0.520382 0.152512
      vertex -0.689571 0.33208 0.152241
      vertex -0.561253 0.520766 0.152513
    endloop
  endfacet
  facet normal -0.00251528 0.003154 -0.999992
    outer loop
      vertex -0.382819 0.663062 0.152513
      vertex -35.7502 20.6404 0.304482
      vertex -0.17031 0.746177 0.152241
    endloop
  endfacet
  facet normal -0.00251526 0.00315404 -0.999992
    outer loop
      vertex -0.561253 0.520766 0.152513
      vertex -35.7502 20.6404 0.304482
      vertex -0.382819 0.663062 0.152513
    endloop
  endfacet
  facet normal -0.00251525 0.00315406 -0.999992
    outer loop
      vertex -35.7502 20.6404 0.304482
      vertex -0.561253 0.520766 0.152513
      vertex -0.689571 0.33208 0.152241
    endloop
  endfacet
  facet normal 0.574781 -0.209203 0.791113
    outer loop
      vertex 49.618 0 99.1756
      vertex 48.4734 -0.397264 99.9021
      vertex 49.2395 -1.04005 99.1756
    endloop
  endfacet
  facet normal -0.00432982 0 -0.999991
    outer loop
      vertex -0.689571 -0.33208 0.152241
      vertex -0.756863 -0.114472 0.152532
      vertex -0.689571 -0.212704 0.152241
    endloop
  endfacet
  facet normal -0.00433452 -1.45204e-006 -0.999991
    outer loop
      vertex -0.689571 -0.33208 0.152241
      vertex -0.757107 -0.114115 0.152533
      vertex -0.756863 -0.114472 0.152532
    endloop
  endfacet
  facet normal -0.00433217 3.28849e-008 -0.999991
    outer loop
      vertex -0.757107 -0.114115 0.152533
      vertex -0.758255 0.0368645 0.152538
      vertex -0.75767 0.0350135 0.152536
    endloop
  endfacet
  facet normal -0.00432989 5.02035e-008 -0.999991
    outer loop
      vertex -0.757107 -0.114115 0.152533
      vertex -35.8494 19.3158 0.304482
      vertex -0.758255 0.0368645 0.152538
    endloop
  endfacet
  facet normal -0.00432994 -3.28159e-008 -0.999991
    outer loop
      vertex -35.8494 19.3158 0.304482
      vertex -0.757107 -0.114115 0.152533
      vertex -0.689571 -0.33208 0.152241
    endloop
  endfacet
  facet normal -0.00432965 4.23882e-008 -0.999991
    outer loop
      vertex -0.729022 -0.0234393 0.152412
      vertex -0.757107 -0.114115 0.152533
      vertex -0.75767 0.0350135 0.152536
    endloop
  endfacet
  facet normal -0.00432982 0 -0.999991
    outer loop
      vertex -0.756863 0.114472 0.152532
      vertex -0.689571 0.33208 0.152241
      vertex -0.689571 0.212704 0.152241
    endloop
  endfacet
  facet normal -0.00433452 1.45204e-006 -0.999991
    outer loop
      vertex -0.757107 0.114115 0.152533
      vertex -0.689571 0.33208 0.152241
      vertex -0.756863 0.114472 0.152532
    endloop
  endfacet
  facet normal -0.00432991 2.32452e-008 -0.999991
    outer loop
      vertex -0.757107 0.114115 0.152533
      vertex -35.8494 19.3158 0.304482
      vertex -0.689571 0.33208 0.152241
    endloop
  endfacet
  facet normal -0.00432997 -9.69174e-008 -0.999991
    outer loop
      vertex -35.8494 19.3158 0.304482
      vertex -0.757107 0.114115 0.152533
      vertex -0.758255 0.0368645 0.152538
    endloop
  endfacet
  facet normal 0.574781 -0.209203 0.791113
    outer loop
      vertex 48.618 0 99.9021
      vertex 48.4734 -0.397264 99.9021
      vertex 49.618 0 99.1756
    endloop
  endfacet
  facet normal 0.574781 0.209203 0.791113
    outer loop
      vertex 49.618 0 99.1756
      vertex 48.4734 0.397264 99.9021
      vertex 48.618 0 99.9021
    endloop
  endfacet
  facet normal -0.611669 0 0.791114
    outer loop
      vertex -25.5205 42.1226 99.1756
      vertex -24.5808 -41.7806 99.9021
      vertex -24.5808 41.7806 99.9021
    endloop
  endfacet
  facet normal -0.611669 0 0.791114
    outer loop
      vertex -24.5808 -41.7806 99.9021
      vertex -25.5205 42.1226 99.1756
      vertex -25.5205 -42.1226 99.1756
    endloop
  endfacet
  facet normal -0.732655 0.61477 0.292016
    outer loop
      vertex -24.809 42.9705 99.1756
      vertex -25.8794 42.2533 98
      vertex -25.5205 42.1226 99.1756
    endloop
  endfacet
  facet normal -0.0142491 -0.0178679 -0.999739
    outer loop
      vertex -0.762107 -0.376638 0.154071
      vertex -0.689571 -0.33208 0.152241
      vertex -0.59624 -0.406509 0.152241
    endloop
  endfacet
  facet normal -0.0142475 -0.0178705 -0.999739
    outer loop
      vertex -0.765957 -0.377002 0.154132
      vertex -0.689571 -0.33208 0.152241
      vertex -0.762107 -0.376638 0.154071
    endloop
  endfacet
  facet normal -0.0142491 -0.0178678 -0.999739
    outer loop
      vertex -0.765957 -0.377002 0.154132
      vertex -34.8757 18.4123 0.304482
      vertex -0.689571 -0.33208 0.152241
    endloop
  endfacet
  facet normal -0.014249 -0.0178677 -0.999739
    outer loop
      vertex -34.8757 18.4123 0.304482
      vertex -0.765957 -0.377002 0.154132
      vertex -0.767264 -0.41664 0.154859
    endloop
  endfacet
  facet normal -0.0142494 -0.0178682 -0.999739
    outer loop
      vertex -0.224721 -0.71614 0.152479
      vertex -0.263641 -0.671748 0.152241
      vertex -0.17031 -0.746177 0.152241
    endloop
  endfacet
  facet normal -0.0142496 -0.0178683 -0.999739
    outer loop
      vertex -0.263641 -0.671748 0.152241
      vertex -0.224721 -0.71614 0.152479
      vertex -0.27452 -0.671061 0.152384
    endloop
  endfacet
  facet normal -0.010885 -0.0117313 -0.999872
    outer loop
      vertex -34.8757 18.4123 0.304482
      vertex -35.8494 19.3158 0.304482
      vertex -0.689571 -0.33208 0.152241
    endloop
  endfacet
  facet normal -0.106213 0.602377 0.791113
    outer loop
      vertex -23.719 43.1627 99.1756
      vertex -24.309 42.1045 99.9021
      vertex -23.8927 42.1779 99.9021
    endloop
  endfacet
  facet normal 0 0 1
    outer loop
      vertex 48.4734 0.397264 99.9021
      vertex 48.4734 -0.397264 99.9021
      vertex 48.618 0 99.9021
    endloop
  endfacet
  facet normal 0 0 1
    outer loop
      vertex 48.4734 0.397264 99.9021
      vertex 46.7639 0 99.9021
      vertex 48.4734 -0.397264 99.9021
    endloop
  endfacet
  facet normal 0 0 1
    outer loop
      vertex -23.5266 41.9665 99.9021
      vertex 46.7639 0 99.9021
      vertex 48.4734 0.397264 99.9021
    endloop
  endfacet
  facet normal -0 0 1
    outer loop
      vertex -24.5808 41.7806 99.9021
      vertex -23.382 40.4988 99.9021
      vertex -23.5266 41.9665 99.9021
    endloop
  endfacet
  facet normal 0 0 1
    outer loop
      vertex 46.7639 0 99.9021
      vertex -23.5266 41.9665 99.9021
      vertex -23.382 40.4988 99.9021
    endloop
  endfacet
  facet normal 0 0 1
    outer loop
      vertex -23.5266 -41.9665 99.9021
      vertex 46.7639 0 99.9021
      vertex -23.382 -40.4988 99.9021
    endloop
  endfacet
  facet normal 0 0 1
    outer loop
      vertex 46.7639 0 99.9021
      vertex -23.5266 -41.9665 99.9021
      vertex 48.4734 -0.397264 99.9021
    endloop
  endfacet
  facet normal 0 0 1
    outer loop
      vertex -23.382 40.4988 99.9021
      vertex -24.5808 41.7806 99.9021
      vertex -23.382 -40.4988 99.9021
    endloop
  endfacet
  facet normal 0 0 1
    outer loop
      vertex -24.5808 41.7806 99.9021
      vertex -23.5266 41.9665 99.9021
      vertex -23.8927 42.1779 99.9021
    endloop
  endfacet
  facet normal 0 0 1
    outer loop
      vertex -24.5808 -41.7806 99.9021
      vertex -23.382 -40.4988 99.9021
      vertex -24.5808 41.7806 99.9021
    endloop
  endfacet
  facet normal 0 0 1
    outer loop
      vertex -24.5808 41.7806 99.9021
      vertex -23.8927 42.1779 99.9021
      vertex -24.309 42.1045 99.9021
    endloop
  endfacet
  facet normal 0 0 1
    outer loop
      vertex -23.382 -40.4988 99.9021
      vertex -24.5808 -41.7806 99.9021
      vertex -23.5266 -41.9665 99.9021
    endloop
  endfacet
  facet normal 0 0 1
    outer loop
      vertex -23.5266 -41.9665 99.9021
      vertex -24.5808 -41.7806 99.9021
      vertex -23.8927 -42.1779 99.9021
    endloop
  endfacet
  facet normal 0 0 1
    outer loop
      vertex -23.8927 -42.1779 99.9021
      vertex -24.5808 -41.7806 99.9021
      vertex -24.309 -42.1045 99.9021
    endloop
  endfacet
  facet normal -0.46857 0.393171 0.791112
    outer loop
      vertex -24.309 42.1045 99.9021
      vertex -24.809 42.9705 99.1756
      vertex -24.5808 41.7806 99.9021
    endloop
  endfacet
  facet normal -0.0116823 -0.00360351 -0.999925
    outer loop
      vertex -0.561053 -0.520581 0.152241
      vertex -0.762107 -0.376638 0.154071
      vertex -0.59624 -0.406509 0.152241
    endloop
  endfacet
  facet normal -0.0116823 -0.00360351 -0.999925
    outer loop
      vertex -0.762107 -0.376638 0.154071
      vertex -0.561053 -0.520581 0.152241
      vertex -1.19678 -40.7044 0.304482
    endloop
  endfacet
  facet normal -0.0116824 -0.00360367 -0.999925
    outer loop
      vertex -0.75767 0.0350135 0.152536
      vertex -0.721631 0 0.152241
      vertex -0.729022 -0.0234393 0.152412
    endloop
  endfacet
  facet normal -0.0116823 -0.00360351 -0.999925
    outer loop
      vertex -0.721631 0 0.152241
      vertex -0.75767 0.0350135 0.152536
      vertex -0.756818 0.114072 0.152241
    endloop
  endfacet
  facet normal -0.714835 0.0103585 -0.699216
    outer loop
      vertex -1.49235 -39.4094 0.304482
      vertex -1.88612 -1.02708 1.27565
      vertex -1.81646 -0.988178 1.20502
    endloop
  endfacet
  facet normal -0.714834 0.0103585 -0.699217
    outer loop
      vertex -1.88612 -1.02708 1.27565
      vertex -1.49235 -39.4094 0.304482
      vertex -3.60286 -38.9277 2.46927
    endloop
  endfacet
  facet normal 0.942729 -0.215174 0.254876
    outer loop
      vertex 2.88927 -42.0541 5.53073
      vertex -21.2981 -41.4968 95.4649
      vertex -21.3642 -41.5816 95.638
    endloop
  endfacet
  facet normal 0.94273 -0.215172 0.254876
    outer loop
      vertex -21.2981 -41.4968 95.4649
      vertex 2.88927 -42.0541 5.53073
      vertex 3.60286 -38.9277 5.53073
    endloop
  endfacet
  facet normal -0.322348 -0.669362 -0.669363
    outer loop
      vertex 0 -43.4455 2.46927
      vertex -2.88927 -42.0541 2.46927
      vertex 0 -41.2807 0.304482
    endloop
  endfacet
  facet normal 0.495853 -0.858841 0.128537
    outer loop
      vertex -22.4679 -42.8548 98
      vertex -23.6527 -43.5388 98
      vertex 2.88927 -42.0541 5.53073
    endloop
  endfacet
  facet normal 0.957697 -0.117168 0.262845
    outer loop
      vertex -22.7605 -42.6093 99.1756
      vertex -22.4679 -42.8548 98
      vertex -22.4726 -42.8508 98.019
    endloop
  endfacet
  facet normal 0.544582 0.505339 -0.669376
    outer loop
      vertex 0.731363 0.225595 0.152241
      vertex 0.731349 0.22597 0.152512
      vertex 0.731624 0.225676 0.152513
    endloop
  endfacet
  facet normal -0.966113 0.0357103 -0.255636
    outer loop
      vertex -1.88612 -1.02708 1.27565
      vertex -3.60286 -38.9277 2.46927
      vertex -1.8894 -1.03731 1.28663
    endloop
  endfacet
  facet normal -0.966114 0.0357105 -0.255632
    outer loop
      vertex -10.1088 10.7784 34.0009
      vertex -3.60286 -38.9277 2.46927
      vertex -24.754 38.1523 93.1741
    endloop
  endfacet
  facet normal -0.966114 0.0357105 -0.255632
    outer loop
      vertex -2.31222 -0.818746 2.91513
      vertex -3.60286 -38.9277 2.46927
      vertex -10.1088 10.7784 34.0009
    endloop
  endfacet
  facet normal -0.966114 0.0357105 -0.255632
    outer loop
      vertex -3.60286 -38.9277 2.46927
      vertex -2.31222 -0.818746 2.91513
      vertex -1.8894 -1.03731 1.28663
    endloop
  endfacet
  facet normal 0.974281 0.0605528 0.217046
    outer loop
      vertex 1.86516 -1.59307 2.91513
      vertex -4.27995 -14.1436 34.0009
      vertex 3.60286 -38.9277 5.53073
    endloop
  endfacet
  facet normal 0.974281 0.0605528 0.217046
    outer loop
      vertex -6.64619 10.0198 37.8813
      vertex -5.35434 -10.7657 37.8813
      vertex 9.72016e-008 5.16192e-008 10.8431
    endloop
  endfacet
  facet normal 0.974281 0.0605528 0.217046
    outer loop
      vertex -5.35434 -10.7657 37.8813
      vertex -6.64619 10.0198 37.8813
      vertex -19.5467 33.8558 89.1394
    endloop
  endfacet
  facet normal 0.433885 -0.900968 0
    outer loop
      vertex 0 -43.4455 2.46927
      vertex 2.88927 -42.0541 5.53073
      vertex 0 -43.4455 5.53073
    endloop
  endfacet
  facet normal 0.433885 -0.900968 0
    outer loop
      vertex 2.88927 -42.0541 5.53073
      vertex 0 -43.4455 2.46927
      vertex 2.88927 -42.0541 2.46927
    endloop
  endfacet
  facet normal 0.998919 0.0464936 -0
    outer loop
      vertex 3.60286 -38.9277 2.46927
      vertex 1.86516 -1.59307 2.91513
      vertex 3.60286 -38.9277 5.53073
    endloop
  endfacet
  facet normal 0.998919 0.0464936 -2.67985e-008
    outer loop
      vertex 1.86516 -1.59307 2.91513
      vertex 3.60286 -38.9277 2.46927
      vertex 1.84304 -1.11761 1.28663
    endloop
  endfacet
  facet normal -0.322348 -0.669363 -0.669362
    outer loop
      vertex 0 -41.2807 0.304482
      vertex -2.88927 -42.0541 2.46927
      vertex -1.19678 -40.7044 0.304482
    endloop
  endfacet
  facet normal 0.910615 -0.331436 0.246841
    outer loop
      vertex -22.4679 -42.8548 98
      vertex 2.88927 -42.0541 5.53073
      vertex -21.3642 -41.5816 95.638
    endloop
  endfacet
  facet normal 0.72118 0.0119016 -0.692645
    outer loop
      vertex 1.84304 -1.11761 1.28663
      vertex 3.60286 -38.9277 2.46927
      vertex 1.83253 -1.11989 1.27565
    endloop
  endfacet
  facet normal 0.721179 0.0119015 -0.692647
    outer loop
      vertex 1.76402 -1.07901 1.20502
      vertex 3.60286 -38.9277 2.46927
      vertex 0.783036 -0.478966 0.193936
    endloop
  endfacet
  facet normal 0.721179 0.0119016 -0.692647
    outer loop
      vertex 3.60286 -38.9277 2.46927
      vertex 1.76402 -1.07901 1.20502
      vertex 1.83253 -1.11989 1.27565
    endloop
  endfacet
  facet normal 0.721158 0.0118962 -0.692668
    outer loop
      vertex 0.731698 0.221035 0.152511
      vertex 0.731363 0.225595 0.152241
      vertex 0.731624 0.225676 0.152513
    endloop
  endfacet
  facet normal 0.724309 -0.165319 -0.669362
    outer loop
      vertex 2.88927 -42.0541 2.46927
      vertex 1.19678 -40.7044 0.304482
      vertex 3.60286 -38.9277 2.46927
    endloop
  endfacet
  facet normal -0.43118 -0.895352 -0.111486
    outer loop
      vertex 0 -43.4455 2.46927
      vertex -25 -43.3013 98
      vertex -2.88927 -42.0541 2.46927
    endloop
  endfacet
  facet normal 0.724309 -0.165319 -0.669362
    outer loop
      vertex 3.60286 -38.9277 2.46927
      vertex 1.19678 -40.7044 0.304482
      vertex 1.49235 -39.4094 0.304482
    endloop
  endfacet
  facet normal -0.710259 0.0105067 -0.703862
    outer loop
      vertex -0.756818 0.114072 0.152241
      vertex -0.758255 0.0368645 0.152538
      vertex -0.757107 0.114115 0.152533
    endloop
  endfacet
  facet normal -0.710244 0.0105065 -0.703877
    outer loop
      vertex -0.806315 -0.438645 0.193936
      vertex -1.49235 -39.4094 0.304482
      vertex -1.81646 -0.988178 1.20502
    endloop
  endfacet
  facet normal -0.710244 0.0105065 -0.703878
    outer loop
      vertex -0.767264 -0.41664 0.154859
      vertex -1.49235 -39.4094 0.304482
      vertex -0.806315 -0.438645 0.193936
    endloop
  endfacet
  facet normal -0.710249 0.0105066 -0.703872
    outer loop
      vertex -1.49235 -39.4094 0.304482
      vertex -0.767264 -0.41664 0.154859
      vertex -0.765957 -0.377002 0.154132
    endloop
  endfacet
  facet normal -0.724309 -0.165319 -0.669362
    outer loop
      vertex -1.19678 -40.7044 0.304482
      vertex -3.60286 -38.9277 2.46927
      vertex -1.49235 -39.4094 0.304482
    endloop
  endfacet
  facet normal -0.015602 -0.00356106 -0.999872
    outer loop
      vertex -1.49235 -39.4094 0.304482
      vertex -0.762107 -0.376638 0.154071
      vertex -1.19678 -40.7044 0.304482
    endloop
  endfacet
  facet normal -0.0156007 -0.00356108 -0.999872
    outer loop
      vertex -0.762107 -0.376638 0.154071
      vertex -1.49235 -39.4094 0.304482
      vertex -0.765957 -0.377002 0.154132
    endloop
  endfacet
  facet normal -0.0156043 -0.00356104 -0.999872
    outer loop
      vertex -0.75767 0.0350135 0.152536
      vertex -0.758255 0.0368645 0.152538
      vertex -0.756818 0.114072 0.152241
    endloop
  endfacet
  facet normal 0.974928 -0.222521 0
    outer loop
      vertex 2.88927 -42.0541 5.53073
      vertex 3.60286 -38.9277 2.46927
      vertex 3.60286 -38.9277 5.53073
    endloop
  endfacet
  facet normal 0.974928 -0.222521 0
    outer loop
      vertex 3.60286 -38.9277 2.46927
      vertex 2.88927 -42.0541 5.53073
      vertex 2.88927 -42.0541 2.46927
    endloop
  endfacet
  facet normal -0.973873 -5.9564e-009 -0.227094
    outer loop
      vertex -25.8794 -42.2533 98
      vertex -24.754 38.1523 93.1741
      vertex -3.60286 -38.9277 2.46927
    endloop
  endfacet
  facet normal -0.973873 -2.15407e-008 -0.227095
    outer loop
      vertex -24.754 38.1523 93.1741
      vertex -25.8794 -42.2533 98
      vertex -25.2882 39.1931 95.4649
    endloop
  endfacet
  facet normal -0.973873 2.48302e-008 -0.227093
    outer loop
      vertex -25.2882 39.1931 95.4649
      vertex -25.8794 -42.2533 98
      vertex -25.3286 39.2928 95.638
    endloop
  endfacet
  facet normal -0.973873 0 -0.227094
    outer loop
      vertex -25.3286 39.2928 95.638
      vertex -25.8794 -42.2533 98
      vertex -25.8794 40.8852 98
    endloop
  endfacet
  facet normal -0.106215 -0.602378 0.791113
    outer loop
      vertex -24.309 -42.1045 99.9021
      vertex -24.809 -42.9705 99.1756
      vertex -23.719 -43.1627 99.1756
    endloop
  endfacet
  facet normal -0.17348 -0.983858 -0.0439134
    outer loop
      vertex -23.6527 -43.5388 98
      vertex -25 -43.3013 98
      vertex 0 -43.4455 2.46927
    endloop
  endfacet
  facet normal -0.166078 -0.941883 0.292016
    outer loop
      vertex -24.809 -42.9705 99.1756
      vertex -25 -43.3013 98
      vertex -23.719 -43.1627 99.1756
    endloop
  endfacet
  facet normal 0.963741 1.41116e-008 0.26684
    outer loop
      vertex -20.6638 -40.5138 93.1741
      vertex 3.60286 -38.9277 5.53073
      vertex -4.27995 -14.1436 34.0009
    endloop
  endfacet
  facet normal 0.963741 -3.6239e-007 0.26684
    outer loop
      vertex 3.60286 -38.9277 5.53073
      vertex -20.6638 -40.5138 93.1741
      vertex -21.2981 -41.4968 95.4649
    endloop
  endfacet
  facet normal 0.963741 -0 0.26684
    outer loop
      vertex -19.5467 -33.8558 89.1394
      vertex -19.5467 33.8558 89.1394
      vertex -22 38.1051 98
    endloop
  endfacet
  facet normal 0.963741 0 0.26684
    outer loop
      vertex -19.5467 33.8558 89.1394
      vertex -19.5467 -33.8558 89.1394
      vertex -5.35434 -10.7657 37.8813
    endloop
  endfacet
  facet normal 0.963741 0 0.26684
    outer loop
      vertex -19.5467 -33.8558 89.1394
      vertex -22 38.1051 98
      vertex -22 -38.1051 98
    endloop
  endfacet
  facet normal 0.951053 0 0.309029
    outer loop
      vertex -22.0158 38.1325 98.0486
      vertex -22 -38.1051 98
      vertex -22 38.1051 98
    endloop
  endfacet
  facet normal 0.951053 0 0.309029
    outer loop
      vertex -22.0158 38.1325 98.0486
      vertex -22.0158 -38.1325 98.0486
      vertex -22 -38.1051 98
    endloop
  endfacet
  facet normal 0.951057 -0 0.309015
    outer loop
      vertex -22.0158 -38.1325 98.0486
      vertex -22.0158 38.1325 98.0486
      vertex -22.369 -38.7442 99.1356
    endloop
  endfacet
  facet normal 0.951057 2.77031e-008 0.309017
    outer loop
      vertex -22.382 38.7667 99.1756
      vertex -22.369 -38.7442 99.1356
      vertex -22.0158 38.1325 98.0486
    endloop
  endfacet
  facet normal 0.951041 0 0.309066
    outer loop
      vertex -22.369 -38.7442 99.1356
      vertex -22.382 38.7667 99.1756
      vertex -22.382 -38.7667 99.1756
    endloop
  endfacet
  facet normal -0.613845 0.418534 -0.669346
    outer loop
      vertex -0.756818 0.114072 0.152241
      vertex -0.757107 0.114115 0.152533
      vertex -0.756863 0.114472 0.152532
    endloop
  endfacet
  facet normal -0.724309 -0.165319 -0.669362
    outer loop
      vertex -2.88927 -42.0541 2.46927
      vertex -3.60286 -38.9277 2.46927
      vertex -1.19678 -40.7044 0.304482
    endloop
  endfacet
  facet normal 0.43128 -0.895559 0.109413
    outer loop
      vertex 2.88927 -42.0541 5.53073
      vertex -23.6527 -43.5388 98
      vertex 0 -43.4455 5.53073
    endloop
  endfacet
  facet normal 0.00394519 -0.999992 0
    outer loop
      vertex 0 -43.4455 5.53073
      vertex -23.6527 -43.5388 98
      vertex 0 -43.4455 2.46927
    endloop
  endfacet
  facet normal -0.00181068 -0.00375993 -0.999991
    outer loop
      vertex 0 -41.2807 0.304482
      vertex -1.19678 -40.7044 0.304482
      vertex -0.561053 -0.520581 0.152241
    endloop
  endfacet
  facet normal 0.544613 0.505327 -0.669358
    outer loop
      vertex 0.731363 0.225595 0.152241
      vertex 0.650168 0.313103 0.152241
      vertex 0.731349 0.22597 0.152512
    endloop
  endfacet
  facet normal 0.544612 0.505327 -0.66936
    outer loop
      vertex 0.279619 0.71246 0.152241
      vertex 0.344212 0.643072 0.152412
      vertex 0.360815 0.624951 0.152241
    endloop
  endfacet
  facet normal 0.5446 0.505315 -0.669378
    outer loop
      vertex 0.344212 0.643072 0.152412
      vertex 0.279619 0.71246 0.152241
      vertex 0.279726 0.712732 0.152533
    endloop
  endfacet
  facet normal 0.322348 -0.669363 -0.669362
    outer loop
      vertex 2.88927 -42.0541 2.46927
      vertex 0 -41.2807 0.304482
      vertex 1.19678 -40.7044 0.304482
    endloop
  endfacet
  facet normal 0.322348 -0.669362 -0.669363
    outer loop
      vertex 2.88927 -42.0541 2.46927
      vertex 0 -43.4455 2.46927
      vertex 0 -41.2807 0.304482
    endloop
  endfacet
  facet normal -0.753169 -0.631983 -0.182573
    outer loop
      vertex -25 -43.3013 98
      vertex -25.8794 -42.2533 98
      vertex -2.88927 -42.0541 2.46927
    endloop
  endfacet
  facet normal -0.949055 -0.216616 -0.228848
    outer loop
      vertex -2.88927 -42.0541 2.46927
      vertex -25.8794 -42.2533 98
      vertex -3.60286 -38.9277 2.46927
    endloop
  endfacet
  facet normal -0.732656 -0.61477 0.292016
    outer loop
      vertex -25.5205 -42.1226 99.1756
      vertex -25.8794 -42.2533 98
      vertex -25 -43.3013 98
    endloop
  endfacet
  facet normal -0.166079 -0.941883 0.292017
    outer loop
      vertex -23.719 -43.1627 99.1756
      vertex -25 -43.3013 98
      vertex -23.6527 -43.5388 98
    endloop
  endfacet
  facet normal 0.587788 0 0.809015
    outer loop
      vertex -23.382 40.4988 99.9021
      vertex -22.382 -38.7667 99.1756
      vertex -22.382 38.7667 99.1756
    endloop
  endfacet
  facet normal 0.587788 0 0.809015
    outer loop
      vertex -22.382 -38.7667 99.1756
      vertex -23.382 40.4988 99.9021
      vertex -23.382 -40.4988 99.9021
    endloop
  endfacet
  facet normal 0.00216501 -0.00374982 -0.999991
    outer loop
      vertex 0.47738 -0.598616 0.152533
      vertex 0.632376 -0.431146 0.152241
      vertex 1.19678 -40.7044 0.304482
    endloop
  endfacet
  facet normal 0.00216491 -0.00374973 -0.999991
    outer loop
      vertex 0.632376 -0.431146 0.152241
      vertex 0.47738 -0.598616 0.152533
      vertex 0.528993 -0.490834 0.152241
    endloop
  endfacet
  facet normal 0.0021649 -0.00374982 -0.999991
    outer loop
      vertex 0.347201 -0.6751 0.152538
      vertex 0.47738 -0.598616 0.152533
      vertex 1.19678 -40.7044 0.304482
    endloop
  endfacet
  facet normal 0.00215401 -0.0037313 -0.999991
    outer loop
      vertex 0.47738 -0.598616 0.152533
      vertex 0.347201 -0.6751 0.152538
      vertex 0.476958 -0.598712 0.152533
    endloop
  endfacet
  facet normal 0.00216482 -0.00374963 -0.999991
    outer loop
      vertex 0.476958 -0.598712 0.152533
      vertex 0.348512 -0.673668 0.152536
      vertex 0.38481 -0.619632 0.152412
    endloop
  endfacet
  facet normal 0.00216623 -0.00375205 -0.999991
    outer loop
      vertex 0.476958 -0.598712 0.152533
      vertex 0.347201 -0.6751 0.152538
      vertex 0.348512 -0.673668 0.152536
    endloop
  endfacet
  facet normal 0.00216507 -0.00374982 -0.999991
    outer loop
      vertex 1.19678 -40.7044 0.304482
      vertex 0.279726 -0.712732 0.152533
      vertex 0.347201 -0.6751 0.152538
    endloop
  endfacet
  facet normal 0.00216493 -0.00374982 -0.999991
    outer loop
      vertex 0.0571957 -0.763227 0.152241
      vertex 0.279726 -0.712732 0.152533
      vertex 1.19678 -40.7044 0.304482
    endloop
  endfacet
  facet normal 0.00216589 -0.00375404 -0.999991
    outer loop
      vertex 0.279726 -0.712732 0.152533
      vertex 0.0571957 -0.763227 0.152241
      vertex 0.279295 -0.712699 0.152532
    endloop
  endfacet
  facet normal 0.00216491 -0.00374973 -0.999991
    outer loop
      vertex 0.279295 -0.712699 0.152532
      vertex 0.0571957 -0.763227 0.152241
      vertex 0.160578 -0.703539 0.152241
    endloop
  endfacet
  facet normal 0.714754 0.0110372 -0.699289
    outer loop
      vertex 1.49235 -39.4094 0.304482
      vertex 0.783036 -0.478966 0.193936
      vertex 3.60286 -38.9277 2.46927
    endloop
  endfacet
  facet normal 0.714753 0.0110372 -0.69929
    outer loop
      vertex 0.783036 -0.478966 0.193936
      vertex 1.49235 -39.4094 0.304482
      vertex 0.744453 -0.45615 0.154859
    endloop
  endfacet
  facet normal 0.714779 0.0110381 -0.699263
    outer loop
      vertex 0.732556 0.163456 0.152479
      vertex 0.731363 0.225595 0.152241
      vertex 0.731698 0.221035 0.152511
    endloop
  endfacet
  facet normal -0.0555211 0.740872 -0.669348
    outer loop
      vertex 0.279619 0.71246 0.152241
      vertex 0.160578 0.703539 0.152241
      vertex 0.279295 0.712699 0.152532
    endloop
  endfacet
  facet normal -0.055523 0.7409 -0.669317
    outer loop
      vertex -0.382683 0.662827 0.152241
      vertex -0.382819 0.663062 0.152513
      vertex -0.263641 0.671748 0.152241
    endloop
  endfacet
  facet normal -0.05555 0.740854 -0.669365
    outer loop
      vertex 0.279619 0.71246 0.152241
      vertex 0.279295 0.712699 0.152532
      vertex 0.279726 0.712732 0.152533
    endloop
  endfacet
  facet normal 0.015602 -0.00356106 -0.999872
    outer loop
      vertex 1.19678 -40.7044 0.304482
      vertex 0.632376 -0.431146 0.152241
      vertex 1.49235 -39.4094 0.304482
    endloop
  endfacet
  facet normal 0.478204 -0.828279 0.292019
    outer loop
      vertex -22.7605 -42.6093 99.1756
      vertex -23.719 -43.1627 99.1756
      vertex -23.6527 -43.5388 98
    endloop
  endfacet
  facet normal 0.478207 -0.828278 0.292016
    outer loop
      vertex -22.7605 -42.6093 99.1756
      vertex -23.6527 -43.5388 98
      vertex -22.4679 -42.8548 98
    endloop
  endfacet
  facet normal -0.468566 -0.393173 0.791114
    outer loop
      vertex -24.5808 -41.7806 99.9021
      vertex -25.5205 -42.1226 99.1756
      vertex -24.809 -42.9705 99.1756
    endloop
  endfacet
  facet normal -0.732655 -0.61477 0.292017
    outer loop
      vertex -24.809 -42.9705 99.1756
      vertex -25.5205 -42.1226 99.1756
      vertex -25 -43.3013 98
    endloop
  endfacet
  facet normal -0.613862 0.418524 -0.669336
    outer loop
      vertex -0.756818 0.114072 0.152241
      vertex -0.756863 0.114472 0.152532
      vertex -0.689571 0.212704 0.152241
    endloop
  endfacet
  facet normal -0.613855 0.41852 -0.669345
    outer loop
      vertex -0.382683 0.662827 0.152241
      vertex -0.443895 0.573273 0.152384
      vertex -0.382819 0.663062 0.152513
    endloop
  endfacet
  facet normal -0.613818 0.418494 -0.669396
    outer loop
      vertex -0.443895 0.573273 0.152384
      vertex -0.382683 0.662827 0.152241
      vertex -0.449929 0.564194 0.152241
    endloop
  endfacet
  facet normal 0.00181068 -0.00375993 -0.999991
    outer loop
      vertex 1.19678 -40.7044 0.304482
      vertex 0 -41.2807 0.304482
      vertex 0.0571957 -0.763227 0.152241
    endloop
  endfacet
  facet normal -0.00147382 -0.0037553 -0.999992
    outer loop
      vertex -0.170371 -0.746442 0.152513
      vertex 0.0571957 -0.763227 0.152241
      vertex 0 -41.2807 0.304482
    endloop
  endfacet
  facet normal -0.00147381 -0.0037552 -0.999992
    outer loop
      vertex 0.0571957 -0.763227 0.152241
      vertex -0.170371 -0.746442 0.152513
      vertex -0.0539284 -0.719613 0.152241
    endloop
  endfacet
  facet normal -0.00147392 -0.0037553 -0.999992
    outer loop
      vertex -0.382819 -0.663062 0.152513
      vertex -0.170371 -0.746442 0.152513
      vertex 0 -41.2807 0.304482
    endloop
  endfacet
  facet normal -0.00147062 -0.0037469 -0.999992
    outer loop
      vertex -0.170371 -0.746442 0.152513
      vertex -0.382819 -0.663062 0.152513
      vertex -0.174427 -0.744186 0.152511
    endloop
  endfacet
  facet normal -0.00147367 -0.00375474 -0.999992
    outer loop
      vertex -0.174427 -0.744186 0.152511
      vertex -0.382819 -0.663062 0.152513
      vertex -0.224721 -0.71614 0.152479
    endloop
  endfacet
  facet normal -0.00147387 -0.00375532 -0.999992
    outer loop
      vertex -0.224721 -0.71614 0.152479
      vertex -0.382819 -0.663062 0.152513
      vertex -0.27452 -0.671061 0.152384
    endloop
  endfacet
  facet normal -0.00147381 -0.0037553 -0.999992
    outer loop
      vertex -0.561053 -0.520581 0.152241
      vertex -0.382819 -0.663062 0.152513
      vertex 0 -41.2807 0.304482
    endloop
  endfacet
  facet normal -0.00147389 -0.0037554 -0.999992
    outer loop
      vertex -0.382819 -0.663062 0.152513
      vertex -0.561053 -0.520581 0.152241
      vertex -0.449929 -0.564194 0.152241
    endloop
  endfacet
  facet normal 0.67664 -0.0253778 0.735876
    outer loop
      vertex -22.7605 -42.6093 99.1756
      vertex -22.7706 -42.6008 99.1851
      vertex -23.5266 -41.9665 99.9021
    endloop
  endfacet
  facet normal 0.0225991 -0.00340631 -0.999739
    outer loop
      vertex 0.713571 0.107554 0.152241
      vertex 0.732556 0.163456 0.152479
      vertex 0.718417 0.0977888 0.152384
    endloop
  endfacet
  facet normal 0.0225989 -0.00340623 -0.999739
    outer loop
      vertex 0.732556 0.163456 0.152479
      vertex 0.713571 0.107554 0.152241
      vertex 0.731363 0.225595 0.152241
    endloop
  endfacet
  facet normal 0.0225986 -0.00340618 -0.999739
    outer loop
      vertex 1.49235 -39.4094 0.304482
      vertex 0.709472 -0.474837 0.154132
      vertex 0.744453 -0.45615 0.154859
    endloop
  endfacet
  facet normal 0.0225985 -0.00340618 -0.999739
    outer loop
      vertex 0.632376 -0.431146 0.152241
      vertex 0.709472 -0.474837 0.154132
      vertex 1.49235 -39.4094 0.304482
    endloop
  endfacet
  facet normal 0.0226002 -0.0034031 -0.999739
    outer loop
      vertex 0.709472 -0.474837 0.154132
      vertex 0.632376 -0.431146 0.152241
      vertex 0.707232 -0.471684 0.154071
    endloop
  endfacet
  facet normal 0.0225985 -0.00340617 -0.999739
    outer loop
      vertex 0.707232 -0.471684 0.154071
      vertex 0.632376 -0.431146 0.152241
      vertex 0.650168 -0.313103 0.152241
    endloop
  endfacet
  facet normal -0.106213 -0.602377 0.791113
    outer loop
      vertex -23.8927 -42.1779 99.9021
      vertex -24.309 -42.1045 99.9021
      vertex -23.719 -43.1627 99.1756
    endloop
  endfacet
  facet normal 0.305834 -0.529722 0.791113
    outer loop
      vertex -22.7605 -42.6093 99.1756
      vertex -23.8927 -42.1779 99.9021
      vertex -23.719 -43.1627 99.1756
    endloop
  endfacet
  facet normal 0.305834 -0.529721 0.791114
    outer loop
      vertex -23.5266 -41.9665 99.9021
      vertex -23.8927 -42.1779 99.9021
      vertex -22.7605 -42.6093 99.1756
    endloop
  endfacet
  facet normal -0.46857 -0.393171 0.791112
    outer loop
      vertex -24.5808 -41.7806 99.9021
      vertex -24.809 -42.9705 99.1756
      vertex -24.309 -42.1045 99.9021
    endloop
  endfacet
  facet normal 0.486936 -0.843399 -0.227094
    outer loop
      vertex -21.3642 -41.5816 95.638
      vertex 49.5321 -1.28557 98
      vertex -22.4679 -42.8548 98
    endloop
  endfacet
  facet normal 0.486937 -0.843399 -0.22709
    outer loop
      vertex -21.2981 -41.4968 95.4649
      vertex 49.5321 -1.28557 98
      vertex -21.3642 -41.5816 95.638
    endloop
  endfacet
  facet normal 0.486936 -0.843398 -0.227095
    outer loop
      vertex -20.6638 -40.5138 93.1741
      vertex 49.5321 -1.28557 98
      vertex -21.2981 -41.4968 95.4649
    endloop
  endfacet
  facet normal 0.486936 -0.843399 -0.227094
    outer loop
      vertex 49.5321 -1.28557 98
      vertex -20.6638 -40.5138 93.1741
      vertex 35.5138 16.3437 2.46927
    endloop
  endfacet
  facet normal -0.613845 -0.418534 -0.669346
    outer loop
      vertex -0.756863 -0.114472 0.152532
      vertex -0.757107 -0.114115 0.152533
      vertex -0.756818 -0.114072 0.152241
    endloop
  endfacet
  facet normal 0.478201 -0.82827 0.29205
    outer loop
      vertex -22.4679 -42.8548 98
      vertex 49.2395 -1.04005 99.1756
      vertex -22.4726 -42.8508 98.019
    endloop
  endfacet
  facet normal 0.478207 -0.828278 0.292017
    outer loop
      vertex 49.2395 -1.04005 99.1756
      vertex -22.4679 -42.8548 98
      vertex 49.5321 -1.28557 98
    endloop
  endfacet
  facet normal -0.285 0.92402 0.254875
    outer loop
      vertex 34.9753 23.5292 5.53073
      vertex 46.5863 2.30371 95.4649
      vertex 46.6928 2.28882 95.638
    endloop
  endfacet
  facet normal -0.28502 0.924014 0.254876
    outer loop
      vertex 46.5863 2.30371 95.4649
      vertex 34.9753 23.5292 5.53073
      vertex 31.9109 22.584 5.53073
    endloop
  endfacet
  facet normal -0.47552 0.823625 0.309066
    outer loop
      vertex 44.738 9.35461e-009 99.1356
      vertex -22.382 -38.7667 99.1756
      vertex 44.7639 0 99.1756
    endloop
  endfacet
  facet normal -0.475524 0.823632 0.309044
    outer loop
      vertex 44.738 9.35461e-009 99.1356
      vertex -22.369 -38.7442 99.1356
      vertex -22.382 -38.7667 99.1756
    endloop
  endfacet
  facet normal -0.475529 0.82364 0.309015
    outer loop
      vertex -22.369 -38.7442 99.1356
      vertex 44.738 9.35461e-009 99.1356
      vertex -22.0158 -38.1325 98.0486
    endloop
  endfacet
  facet normal -0.293894 0.509039 0.809015
    outer loop
      vertex -22.382 -38.7667 99.1756
      vertex 46.7639 0 99.9021
      vertex 44.7639 0 99.1756
    endloop
  endfacet
  facet normal -0.293894 0.509039 0.809015
    outer loop
      vertex 46.7639 0 99.9021
      vertex -22.382 -38.7667 99.1756
      vertex -23.382 -40.4988 99.9021
    endloop
  endfacet
  facet normal 0.590512 -0.774946 -0.225288
    outer loop
      vertex 50 0 98
      vertex 37.8646 18.5249 2.46927
      vertex 50 6.88843e-007 98
    endloop
  endfacet
  facet normal 0.992028 0 -0.126019
    outer loop
      vertex 50 -6.62746e-006 98
      vertex 37.8646 18.5249 2.46927
      vertex 50 0 98
    endloop
  endfacet
  facet normal 0.923899 -0.336272 -0.182573
    outer loop
      vertex 37.8646 18.5249 2.46927
      vertex 50 -6.62746e-006 98
      vertex 49.5321 -1.28557 98
    endloop
  endfacet
  facet normal 0.00216491 0.00374973 -0.999991
    outer loop
      vertex 0.47738 0.598616 0.152533
      vertex 0.632376 0.431146 0.152241
      vertex 0.528993 0.490834 0.152241
    endloop
  endfacet
  facet normal 0.00216498 0.00374979 -0.999991
    outer loop
      vertex 0.632376 0.431146 0.152241
      vertex 0.47738 0.598616 0.152533
      vertex 34.6527 21.3886 0.304482
    endloop
  endfacet
  facet normal 0.0021649 0.00374991 -0.999991
    outer loop
      vertex 0.411052 0.638236 0.152538
      vertex 34.6527 21.3886 0.304482
      vertex 0.47738 0.598616 0.152533
    endloop
  endfacet
  facet normal 0.00216606 0.00375167 -0.999991
    outer loop
      vertex 0.279726 0.712732 0.152533
      vertex 0.411052 0.638236 0.152538
      vertex 0.409157 0.638655 0.152536
    endloop
  endfacet
  facet normal 0.00216485 0.00374956 -0.999991
    outer loop
      vertex 0.279726 0.712732 0.152533
      vertex 0.409157 0.638655 0.152536
      vertex 0.344212 0.643072 0.152412
    endloop
  endfacet
  facet normal 0.00216499 0.00374977 -0.999991
    outer loop
      vertex 0.411052 0.638236 0.152538
      vertex 0.279726 0.712732 0.152533
      vertex 34.6527 21.3886 0.304482
    endloop
  endfacet
  facet normal 0.00216589 0.00375404 -0.999991
    outer loop
      vertex 0.0571957 0.763227 0.152241
      vertex 0.279726 0.712732 0.152533
      vertex 0.279295 0.712699 0.152532
    endloop
  endfacet
  facet normal 0.00216491 0.00374973 -0.999991
    outer loop
      vertex 0.0571957 0.763227 0.152241
      vertex 0.279295 0.712699 0.152532
      vertex 0.160578 0.703539 0.152241
    endloop
  endfacet
  facet normal 0.00216494 0.00374985 -0.999991
    outer loop
      vertex 0.279726 0.712732 0.152533
      vertex 0.0571957 0.763227 0.152241
      vertex 34.6527 21.3886 0.304482
    endloop
  endfacet
  facet normal 0.452131 -0.854535 -0.255632
    outer loop
      vertex -4.27995 -14.1436 34.0009
      vertex 35.5138 16.3437 2.46927
      vertex -20.6638 -40.5138 93.1741
    endloop
  endfacet
  facet normal 0.452131 -0.854535 -0.255632
    outer loop
      vertex 1.86516 -1.59307 2.91513
      vertex 35.5138 16.3437 2.46927
      vertex -4.27995 -14.1436 34.0009
    endloop
  endfacet
  facet normal 0.452131 -0.854535 -0.255632
    outer loop
      vertex 1.84304 -1.11761 1.28663
      vertex 35.5138 16.3437 2.46927
      vertex 1.86516 -1.59307 2.91513
    endloop
  endfacet
  facet normal 0.452131 -0.854535 -0.25563
    outer loop
      vertex 35.5138 16.3437 2.46927
      vertex 1.84304 -1.11761 1.28663
      vertex 1.83253 -1.11989 1.27565
    endloop
  endfacet
  facet normal -0.539581 0.813476 0.217046
    outer loop
      vertex 31.9109 22.584 5.53073
      vertex 0.447054 2.41181 2.91513
      vertex 14.3887 3.36528 34.0009
    endloop
  endfacet
  facet normal -0.539581 0.813476 0.217046
    outer loop
      vertex 12.0005 0.745848 37.8813
      vertex -5.35434 -10.7657 37.8813
      vertex -19.5467 -33.8558 89.1394
    endloop
  endfacet
  facet normal -0.539581 0.813476 0.217046
    outer loop
      vertex -5.35434 -10.7657 37.8813
      vertex 12.0005 0.745848 37.8813
      vertex 9.72016e-008 5.16192e-008 10.8431
    endloop
  endfacet
  facet normal -0.539724 0.841842 0
    outer loop
      vertex 31.9109 22.584 2.46927
      vertex 0.447054 2.41181 2.91513
      vertex 31.9109 22.584 5.53073
    endloop
  endfacet
  facet normal -0.539724 0.841842 1.54584e-008
    outer loop
      vertex 0.447054 2.41181 2.91513
      vertex 31.9109 22.584 2.46927
      vertex 0.0463635 2.15492 1.28663
    endloop
  endfacet
  facet normal 0.563319 0.826239 -0
    outer loop
      vertex 37.6249 21.7228 2.46927
      vertex 34.9753 23.5292 5.53073
      vertex 37.6249 21.7228 5.53073
    endloop
  endfacet
  facet normal 0.563319 0.826239 0
    outer loop
      vertex 34.9753 23.5292 5.53073
      vertex 37.6249 21.7228 2.46927
      vertex 34.9753 23.5292 2.46927
    endloop
  endfacet
  facet normal -0.613862 -0.418524 -0.669336
    outer loop
      vertex -0.689571 -0.212704 0.152241
      vertex -0.756863 -0.114472 0.152532
      vertex -0.756818 -0.114072 0.152241
    endloop
  endfacet
  facet normal -0.613855 -0.41852 -0.669345
    outer loop
      vertex -0.382819 -0.663062 0.152513
      vertex -0.449929 -0.564194 0.152241
      vertex -0.382683 -0.662827 0.152241
    endloop
  endfacet
  facet normal -0.48187 0.834624 0.26684
    outer loop
      vertex 45.4179 2.3615 93.1741
      vertex 31.9109 22.584 5.53073
      vertex 14.3887 3.36528 34.0009
    endloop
  endfacet
  facet normal -0.481871 0.834624 0.26684
    outer loop
      vertex 31.9109 22.584 5.53073
      vertex 45.4179 2.3615 93.1741
      vertex 46.5863 2.30371 95.4649
    endloop
  endfacet
  facet normal -0.48187 0.834624 0.26684
    outer loop
      vertex 39.0934 9.56478e-008 89.1394
      vertex -22 -38.1051 98
      vertex 44 1.14709e-008 98
    endloop
  endfacet
  facet normal -0.48187 0.834624 0.26684
    outer loop
      vertex 39.0934 9.56478e-008 89.1394
      vertex -19.5467 -33.8558 89.1394
      vertex -22 -38.1051 98
    endloop
  endfacet
  facet normal -0.48187 0.834624 0.26684
    outer loop
      vertex -19.5467 -33.8558 89.1394
      vertex 39.0934 9.56478e-008 89.1394
      vertex 12.0005 0.745848 37.8813
    endloop
  endfacet
  facet normal 0.41851 0.613843 -0.669362
    outer loop
      vertex 37.6249 21.7228 2.46927
      vertex 34.6527 21.3886 0.304482
      vertex 34.9753 23.5292 2.46927
    endloop
  endfacet
  facet normal 0.418511 0.613842 -0.669363
    outer loop
      vertex 35.7502 20.6404 0.304482
      vertex 34.6527 21.3886 0.304482
      vertex 37.6249 21.7228 2.46927
    endloop
  endfacet
  facet normal 0.478207 -0.828278 0.292016
    outer loop
      vertex 49.2395 -1.04005 99.1756
      vertex -22.7605 -42.6093 99.1756
      vertex -22.4726 -42.8508 98.019
    endloop
  endfacet
  facet normal -0.370896 0.618608 -0.692647
    outer loop
      vertex 31.9109 22.584 2.46927
      vertex 0.0524432 2.06719 1.20502
      vertex 0.0535836 2.14696 1.27565
    endloop
  endfacet
  facet normal -0.370896 0.618608 -0.692647
    outer loop
      vertex 0.0524432 2.06719 1.20502
      vertex 31.9109 22.584 2.46927
      vertex 0.0232792 0.917612 0.193936
    endloop
  endfacet
  facet normal -0.370898 0.618611 -0.692644
    outer loop
      vertex 31.9109 22.584 2.46927
      vertex 0.0535836 2.14696 1.27565
      vertex 0.0463635 2.15492 1.28663
    endloop
  endfacet
  facet normal -0.370901 0.618616 -0.692637
    outer loop
      vertex -0.561053 0.520581 0.152241
      vertex -0.561253 0.520766 0.152513
      vertex -0.557271 0.523151 0.152511
    endloop
  endfacet
  facet normal 0.348446 -0.624244 -0.699217
    outer loop
      vertex 1.83253 -1.11989 1.27565
      vertex 34.8757 18.4123 0.304482
      vertex 35.5138 16.3437 2.46927
    endloop
  endfacet
  facet normal 0.348446 -0.624244 -0.699217
    outer loop
      vertex 34.8757 18.4123 0.304482
      vertex 1.83253 -1.11989 1.27565
      vertex 1.76402 -1.07901 1.20502
    endloop
  endfacet
  facet normal -0.366935 0.613476 -0.699289
    outer loop
      vertex 33.3833 20.9971 0.304482
      vertex 0.0232792 0.917612 0.193936
      vertex 31.9109 22.584 2.46927
    endloop
  endfacet
  facet normal -0.366935 0.613476 -0.699289
    outer loop
      vertex 0.0232792 0.917612 0.193936
      vertex 33.3833 20.9971 0.304482
      vertex 0.0228109 0.87279 0.154859
    endloop
  endfacet
  facet normal -0.366941 0.613485 -0.699278
    outer loop
      vertex -0.507835 0.552684 0.152479
      vertex -0.561053 0.520581 0.152241
      vertex -0.557271 0.523151 0.152511
    endloop
  endfacet
  facet normal 0.559937 0.821279 0.109413
    outer loop
      vertex 37.6249 21.7228 5.53073
      vertex 34.9753 23.5292 5.53073
      vertex 49.5321 1.28557 98
    endloop
  endfacet
  facet normal -0.218984 0.70993 -0.669362
    outer loop
      vertex 34.6527 21.3886 0.304482
      vertex 31.9109 22.584 2.46927
      vertex 34.9753 23.5292 2.46927
    endloop
  endfacet
  facet normal -0.294755 0.955573 0
    outer loop
      vertex 34.9753 23.5292 2.46927
      vertex 31.9109 22.584 5.53073
      vertex 34.9753 23.5292 5.53073
    endloop
  endfacet
  facet normal -0.294755 0.955573 0
    outer loop
      vertex 31.9109 22.584 5.53073
      vertex 34.9753 23.5292 2.46927
      vertex 31.9109 22.584 2.46927
    endloop
  endfacet
  facet normal 0.305835 -0.529721 0.791113
    outer loop
      vertex 48.4734 -0.397264 99.9021
      vertex -22.7605 -42.6093 99.1756
      vertex 49.2395 -1.04005 99.1756
    endloop
  endfacet
  facet normal 0.305723 -0.529535 0.791282
    outer loop
      vertex -22.7605 -42.6093 99.1756
      vertex 48.4734 -0.397264 99.9021
      vertex -22.7706 -42.6008 99.1851
    endloop
  endfacet
  facet normal 0.00896187 -0.0083154 -0.999925
    outer loop
      vertex 0.707232 -0.471684 0.154071
      vertex 0.731363 -0.225595 0.152241
      vertex 35.8494 19.3158 0.304482
    endloop
  endfacet
  facet normal 0.00896187 -0.0083154 -0.999925
    outer loop
      vertex 0.731363 -0.225595 0.152241
      vertex 0.707232 -0.471684 0.154071
      vertex 0.650168 -0.313103 0.152241
    endloop
  endfacet
  facet normal 0.00896207 -0.00831545 -0.999925
    outer loop
      vertex 0.348512 -0.673668 0.152536
      vertex 0.360815 -0.624951 0.152241
      vertex 0.38481 -0.619632 0.152412
    endloop
  endfacet
  facet normal 0.00896187 -0.0083154 -0.999925
    outer loop
      vertex 0.360815 -0.624951 0.152241
      vertex 0.348512 -0.673668 0.152536
      vertex 0.279619 -0.71246 0.152241
    endloop
  endfacet
  facet normal 0.00416154 0.000311866 -0.999991
    outer loop
      vertex 35.8494 19.3158 0.304482
      vertex 0.731363 -0.225595 0.152241
      vertex 35.7502 20.6404 0.304482
    endloop
  endfacet
  facet normal 0.740859 0.0555194 -0.669363
    outer loop
      vertex 37.8646 18.5249 2.46927
      vertex 35.7502 20.6404 0.304482
      vertex 37.6249 21.7228 2.46927
    endloop
  endfacet
  facet normal 0.495851 0.858842 0.128538
    outer loop
      vertex 49.5321 1.28557 98
      vertex 34.9753 23.5292 5.53073
      vertex 48.3473 1.96962 98
    endloop
  endfacet
  facet normal -0.168276 0.954334 0.246842
    outer loop
      vertex 48.3473 1.96962 98
      vertex 34.9753 23.5292 5.53073
      vertex 46.6928 2.28882 95.638
    endloop
  endfacet
  facet normal 0.864046 0.503413 0
    outer loop
      vertex 49.5321 1.28557 98
      vertex 37.6249 21.7228 2.46927
      vertex 37.6249 21.7228 5.53073
    endloop
  endfacet
  facet normal 0.305835 -0.529722 0.791113
    outer loop
      vertex 48.4734 -0.397264 99.9021
      vertex -23.5266 -41.9665 99.9021
      vertex -22.7706 -42.6008 99.1851
    endloop
  endfacet
  facet normal -0.709871 0.218966 -0.66943
    outer loop
      vertex -0.756818 -0.114072 0.152241
      vertex -0.729022 -0.0234393 0.152412
      vertex -0.721631 0 0.152241
    endloop
  endfacet
  facet normal -0.709945 0.218989 -0.669345
    outer loop
      vertex -0.729022 -0.0234393 0.152412
      vertex -0.756818 -0.114072 0.152241
      vertex -0.757107 -0.114115 0.152533
    endloop
  endfacet
  facet normal -0.709932 0.218985 -0.669359
    outer loop
      vertex -0.561053 0.520581 0.152241
      vertex -0.59624 0.406509 0.152241
      vertex -0.561371 0.520382 0.152512
    endloop
  endfacet
  facet normal -0.70993 0.218973 -0.669366
    outer loop
      vertex -0.561053 0.520581 0.152241
      vertex -0.561371 0.520382 0.152512
      vertex -0.561253 0.520766 0.152513
    endloop
  endfacet
  facet normal 0.0108865 -0.0117339 -0.999872
    outer loop
      vertex 0.347201 -0.6751 0.152538
      vertex 0.279619 -0.71246 0.152241
      vertex 0.348512 -0.673668 0.152536
    endloop
  endfacet
  facet normal 0.0108842 -0.0117299 -0.999872
    outer loop
      vertex 0.707232 -0.471684 0.154071
      vertex 34.8757 18.4123 0.304482
      vertex 0.709472 -0.474837 0.154132
    endloop
  endfacet
  facet normal 0.010885 -0.0117313 -0.999872
    outer loop
      vertex 34.8757 18.4123 0.304482
      vertex 0.707232 -0.471684 0.154071
      vertex 35.8494 19.3158 0.304482
    endloop
  endfacet
  facet normal 0.662123 -0.713598 -0.228848
    outer loop
      vertex 49.5321 -1.28557 98
      vertex 35.5138 16.3437 2.46927
      vertex 37.8646 18.5249 2.46927
    endloop
  endfacet
  facet normal 0.740859 0.05552 -0.669362
    outer loop
      vertex 35.8494 19.3158 0.304482
      vertex 35.7502 20.6404 0.304482
      vertex 37.8646 18.5249 2.46927
    endloop
  endfacet
  facet normal -0.475528 0.823639 0.309016
    outer loop
      vertex 44 1.14709e-008 98
      vertex -22.0158 -38.1325 98.0486
      vertex 44.738 9.35461e-009 99.1356
    endloop
  endfacet
  facet normal -0.475526 0.823635 0.309031
    outer loop
      vertex -22.0158 -38.1325 98.0486
      vertex 44 1.14709e-008 98
      vertex -22 -38.1051 98
    endloop
  endfacet
  facet normal 0.990987 0.0742638 -0.111486
    outer loop
      vertex 50 7.79658e-007 98
      vertex 37.8646 18.5249 2.46927
      vertex 37.6249 21.7228 2.46927
    endloop
  endfacet
  facet normal 0.992028 0 -0.126019
    outer loop
      vertex 37.8646 18.5249 2.46927
      vertex 50 7.79658e-007 98
      vertex 50 6.88843e-007 98
    endloop
  endfacet
  facet normal 0.938787 0.341688 -0.0439141
    outer loop
      vertex 50 3.03346e-006 98
      vertex 37.6249 21.7228 2.46927
      vertex 49.5321 1.28557 98
    endloop
  endfacet
  facet normal 0.504436 0.853789 0.128799
    outer loop
      vertex 37.6249 21.7228 2.46927
      vertex 50 3.03346e-006 98
      vertex 50 7.79658e-007 98
    endloop
  endfacet
  facet normal -0.218985 0.709929 -0.669363
    outer loop
      vertex 33.3833 20.9971 0.304482
      vertex 31.9109 22.584 2.46927
      vertex 34.6527 21.3886 0.304482
    endloop
  endfacet
  facet normal -0.0083519 0.021274 -0.999739
    outer loop
      vertex 0.0571957 0.763227 0.152241
      vertex 0.054875 0.848323 0.154071
      vertex 0.0564852 0.851839 0.154132
    endloop
  endfacet
  facet normal -0.00834948 0.0212741 -0.999739
    outer loop
      vertex 0.054875 0.848323 0.154071
      vertex 0.0571957 0.763227 0.152241
      vertex -0.0539284 0.719613 0.152241
    endloop
  endfacet
  facet normal -0.00834945 0.021274 -0.999739
    outer loop
      vertex 0.0564852 0.851839 0.154132
      vertex 33.3833 20.9971 0.304482
      vertex 0.0571957 0.763227 0.152241
    endloop
  endfacet
  facet normal -0.00834937 0.0212739 -0.999739
    outer loop
      vertex 33.3833 20.9971 0.304482
      vertex 0.0564852 0.851839 0.154132
      vertex 0.0228109 0.87279 0.154859
    endloop
  endfacet
  facet normal -0.00834962 0.0212746 -0.999739
    outer loop
      vertex -0.449929 0.564194 0.152241
      vertex -0.507835 0.552684 0.152479
      vertex -0.443895 0.573273 0.152384
    endloop
  endfacet
  facet normal -0.00834957 0.0212743 -0.999739
    outer loop
      vertex -0.507835 0.552684 0.152479
      vertex -0.449929 0.564194 0.152241
      vertex -0.561053 0.520581 0.152241
    endloop
  endfacet
  facet normal 0.346017 -0.620331 -0.70389
    outer loop
      vertex 0.279726 -0.712732 0.152533
      vertex 0.279619 -0.71246 0.152241
      vertex 0.347201 -0.6751 0.152538
    endloop
  endfacet
  facet normal 0.346023 -0.620342 -0.703877
    outer loop
      vertex 0.783036 -0.478966 0.193936
      vertex 34.8757 18.4123 0.304482
      vertex 1.76402 -1.07901 1.20502
    endloop
  endfacet
  facet normal 0.346023 -0.620342 -0.703878
    outer loop
      vertex 0.744453 -0.45615 0.154859
      vertex 34.8757 18.4123 0.304482
      vertex 0.783036 -0.478966 0.193936
    endloop
  endfacet
  facet normal 0.346031 -0.620358 -0.70386
    outer loop
      vertex 34.8757 18.4123 0.304482
      vertex 0.744453 -0.45615 0.154859
      vertex 0.709472 -0.474837 0.154132
    endloop
  endfacet
  facet normal -0.05555 -0.740854 -0.669365
    outer loop
      vertex 0.279726 -0.712732 0.152533
      vertex 0.279295 -0.712699 0.152532
      vertex 0.279619 -0.71246 0.152241
    endloop
  endfacet
  facet normal -0.00471709 0.0152924 -0.999872
    outer loop
      vertex 34.6527 21.3886 0.304482
      vertex 0.0571957 0.763227 0.152241
      vertex 33.3833 20.9971 0.304482
    endloop
  endfacet
  facet normal 0.00235085 0.00344806 -0.999991
    outer loop
      vertex 35.7502 20.6404 0.304482
      vertex 0.632376 0.431146 0.152241
      vertex 34.6527 21.3886 0.304482
    endloop
  endfacet
  facet normal 0.505325 -0.544611 -0.669362
    outer loop
      vertex 37.8646 18.5249 2.46927
      vertex 35.5138 16.3437 2.46927
      vertex 35.8494 19.3158 0.304482
    endloop
  endfacet
  facet normal 0.505324 -0.544611 -0.669363
    outer loop
      vertex 35.5138 16.3437 2.46927
      vertex 34.8757 18.4123 0.304482
      vertex 35.8494 19.3158 0.304482
    endloop
  endfacet
  facet normal -0.0555211 -0.740872 -0.669348
    outer loop
      vertex 0.279295 -0.712699 0.152532
      vertex 0.160578 -0.703539 0.152241
      vertex 0.279619 -0.71246 0.152241
    endloop
  endfacet
  facet normal -0.0555234 -0.7409 -0.669317
    outer loop
      vertex -0.382683 -0.662827 0.152241
      vertex -0.27452 -0.671061 0.152384
      vertex -0.382819 -0.663062 0.152513
    endloop
  endfacet
  facet normal -0.0555133 -0.740771 -0.66946
    outer loop
      vertex -0.27452 -0.671061 0.152384
      vertex -0.382683 -0.662827 0.152241
      vertex -0.263641 -0.671748 0.152241
    endloop
  endfacet
  facet normal 0.00398896 0.000601292 -0.999992
    outer loop
      vertex 0.765464 0.000362886 0.152513
      vertex 0.718417 0.0977888 0.152384
      vertex 0.732556 0.163456 0.152479
    endloop
  endfacet
  facet normal 0.00398909 0.000601286 -0.999992
    outer loop
      vertex 0.731363 -0.225595 0.152241
      vertex 0.765639 0 0.152513
      vertex 35.7502 20.6404 0.304482
    endloop
  endfacet
  facet normal 0.00404113 0.000593379 -0.999992
    outer loop
      vertex 0.765639 0 0.152513
      vertex 0.731363 -0.225595 0.152241
      vertex 0.765464 -0.000362303 0.152512
    endloop
  endfacet
  facet normal 0.00398909 0.000601258 -0.999992
    outer loop
      vertex 0.765464 -0.000362303 0.152512
      vertex 0.731363 -0.225595 0.152241
      vertex 0.713571 -0.107554 0.152241
    endloop
  endfacet
  facet normal 0.00409598 0.000622885 -0.999991
    outer loop
      vertex 0.732556 0.163456 0.152479
      vertex 0.765639 0 0.152513
      vertex 0.765464 0.000362886 0.152513
    endloop
  endfacet
  facet normal 0.00398851 0.000601133 -0.999992
    outer loop
      vertex 0.765639 0 0.152513
      vertex 0.732556 0.163456 0.152479
      vertex 0.731698 0.221035 0.152511
    endloop
  endfacet
  facet normal 0.00400329 0.000603403 -0.999992
    outer loop
      vertex 0.765639 0 0.152513
      vertex 0.731698 0.221035 0.152511
      vertex 0.731624 0.225676 0.152513
    endloop
  endfacet
  facet normal 0.0039891 0.000601264 -0.999992
    outer loop
      vertex 0.765639 0 0.152513
      vertex 0.731624 0.225676 0.152513
      vertex 35.7502 20.6404 0.304482
    endloop
  endfacet
  facet normal 0.00403632 0.000624034 -0.999992
    outer loop
      vertex 0.632376 0.431146 0.152241
      vertex 0.731624 0.225676 0.152513
      vertex 0.731349 0.22597 0.152512
    endloop
  endfacet
  facet normal 0.00398911 0.000601259 -0.999992
    outer loop
      vertex 0.632376 0.431146 0.152241
      vertex 0.731349 0.22597 0.152512
      vertex 0.650168 0.313103 0.152241
    endloop
  endfacet
  facet normal 0.00398912 0.000601234 -0.999992
    outer loop
      vertex 0.731624 0.225676 0.152513
      vertex 0.632376 0.431146 0.152241
      vertex 35.7502 20.6404 0.304482
    endloop
  endfacet
endsolid OpenSCAD_Model
